<svg id="svg" version="1.1" xmlns="http://www.w3.org/2000/svg" xmlns:xlink="http://www.w3.org/1999/xlink" width="400" height="400" viewBox="0, 0, 400,400"><g id="svgg"><path id="path0" d="M53.618 177.355 C 34.857 179.907,26.854 202.429,39.994 215.698 C 50.013 225.816,66.405 225.162,75.509 214.282 C 77.336 212.098,77.387 212.178,72.194 209.118 L 67.556 206.385 66.089 208.016 C 56.936 218.196,39.959 207.055,45.982 194.820 C 49.644 187.380,59.766 185.714,65.731 191.568 L 67.295 193.104 71.564 190.660 C 73.912 189.316,76.101 188.037,76.428 187.819 C 76.975 187.453,76.902 187.275,75.523 185.582 C 70.636 179.582,61.757 176.247,53.618 177.355 M99.180 177.371 C 78.792 180.341,71.552 205.045,87.241 218.103 C 98.205 227.229,116.067 224.208,123.134 212.032 C 132.960 195.102,118.737 174.522,99.180 177.371 M200.833 177.215 C 196.396 177.727,193.092 179.225,190.812 181.760 L 189.333 183.405 189.333 180.869 L 189.333 178.333 183.500 178.333 L 177.667 178.333 177.667 190.779 C 177.667 197.624,177.766 207.524,177.887 212.779 L 178.107 222.333 183.700 222.333 L 189.293 222.333 189.397 208.575 L 189.500 194.817 190.603 192.578 C 192.219 189.296,194.848 187.667,198.527 187.667 C 200.564 187.667,200.287 188.160,201.483 182.411 C 202.371 178.144,202.502 176.966,202.083 177.050 C 201.946 177.077,201.383 177.152,200.833 177.215 M219.167 177.307 C 209.819 178.491,204.830 183.256,204.836 190.993 C 204.841 198.384,208.161 201.391,220.094 204.819 C 227.611 206.979,229.067 207.846,229.067 210.167 C 229.067 215.401,217.755 214.538,213.693 208.994 L 212.833 207.821 207.749 210.447 L 202.665 213.073 203.416 214.414 C 206.269 219.512,211.656 222.529,219.306 223.315 C 233.311 224.752,242.884 217.744,241.036 207.408 C 239.949 201.321,236.552 198.702,225.755 195.626 C 218.121 193.451,216.667 192.620,216.667 190.433 C 216.667 186.133,225.324 185.987,228.947 190.225 L 230.199 191.689 234.999 189.167 C 237.639 187.780,239.867 186.577,239.949 186.495 C 240.032 186.413,239.673 185.731,239.153 184.980 C 235.348 179.490,227.058 176.307,219.167 177.307 M263.541 177.379 C 247.958 179.379,239.375 196.537,246.695 211.054 C 253.438 224.426,273.203 227.705,284.185 217.273 C 287.243 214.368,287.378 214.962,282.828 211.329 L 278.990 208.265 277.677 209.451 C 270.454 215.977,258.242 213.202,255.521 204.417 L 255.288 203.667 272.521 203.667 L 289.754 203.667 289.578 199.250 C 289.005 184.867,277.897 175.536,263.541 177.379 M315.833 177.375 C 312.726 177.763,309.151 179.514,307.396 181.507 C 305.698 183.436,305.667 183.421,305.667 180.667 L 305.667 178.333 300.167 178.333 L 294.667 178.333 294.667 200.333 L 294.667 222.333 300.140 222.333 L 305.614 222.333 305.747 208.917 C 305.902 193.176,305.943 192.924,308.781 190.160 C 310.676 188.314,312.268 187.667,314.908 187.667 L 316.572 187.667 317.477 183.083 C 317.975 180.563,318.462 178.162,318.560 177.750 C 318.659 177.338,318.610 177.019,318.453 177.042 C 318.295 177.065,317.117 177.215,315.833 177.375 M338.134 177.319 C 321.162 179.943,313.076 201.273,323.853 214.991 C 331.002 224.090,345.160 226.351,352.812 219.616 C 354.574 218.065,354.654 218.099,355.455 220.750 L 356.034 222.667 361.350 222.667 L 366.667 222.667 366.667 200.333 L 366.667 178.000 361.356 178.000 C 355.347 178.000,355.993 177.651,355.304 181.273 L 354.904 183.379 353.491 181.764 C 350.453 178.290,343.976 176.416,338.134 177.319 M131.333 193.263 C 131.333 212.179,131.697 214.210,135.884 218.686 C 141.646 224.847,153.019 225.259,158.900 219.520 L 161.000 217.471 161.000 219.902 L 161.000 222.333 166.667 222.333 L 172.333 222.333 172.333 200.000 L 172.333 177.667 166.683 177.667 L 161.033 177.667 160.933 191.750 C 160.834 205.748,160.829 205.844,160.043 207.581 C 156.744 214.878,145.350 214.738,142.947 207.371 C 142.680 206.552,142.510 201.603,142.418 191.917 L 142.283 177.667 136.808 177.667 L 131.333 177.667 131.333 193.263 M272.825 188.815 C 275.465 190.106,279.104 194.674,278.207 195.571 C 278.149 195.629,273.054 195.636,266.885 195.588 L 255.668 195.500 256.409 194.000 C 259.195 188.366,266.921 185.926,272.825 188.815 M106.453 188.876 C 114.940 191.469,117.809 201.821,111.831 208.278 C 106.192 214.369,96.435 213.621,92.070 206.763 C 85.900 197.068,95.241 185.449,106.453 188.876 M346.822 188.893 C 357.364 192.572,358.200 206.582,348.159 211.302 C 337.572 216.279,326.417 205.526,331.464 195.210 C 334.212 189.593,340.921 186.834,346.822 188.893 " stroke="none" fill="#fafbfb" fill-rule="evenodd"></path><path id="path1" d="M0.000 200.000 L 0.000 400.000 200.000 400.000 L 400.000 400.000 400.000 200.000 L 400.000 0.000 200.000 0.000 L 0.000 0.000 0.000 200.000 M64.167 177.997 C 69.053 179.537,77.476 185.738,76.925 187.391 C 76.846 187.628,74.639 189.058,72.019 190.569 L 67.257 193.316 65.787 191.803 C 58.127 183.921,44.586 189.602,45.058 200.500 C 45.511 210.970,58.481 215.583,65.967 207.937 L 67.623 206.246 72.311 208.987 C 77.914 212.262,77.633 211.895,76.058 213.887 C 61.897 231.802,32.430 221.515,33.419 199.000 C 34.084 183.860,49.452 173.362,64.167 177.997 M107.635 177.493 C 129.952 182.188,133.449 211.689,112.833 221.351 C 92.794 230.743,71.436 210.177,80.794 190.500 C 85.490 180.626,96.701 175.193,107.635 177.493 M202.587 177.750 C 202.500 178.162,202.015 180.542,201.510 183.038 L 200.590 187.576 198.378 187.766 C 194.455 188.102,192.017 189.668,190.625 192.748 C 189.838 194.490,189.833 194.579,189.736 208.417 L 189.639 222.333 183.653 222.333 L 177.667 222.333 177.667 200.159 L 177.667 177.985 183.583 178.076 L 189.500 178.167 189.599 180.424 L 189.697 182.681 190.587 181.624 C 192.753 179.050,197.136 177.175,201.289 177.045 C 202.632 177.003,202.732 177.058,202.587 177.750 M227.471 177.500 C 233.274 178.729,242.155 185.406,239.816 186.781 C 239.459 186.992,237.124 188.237,234.627 189.549 L 230.087 191.935 228.858 190.464 C 225.651 186.628,217.488 186.185,217.057 189.823 C 216.739 192.509,217.692 193.130,225.537 195.354 C 237.806 198.832,241.167 201.911,241.167 209.675 C 241.167 215.259,238.855 218.997,233.901 221.423 C 227.708 224.456,216.605 224.345,210.377 221.189 C 207.155 219.556,202.649 214.891,202.672 213.212 C 202.680 212.608,213.086 207.424,213.257 207.939 C 215.160 213.645,229.000 215.587,229.000 210.147 C 229.000 208.038,227.098 206.967,219.561 204.836 C 208.883 201.818,205.154 198.645,204.448 191.979 C 203.385 181.951,214.748 174.804,227.471 177.500 M272.863 177.669 C 283.898 180.467,292.428 193.393,289.777 203.300 L 289.563 204.101 272.615 203.917 C 253.589 203.711,255.058 203.488,256.511 206.356 C 260.163 213.562,271.545 215.120,277.754 209.263 L 279.008 208.080 282.992 211.256 L 286.976 214.431 286.311 215.364 C 278.318 226.589,257.519 226.151,248.817 214.574 C 235.364 196.678,251.311 172.203,272.863 177.669 M317.853 182.250 L 316.804 187.500 314.568 187.749 C 310.521 188.198,308.057 189.957,306.770 193.315 C 306.257 194.652,306.174 196.474,306.077 208.583 L 305.966 222.333 300.150 222.333 L 294.333 222.333 294.333 200.167 L 294.333 178.000 300.167 178.000 L 306.000 178.000 306.000 180.393 L 306.000 182.786 307.479 181.243 C 309.814 178.806,313.876 177.072,317.368 177.022 L 318.902 177.000 317.853 182.250 M346.256 177.503 C 349.191 178.194,351.526 179.468,353.306 181.347 L 354.833 182.960 355.333 180.396 L 355.833 177.833 361.250 177.742 L 366.667 177.650 366.667 200.333 L 366.667 223.017 361.261 222.925 L 355.855 222.833 355.177 220.643 L 354.500 218.452 352.514 220.061 C 343.824 227.103,328.817 223.545,322.185 212.873 C 311.517 195.704,326.995 172.961,346.256 177.503 M142.667 191.606 C 142.667 207.595,142.730 208.082,145.105 210.454 C 148.168 213.512,154.683 213.494,157.850 210.419 C 160.650 207.698,160.985 205.500,160.993 189.750 L 161.000 177.667 166.833 177.667 L 172.667 177.667 172.667 200.167 L 172.667 222.667 166.833 222.667 L 161.000 222.667 161.000 220.181 L 161.000 217.695 159.452 219.351 C 152.795 226.467,138.894 224.740,133.825 216.167 C 131.197 211.721,131.204 211.779,131.075 193.750 L 130.959 177.667 136.813 177.667 L 142.667 177.667 142.667 191.606 M263.976 188.122 C 260.820 188.974,258.124 191.143,256.662 194.009 L 255.986 195.333 261.440 195.333 C 264.439 195.333,269.392 195.432,272.447 195.552 C 278.859 195.805,278.773 195.858,277.001 192.769 C 274.752 188.848,268.955 186.780,263.976 188.122 M99.310 188.769 C 88.471 191.832,87.163 206.100,97.265 211.073 C 107.209 215.969,118.640 205.254,113.860 195.518 C 111.249 190.201,104.811 187.215,99.310 188.769 M339.833 188.630 C 330.465 191.165,327.212 202.452,334.015 208.815 C 343.472 217.661,358.834 208.165,354.342 196.251 C 352.298 190.831,345.294 187.152,339.833 188.630 " stroke="none" fill="#000000" fill-rule="evenodd"></path><path id="path2" d="M172.491 200.167 C 172.491 212.633,172.532 217.685,172.583 211.392 C 172.634 205.100,172.634 194.900,172.583 188.726 C 172.532 182.552,172.491 187.700,172.491 200.167 M189.445 180.667 C 189.445 182.042,189.504 182.604,189.576 181.917 C 189.648 181.229,189.648 180.104,189.576 179.417 C 189.504 178.729,189.445 179.292,189.445 180.667 M325.479 183.750 L 324.500 184.833 325.583 183.854 C 326.179 183.316,326.667 182.828,326.667 182.771 C 326.667 182.513,326.392 182.740,325.479 183.750 M85.146 184.083 L 84.167 185.167 85.250 184.188 C 86.260 183.275,86.487 183.000,86.229 183.000 C 86.172 183.000,85.684 183.487,85.146 184.083 M259.583 195.582 C 261.646 195.641,265.021 195.641,267.083 195.582 C 269.146 195.524,267.458 195.476,263.333 195.476 C 259.208 195.476,257.521 195.524,259.583 195.582 M189.471 203.167 C 189.471 206.467,189.521 207.772,189.582 206.066 C 189.643 204.361,189.642 201.661,189.581 200.066 C 189.520 198.472,189.471 199.867,189.471 203.167 M44.751 199.833 C 44.754 200.567,44.823 200.827,44.902 200.413 C 44.982 199.998,44.979 199.398,44.896 199.079 C 44.812 198.761,44.747 199.100,44.751 199.833 M270.228 203.916 C 273.745 203.970,279.595 203.970,283.228 203.916 C 286.861 203.862,283.983 203.818,276.833 203.818 C 269.683 203.818,266.711 203.862,270.228 203.916 M150.750 212.896 C 151.071 212.980,151.596 212.980,151.917 212.896 C 152.237 212.813,151.975 212.744,151.333 212.744 C 150.692 212.744,150.429 212.813,150.750 212.896 M119.649 216.583 L 118.500 217.833 119.750 216.685 C 120.913 215.615,121.153 215.333,120.899 215.333 C 120.843 215.333,120.281 215.896,119.649 216.583 M249.667 215.771 C 249.667 215.828,250.154 216.316,250.750 216.854 L 251.833 217.833 250.854 216.750 C 249.942 215.740,249.667 215.513,249.667 215.771 M205.000 217.104 C 205.000 217.162,205.487 217.649,206.083 218.188 L 207.167 219.167 206.188 218.083 C 205.275 217.074,205.000 216.847,205.000 217.104 M136.000 219.167 C 136.622 219.808,137.206 220.333,137.297 220.333 C 137.389 220.333,136.955 219.808,136.333 219.167 C 135.711 218.525,135.128 218.000,135.036 218.000 C 134.944 218.000,135.378 218.525,136.000 219.167 M358.583 222.915 C 360.096 222.976,362.571 222.976,364.083 222.915 C 365.596 222.853,364.358 222.802,361.333 222.802 C 358.308 222.802,357.071 222.853,358.583 222.915 " stroke="none" fill="#5c94e4" fill-rule="evenodd"></path><path id="path3" d="M358.583 177.915 C 360.096 177.976,362.571 177.976,364.083 177.915 C 365.596 177.853,364.358 177.802,361.333 177.802 C 358.308 177.802,357.071 177.853,358.583 177.915 M180.400 178.248 C 181.995 178.309,184.695 178.309,186.400 178.249 C 188.105 178.188,186.800 178.138,183.500 178.138 C 180.200 178.137,178.805 178.187,180.400 178.248 M297.433 178.248 C 299.046 178.310,301.596 178.309,303.100 178.248 C 304.603 178.186,303.283 178.136,300.167 178.136 C 297.050 178.137,295.820 178.187,297.433 178.248 M189.452 211.833 C 189.451 213.483,189.507 214.200,189.577 213.427 C 189.647 212.653,189.648 211.303,189.579 210.427 C 189.510 209.550,189.453 210.183,189.452 211.833 " stroke="none" fill="#7cacec" fill-rule="evenodd"></path><path id="path4" d="M131.153 192.333 C 131.153 200.492,131.197 203.829,131.250 199.750 C 131.303 195.671,131.303 188.996,131.250 184.917 C 131.197 180.838,131.153 184.175,131.153 192.333 M142.485 190.833 C 142.485 198.167,142.529 201.119,142.583 197.394 C 142.637 193.670,142.637 187.670,142.583 184.061 C 142.529 180.453,142.485 183.500,142.485 190.833 M294.491 200.167 C 294.491 212.267,294.532 217.168,294.583 211.059 C 294.634 204.950,294.634 195.050,294.583 189.059 C 294.532 183.068,294.491 188.067,294.491 200.167 M305.779 180.667 C 305.779 182.042,305.838 182.604,305.909 181.917 C 305.981 181.229,305.981 180.104,305.909 179.417 C 305.838 178.729,305.779 179.292,305.779 180.667 M221.254 187.236 C 221.669 187.315,222.269 187.312,222.587 187.229 C 222.906 187.146,222.567 187.080,221.833 187.084 C 221.100 187.088,220.839 187.156,221.254 187.236 M305.818 210.000 C 305.818 216.875,305.862 219.688,305.916 216.250 C 305.970 212.813,305.970 207.188,305.916 203.750 C 305.862 200.313,305.818 203.125,305.818 210.000 M289.767 200.000 C 289.767 201.008,289.829 201.421,289.905 200.917 C 289.982 200.412,289.982 199.588,289.905 199.083 C 289.829 198.579,289.767 198.992,289.767 200.000 M318.767 200.667 C 318.767 201.675,318.829 202.088,318.905 201.583 C 318.982 201.079,318.982 200.254,318.905 199.750 C 318.829 199.246,318.767 199.658,318.767 200.667 M177.806 216.000 C 177.806 219.575,177.855 221.037,177.915 219.250 C 177.975 217.463,177.975 214.537,177.915 212.750 C 177.855 210.963,177.806 212.425,177.806 216.000 M222.250 213.569 C 222.662 213.648,223.338 213.648,223.750 213.569 C 224.162 213.489,223.825 213.424,223.000 213.424 C 222.175 213.424,221.838 213.489,222.250 213.569 M189.461 218.500 C 189.461 220.700,189.515 221.557,189.580 220.404 C 189.646 219.251,189.645 217.451,189.579 216.404 C 189.513 215.357,189.460 216.300,189.461 218.500 M284.479 217.083 L 283.500 218.167 284.583 217.188 C 285.179 216.649,285.667 216.162,285.667 216.104 C 285.667 215.847,285.392 216.074,284.479 217.083 M163.750 222.582 C 165.354 222.643,167.979 222.643,169.583 222.582 C 171.188 222.520,169.875 222.470,166.667 222.470 C 163.458 222.470,162.146 222.520,163.750 222.582 " stroke="none" fill="#84acec" fill-rule="evenodd"></path></g></svg>