<?xml version="1.0" standalone="no"?>
<!DOCTYPE svg PUBLIC "-//W3C//DTD SVG 20010904//EN"
 "http://www.w3.org/TR/2001/REC-SVG-20010904/DTD/svg10.dtd">
<svg version="1.0" xmlns="http://www.w3.org/2000/svg"
 width="512.000000pt" height="512.000000pt" viewBox="0 0 512.000000 512.000000"
 preserveAspectRatio="xMidYMid meet">

<g transform="translate(0.000000,512.000000) scale(0.100000,-0.100000)"
fill="#000000" stroke="none">
<path d="M638 5110 c-78 -13 -199 -58 -268 -98 -83 -48 -214 -180 -263 -262
-21 -36 -52 -108 -70 -160 l-32 -95 0 -1930 c0 -2182 -8 -1970 83 -2155 39
-80 61 -109 137 -185 75 -76 105 -98 185 -138 183 -90 -27 -82 2160 -82 l1935
0 85 28 c247 83 414 250 497 497 l28 85 0 1945 0 1945 -32 90 c-44 128 -95
207 -193 306 -71 70 -102 93 -180 131 -184 91 30 82 -2120 84 -1048 1 -1926
-2 -1952 -6z m3232 -795 c0 -2 -60 -78 -133 -167 -73 -90 -166 -203 -206 -253
l-73 -90 -417 -6 -416 -5 -118 -31 c-246 -66 -461 -197 -619 -378 -156 -179
-246 -361 -294 -590 -25 -124 -25 -346 0 -470 107 -518 500 -901 1015 -989 74
-12 166 -16 423 -16 l328 0 0 500 0 500 -500 2 -500 3 161 200 c89 110 182
226 208 257 l46 58 553 0 552 0 0 -442 0 -443 -173 -211 c-94 -116 -255 -314
-357 -440 -102 -125 -235 -289 -296 -363 l-111 -136 -124 -3 c-443 -11 -893
168 -1223 487 -300 290 -482 649 -531 1048 -60 479 74 953 372 1323 234 290
552 500 908 599 202 56 243 59 913 60 336 1 612 -1 612 -4z"/>
</g>
</svg>
