<?xml version="1.0" standalone="no"?>
<!DOCTYPE svg PUBLIC "-//W3C//DTD SVG 20010904//EN"
 "http://www.w3.org/TR/2001/REC-SVG-20010904/DTD/svg10.dtd">
<svg version="1.0" xmlns="http://www.w3.org/2000/svg"
 width="225.000000pt" height="225.000000pt" viewBox="0 0 225.000000 225.000000"
 preserveAspectRatio="xMidYMid meet">

<g transform="translate(0.000000,225.000000) scale(0.100000,-0.100000)"
fill="#000000" stroke="none">
<path d="M1612 1528 c-14 -14 -17 -414 -4 -436 7 -9 60 -12 233 -10 l224 3 3
214 c2 149 -1 218 -9 227 -15 19 -429 20 -447 2z m132 -70 c24 -39 -44 -79
-74 -43 -21 25 3 67 37 63 14 -2 31 -11 37 -20z m238 -109 c20 -24 31 -85 26
-154 -3 -50 -3 -50 -40 -53 l-38 -3 0 75 c0 61 -3 77 -17 85 -11 6 -24 6 -35
0 -15 -8 -18 -23 -18 -84 l0 -75 -40 0 -40 0 0 116 0 117 48 -5 c26 -3 56 -2
67 3 28 11 67 2 87 -22z m-242 -94 l0 -115 -35 0 -35 0 0 115 0 115 35 0 35 0
0 -115z"/>
<path d="M210 1310 l0 -160 100 0 100 0 0 30 0 30 -65 0 -65 0 0 130 0 130
-35 0 -35 0 0 -160z"/>
<path d="M451 1452 c-12 -23 4 -52 29 -52 23 0 43 32 34 54 -8 22 -51 20 -63
-2z"/>
<path d="M815 1458 c-3 -8 -4 -79 -3 -158 l3 -145 32 -3 32 -3 3 53 3 53 34
-53 c31 -48 36 -52 72 -52 21 0 39 1 39 3 0 2 -18 27 -40 57 l-39 53 40 48 41
49 -36 0 c-30 0 -43 -7 -74 -42 l-37 -41 -5 94 c-5 94 -5 94 -33 97 -16 2 -29
-2 -32 -10z"/>
<path d="M1467 1464 c-4 -4 -7 -31 -7 -61 0 -49 -10 -67 -25 -43 -8 13 -71 13
-96 0 -43 -24 -63 -109 -37 -165 23 -50 93 -70 138 -38 17 12 25 13 28 5 2 -7
17 -12 33 -12 l30 0 -3 158 -3 157 -25 3 c-14 2 -29 0 -33 -4z m-17 -164 c42
-42 16 -100 -45 -100 -36 0 -55 20 -55 59 0 27 34 61 60 61 11 0 29 -9 40 -20z"/>
<path d="M643 1353 c-14 -9 -23 -11 -23 -4 0 6 -13 11 -30 11 l-30 0 0 -105 0
-105 30 0 30 0 0 65 c0 52 4 69 20 85 26 26 35 25 54 -2 11 -15 16 -45 16 -85
l0 -63 31 0 31 0 -4 91 c-3 81 -6 93 -27 110 -28 23 -68 24 -98 2z"/>
<path d="M1110 1363 c-30 -11 -70 -57 -76 -89 -16 -89 91 -163 174 -120 18 9
32 21 32 26 0 16 -35 29 -51 19 -22 -14 -65 -11 -79 6 -21 25 -1 35 76 35 73
0 74 0 74 26 0 35 -28 80 -57 93 -25 12 -67 13 -93 4z m68 -45 c25 -25 13 -38
-33 -38 -33 0 -45 4 -45 15 0 29 56 45 78 23z"/>
<path d="M450 1255 l0 -105 30 0 30 0 0 105 0 105 -30 0 -30 0 0 -105z"/>
<path d="M212 818 l-2 -108 58 2 57 2 -52 3 -52 4 -4 102 -3 102 -2 -107z"/>
<path d="M926 901 c-4 -5 -2 -12 3 -15 5 -4 12 -2 15 3 4 5 2 12 -3 15 -5 4
-12 2 -15 -3z"/>
<path d="M357 822 c-34 -38 -16 -97 36 -115 20 -7 67 8 67 22 0 5 -12 4 -26
-4 -29 -15 -52 -10 -71 13 -22 27 -15 32 47 32 52 0 60 3 60 18 0 46 -81 70
-113 34z m93 -11 c15 -30 14 -31 -45 -31 -57 0 -66 8 -39 34 22 23 71 20 84
-3z"/>
<path d="M517 822 c-18 -19 -22 -68 -9 -89 15 -23 58 -32 85 -18 19 10 27 10
31 2 2 -7 5 20 5 58 0 43 -3 65 -8 56 -6 -9 -11 -10 -15 -2 -11 18 -71 13 -89
-7z m93 -12 c17 -32 8 -73 -19 -86 -50 -25 -98 27 -73 81 15 33 75 36 92 5z"/>
<path d="M682 775 c2 -62 2 -64 5 -18 3 40 9 56 26 68 12 8 16 15 10 15 -7 0
-15 -5 -19 -11 -4 -8 -9 -7 -15 2 -5 9 -8 -14 -7 -56z"/>
<path d="M772 770 l2 -65 3 55 c4 57 13 70 50 70 28 0 36 -14 44 -75 l6 -50 2
48 c2 72 -11 88 -65 85 l-44 -3 2 -65z"/>
<path d="M917 832 c6 -4 14 -34 16 -67 l3 -60 2 68 c2 58 0 67 -15 67 -12 0
-14 -3 -6 -8z"/>
<path d="M992 770 c1 -60 2 -61 5 -15 5 59 16 75 54 75 31 0 36 -9 42 -85 3
-32 4 -28 5 16 2 68 -9 81 -67 77 l-41 -3 2 -65z"/>
<path d="M1163 832 c-6 -4 -16 -19 -21 -33 -13 -32 10 -89 35 -89 15 0 14 2
-5 16 -25 17 -31 71 -10 92 17 17 64 15 82 -4 28 -28 13 -93 -22 -95 -11 0
-12 -2 -4 -6 7 -3 19 1 27 7 12 10 15 9 15 -8 0 -34 -29 -54 -71 -50 -20 2
-35 0 -33 -4 9 -14 69 -9 92 8 20 14 22 24 22 97 0 45 -4 77 -8 70 -5 -8 -13
-9 -22 -3 -18 12 -60 13 -77 2z"/>
</g>
</svg>
