<svg id="svg" version="1.1" xmlns="http://www.w3.org/2000/svg" xmlns:xlink="http://www.w3.org/1999/xlink" width="400" height="400.45454545454544" viewBox="0, 0, 400,400.45454545454544"><g id="svgg"><path id="path0" d="M141.000 71.136 C 135.796 73.629,133.764 76.903,133.344 83.470 L 133.084 87.540 129.460 88.806 C 112.505 94.727,102.107 107.750,98.490 127.600 C 97.993 130.328,97.840 135.389,97.719 153.219 L 97.569 175.439 89.784 183.216 L 82.000 190.992 82.000 196.296 L 82.000 201.600 145.348 201.600 L 208.695 201.600 208.943 200.100 C 209.080 199.275,209.193 196.978,209.196 194.996 L 209.200 191.392 201.200 183.400 L 193.200 175.408 193.200 153.933 C 193.200 140.753,193.033 131.249,192.768 129.329 C 190.042 109.588,178.748 94.807,161.959 89.008 L 157.717 87.543 157.484 83.419 C 157.140 77.356,155.795 74.741,151.653 72.085 C 148.788 70.249,143.783 69.803,141.000 71.136 M292.400 113.600 C 292.400 113.820,292.715 114.001,293.100 114.002 C 293.485 114.004,294.255 114.242,294.810 114.532 C 295.366 114.822,296.060 114.980,296.352 114.883 C 296.645 114.785,295.920 114.373,294.742 113.966 C 292.170 113.078,292.400 113.114,292.400 113.600 M297.200 115.199 C 297.200 115.467,297.448 115.590,297.751 115.474 C 298.054 115.358,298.501 115.461,298.745 115.705 C 298.988 115.948,299.310 116.024,299.460 115.873 C 299.833 115.500,299.587 115.312,298.299 114.989 C 297.552 114.802,297.200 114.869,297.200 115.199 M300.000 115.957 C 300.000 116.200,300.255 116.400,300.567 116.400 C 300.878 116.400,301.216 116.625,301.317 116.900 C 301.462 117.297,301.608 117.298,302.023 116.907 C 302.657 116.309,302.522 116.146,301.099 115.789 C 300.395 115.613,300.000 115.673,300.000 115.957 M302.292 117.041 C 302.160 117.174,302.220 117.725,302.426 118.267 C 302.631 118.809,302.800 119.665,302.800 120.170 C 302.800 120.884,303.335 121.374,305.198 122.367 C 306.517 123.070,307.755 123.950,307.949 124.322 C 308.381 125.151,309.600 132.234,309.600 133.916 C 309.600 134.586,309.765 135.193,309.967 135.267 C 311.518 135.830,311.505 176.548,309.953 177.133 C 309.759 177.207,309.600 177.817,309.600 178.489 C 309.600 180.698,307.506 192.512,306.815 194.200 C 306.635 194.640,306.027 196.896,305.464 199.214 C 304.901 201.532,304.323 203.736,304.179 204.111 C 303.935 204.747,305.303 204.800,324.659 204.896 L 345.400 205.000 345.521 218.400 C 345.587 225.770,345.528 232.919,345.390 234.287 L 345.139 236.774 317.135 236.887 L 289.130 237.000 288.155 238.200 C 287.619 238.860,287.020 239.601,286.823 239.847 C 286.627 240.093,285.996 241.225,285.420 242.361 C 284.844 243.497,284.057 244.743,283.672 245.128 C 283.286 245.514,282.558 246.498,282.053 247.315 C 281.548 248.132,280.969 248.800,280.767 248.800 C 280.565 248.800,280.400 249.055,280.400 249.367 C 280.400 249.678,280.259 249.993,280.087 250.067 C 279.914 250.140,278.946 251.280,277.935 252.600 C 276.924 253.920,275.716 255.343,275.249 255.762 C 274.782 256.181,274.400 256.732,274.400 256.987 C 274.400 257.241,274.060 257.814,273.644 258.261 L 272.888 259.072 286.709 259.336 C 294.311 259.481,310.671 259.600,323.065 259.600 L 345.600 259.600 345.596 273.900 C 345.593 281.765,345.483 288.852,345.352 289.648 L 345.112 291.096 288.856 291.296 L 232.600 291.496 230.630 292.398 C 229.546 292.894,228.297 293.637,227.854 294.050 C 227.412 294.462,226.819 294.800,226.538 294.800 C 225.779 294.800,223.122 296.105,222.361 296.851 C 221.996 297.209,220.461 297.908,218.949 298.404 C 217.437 298.900,215.566 299.606,214.791 299.973 C 214.016 300.339,211.496 301.248,209.191 301.992 C 206.886 302.736,204.910 303.471,204.800 303.626 C 204.509 304.033,201.447 305.009,198.000 305.792 C 196.350 306.167,194.640 306.623,194.200 306.806 C 192.588 307.475,181.839 309.340,176.800 309.824 C 175.150 309.983,173.672 310.312,173.515 310.556 C 173.312 310.871,165.846 311.040,147.815 311.137 C 130.466 311.231,122.400 311.408,122.400 311.694 C 122.400 313.892,131.511 329.772,136.775 336.748 C 137.999 338.370,139.360 340.184,139.800 340.780 C 158.598 366.257,194.492 387.732,228.000 393.550 C 241.629 395.917,237.344 395.800,310.400 395.800 L 377.400 395.800 380.935 394.517 C 390.683 390.981,397.449 383.484,399.418 374.042 C 400.361 369.522,400.064 241.583,399.096 234.923 C 398.022 227.535,397.136 222.624,396.802 222.200 C 396.629 221.980,396.272 220.720,396.011 219.400 C 395.317 215.905,393.656 209.689,393.202 208.889 C 392.986 208.510,392.244 206.490,391.552 204.400 C 390.860 202.310,390.181 200.510,390.043 200.400 C 389.906 200.290,389.454 199.210,389.039 198.000 C 388.624 196.790,387.707 194.630,387.002 193.200 C 386.296 191.770,385.153 189.430,384.462 188.000 C 382.480 183.896,377.639 175.675,376.491 174.462 C 376.211 174.166,375.689 173.356,375.332 172.662 C 374.976 171.968,373.900 170.379,372.942 169.130 C 371.984 167.882,371.200 166.667,371.200 166.430 C 371.200 166.194,371.029 166.000,370.819 166.000 C 370.610 166.000,369.863 165.145,369.160 164.100 C 368.456 163.055,367.463 161.750,366.952 161.200 C 366.441 160.650,365.252 159.321,364.311 158.248 C 361.106 154.590,352.608 146.168,349.600 143.666 C 347.950 142.294,345.960 140.634,345.179 139.978 C 344.397 139.322,343.317 138.492,342.779 138.134 C 342.240 137.776,341.618 137.284,341.396 137.041 C 340.784 136.372,337.224 134.000,336.831 134.000 C 336.641 134.000,336.396 133.765,336.285 133.478 C 336.175 133.192,334.992 132.374,333.656 131.662 C 332.320 130.950,331.118 130.191,330.984 129.975 C 330.851 129.759,329.630 129.023,328.271 128.339 C 326.912 127.656,325.710 126.970,325.600 126.816 C 325.490 126.661,324.065 125.872,322.433 125.061 C 320.801 124.250,319.271 123.430,319.033 123.239 C 318.795 123.048,317.166 122.321,315.414 121.623 C 313.662 120.926,312.028 120.189,311.784 119.987 C 310.562 118.973,302.777 116.557,302.292 117.041 M129.716 211.804 C 130.685 221.193,141.377 227.583,150.800 224.405 C 156.460 222.495,161.200 216.353,161.200 210.927 L 161.200 209.600 145.344 209.600 L 129.488 209.600 129.716 211.804 M345.596 328.300 C 345.593 336.165,345.480 343.275,345.343 344.100 L 345.095 345.600 300.000 345.600 L 254.905 345.600 254.657 344.100 C 254.520 343.275,254.407 336.165,254.404 328.300 L 254.400 314.000 300.000 314.000 L 345.600 314.000 345.596 328.300 " stroke="none" fill="#e1e1e1" fill-rule="evenodd"></path><path id="path1" d="M288.164 113.052 C 288.746 114.567,290.382 124.701,291.062 131.000 C 293.653 155.012,289.519 183.243,280.591 202.496 L 279.616 204.600 290.308 204.847 C 296.189 204.983,310.945 205.118,323.100 205.147 L 345.200 205.200 345.200 206.200 L 345.200 207.200 332.100 207.243 C 324.895 207.267,317.939 207.402,316.642 207.543 L 314.285 207.800 313.766 209.562 C 313.481 210.530,313.102 211.430,312.924 211.562 C 312.746 211.693,312.070 213.420,311.422 215.400 C 310.774 217.380,310.104 219.270,309.934 219.600 C 309.764 219.930,309.337 221.100,308.984 222.200 C 308.631 223.300,308.108 224.470,307.821 224.800 C 307.535 225.130,306.442 227.425,305.393 229.900 L 303.486 234.400 297.043 234.438 C 286.924 234.497,283.251 234.842,282.550 235.800 C 281.995 236.560,281.418 236.607,271.004 236.738 L 260.043 236.875 259.379 237.888 C 257.321 241.029,246.143 252.549,240.912 256.921 L 238.424 259.000 241.912 259.258 C 243.830 259.399,255.750 259.494,268.400 259.469 C 283.739 259.438,288.269 259.348,282.000 259.200 C 276.830 259.078,272.804 258.938,273.054 258.889 C 273.304 258.840,273.796 258.195,274.147 257.455 C 274.498 256.715,275.076 255.869,275.432 255.573 C 275.788 255.278,276.910 253.948,277.926 252.618 C 278.942 251.288,279.914 250.140,280.087 250.067 C 280.259 249.993,280.400 249.678,280.400 249.367 C 280.400 249.055,280.565 248.800,280.767 248.800 C 280.969 248.800,281.548 248.132,282.053 247.315 C 282.558 246.498,283.286 245.514,283.672 245.128 C 284.057 244.743,284.844 243.497,285.420 242.361 C 285.996 241.225,286.627 240.093,286.823 239.847 C 287.020 239.601,287.619 238.860,288.155 238.200 L 289.130 237.000 317.135 236.887 L 345.139 236.774 345.390 234.287 C 345.528 232.919,345.587 225.770,345.521 218.400 L 345.400 205.000 324.659 204.896 C 305.303 204.800,303.935 204.747,304.179 204.111 C 304.323 203.736,304.901 201.532,305.464 199.214 C 306.027 196.896,306.635 194.640,306.815 194.200 C 307.506 192.512,309.600 180.698,309.600 178.489 C 309.600 177.817,309.759 177.207,309.953 177.133 C 311.505 176.548,311.518 135.830,309.967 135.267 C 309.765 135.193,309.600 134.586,309.600 133.916 C 309.600 132.234,308.381 125.151,307.949 124.322 C 307.755 123.950,306.517 123.070,305.198 122.367 C 303.335 121.374,302.800 120.884,302.800 120.170 C 302.800 119.665,302.626 118.796,302.414 118.238 C 302.108 117.431,302.169 117.142,302.714 116.824 C 303.091 116.604,303.211 116.419,302.980 116.412 C 302.749 116.405,302.322 116.625,302.030 116.900 C 301.606 117.300,301.463 117.300,301.317 116.900 C 301.216 116.625,300.878 116.400,300.567 116.400 C 300.255 116.400,300.000 116.226,300.000 116.013 C 300.000 115.799,299.748 115.722,299.440 115.840 C 299.133 115.958,298.767 115.870,298.628 115.645 C 298.488 115.419,298.110 115.336,297.787 115.460 C 297.464 115.584,297.200 115.475,297.200 115.218 C 297.200 114.960,296.885 114.789,296.500 114.837 C 296.115 114.886,295.293 114.717,294.674 114.463 C 294.055 114.208,293.290 114.000,292.974 114.000 C 292.658 114.000,292.400 113.837,292.400 113.637 C 292.400 113.438,292.040 113.369,291.600 113.484 C 291.133 113.606,290.800 113.496,290.800 113.220 C 290.800 112.928,290.493 112.844,290.000 113.000 C 289.541 113.146,289.200 113.072,289.200 112.827 C 289.200 112.592,288.911 112.400,288.557 112.400 C 288.128 112.400,287.997 112.616,288.164 113.052 M345.295 260.441 L 345.200 261.483 315.324 261.690 L 285.448 261.897 284.302 263.249 C 277.090 271.754,264.919 283.493,260.900 285.820 C 260.185 286.234,259.600 286.804,259.600 287.086 C 259.600 287.369,259.389 287.600,259.131 287.600 C 258.874 287.600,258.379 287.857,258.031 288.172 C 257.515 288.639,254.427 288.789,241.200 288.991 C 223.495 289.262,222.744 289.313,221.741 290.316 C 221.110 290.947,218.796 291.007,191.629 291.086 C 175.443 291.133,159.985 291.358,157.278 291.586 C 154.571 291.814,143.906 292.000,133.578 292.000 C 118.820 292.000,114.801 292.107,114.805 292.500 C 114.807 292.775,115.329 294.710,115.965 296.800 C 117.067 300.425,117.771 302.397,120.150 308.518 C 121.146 311.081,120.766 312.348,119.522 310.612 C 119.369 310.398,119.126 310.340,118.983 310.484 C 118.714 310.752,119.992 313.200,120.401 313.200 C 120.527 313.200,120.656 313.553,120.689 313.984 C 120.808 315.562,128.785 330.758,130.410 332.503 C 130.844 332.969,131.200 333.524,131.200 333.736 C 131.200 333.948,131.750 334.859,132.423 335.761 C 133.096 336.662,134.941 339.204,136.523 341.408 C 138.105 343.613,139.716 345.773,140.102 346.208 C 140.489 346.644,142.860 349.340,145.372 352.200 C 149.792 357.233,153.841 361.282,157.774 364.600 C 158.817 365.480,160.329 366.804,161.135 367.541 C 161.940 368.279,163.086 369.134,163.680 369.441 C 164.274 369.749,164.904 370.225,165.080 370.500 C 165.494 371.147,167.452 372.533,173.615 376.540 C 180.244 380.850,179.830 380.595,182.800 382.200 C 184.230 382.973,185.670 383.778,186.000 383.988 C 187.359 384.854,194.781 388.302,197.200 389.190 C 198.630 389.716,200.160 390.364,200.600 390.630 C 202.081 391.526,213.363 395.127,217.600 396.056 C 219.910 396.562,221.890 397.095,222.000 397.239 C 222.235 397.547,230.786 398.965,236.800 399.692 C 240.044 400.084,256.613 400.200,309.600 400.200 L 378.200 400.200 381.200 399.270 C 384.060 398.382,384.741 398.032,388.714 395.405 C 394.966 391.271,399.445 383.208,399.827 375.400 L 400.003 371.800 399.412 374.371 C 397.276 383.664,390.508 391.044,380.935 394.517 L 377.400 395.800 310.400 395.800 C 237.344 395.800,241.629 395.917,228.000 393.550 C 194.492 387.732,158.598 366.257,139.800 340.780 C 139.360 340.184,137.999 338.370,136.775 336.748 C 131.511 329.772,122.400 313.892,122.400 311.694 C 122.400 311.408,130.466 311.231,147.815 311.137 C 165.846 311.040,173.312 310.871,173.515 310.556 C 173.672 310.312,175.150 309.983,176.800 309.824 C 181.839 309.340,192.588 307.475,194.200 306.806 C 194.640 306.623,196.350 306.167,198.000 305.792 C 201.447 305.009,204.509 304.033,204.800 303.626 C 204.910 303.471,206.886 302.736,209.191 301.992 C 211.496 301.248,214.016 300.339,214.791 299.973 C 215.566 299.606,217.437 298.900,218.949 298.404 C 220.461 297.908,221.996 297.209,222.361 296.851 C 223.122 296.105,225.779 294.800,226.538 294.800 C 226.819 294.800,227.412 294.462,227.854 294.050 C 228.297 293.637,229.546 292.894,230.630 292.398 L 232.600 291.496 288.878 291.296 L 345.155 291.096 345.397 289.048 C 345.530 287.922,345.583 280.790,345.514 273.200 C 345.445 265.610,345.347 259.869,345.295 260.441 M117.600 306.940 C 117.600 307.637,118.574 309.600,118.919 309.600 C 119.236 309.600,119.233 309.473,118.911 309.151 C 118.664 308.904,118.558 308.454,118.674 308.151 C 118.790 307.848,118.676 307.600,118.419 307.600 C 118.163 307.600,118.064 307.420,118.200 307.200 C 118.336 306.980,118.257 306.800,118.024 306.800 C 117.791 306.800,117.600 306.863,117.600 306.940 M254.404 328.300 C 254.407 336.165,254.520 343.275,254.657 344.100 L 254.905 345.600 300.000 345.600 L 345.095 345.600 345.343 344.100 C 345.480 343.275,345.593 336.165,345.596 328.300 L 345.600 314.000 300.000 314.000 L 254.400 314.000 254.404 328.300 M345.200 315.400 L 345.200 316.400 300.000 316.400 L 254.800 316.400 254.800 315.400 L 254.800 314.400 300.000 314.400 L 345.200 314.400 345.200 315.400 " stroke="none" fill="#abacac" fill-rule="evenodd"></path><path id="path2" d="M137.710 4.804 C 75.473 8.546,22.142 51.253,5.598 110.600 C 3.300 118.843,0.800 131.533,0.800 134.955 C 0.800 135.724,0.631 136.457,0.425 136.584 C -0.140 136.934,-0.141 267.128,0.425 270.200 C 0.841 272.462,2.633 277.564,3.164 278.000 C 3.298 278.110,3.927 279.010,4.563 280.000 C 5.523 281.496,8.439 284.572,11.206 287.008 C 12.462 288.114,19.494 291.146,21.773 291.564 C 27.501 292.616,153.364 291.794,163.354 290.640 C 178.946 288.838,195.289 284.060,209.400 277.177 C 216.895 273.521,222.260 270.335,231.098 264.291 C 241.146 257.420,257.312 241.232,264.512 230.830 C 309.047 166.493,297.458 85.681,236.597 36.176 C 210.008 14.548,172.669 2.702,137.710 4.804 M189.344 6.309 C 189.478 6.527,190.054 6.794,190.624 6.903 C 191.847 7.136,191.421 6.617,190.050 6.202 C 189.458 6.023,189.192 6.063,189.344 6.309 M212.800 15.779 C 212.800 15.889,213.340 16.259,214.000 16.600 C 214.660 16.941,215.200 17.131,215.200 17.021 C 215.200 16.911,214.660 16.541,214.000 16.200 C 213.340 15.859,212.800 15.669,212.800 15.779 M72.100 19.288 C 71.605 19.527,71.200 19.879,71.200 20.070 C 71.200 20.262,71.650 20.124,72.200 19.763 C 73.667 18.802,73.616 18.557,72.100 19.288 M49.800 35.450 C 49.081 36.062,48.934 36.305,49.433 36.057 C 50.166 35.693,51.541 34.376,51.149 34.414 C 51.067 34.422,50.460 34.888,49.800 35.450 M43.134 41.706 C 40.640 44.184,38.243 46.659,37.807 47.206 C 37.371 47.753,38.271 46.944,39.807 45.410 C 41.343 43.875,43.847 41.400,45.370 39.910 C 46.894 38.419,48.034 37.200,47.905 37.200 C 47.775 37.200,45.628 39.228,43.134 41.706 M244.013 37.282 C 244.442 37.931,253.200 46.651,253.200 46.429 C 253.200 46.296,251.091 44.120,248.513 41.593 C 245.936 39.067,243.911 37.127,244.013 37.282 M35.944 49.100 C 34.793 50.489,34.306 51.200,34.504 51.200 C 34.614 51.200,35.186 50.570,35.773 49.800 C 36.863 48.371,36.995 47.832,35.944 49.100 M262.681 58.187 C 263.077 58.731,263.566 59.181,263.770 59.187 C 263.973 59.194,263.717 58.750,263.200 58.200 C 262.001 56.923,261.757 56.918,262.681 58.187 M150.720 71.215 C 155.177 73.178,157.588 77.280,157.902 83.432 L 158.110 87.499 160.523 88.170 C 172.710 91.559,184.550 102.591,189.058 114.758 C 189.597 116.211,190.286 117.940,190.590 118.600 C 192.690 123.160,192.934 126.354,193.094 151.427 L 193.246 175.053 201.223 183.023 L 209.200 190.992 209.200 196.496 L 209.200 202.000 145.400 202.000 L 81.600 202.000 81.608 196.500 L 81.615 191.000 89.608 183.017 L 97.600 175.034 97.602 153.217 C 97.605 125.883,98.202 121.572,103.417 111.200 C 109.041 100.012,120.482 90.398,131.084 87.951 L 133.092 87.488 133.294 83.218 C 133.783 72.901,141.883 67.322,150.720 71.215 M283.267 96.020 C 283.501 96.692,283.767 97.167,283.857 97.076 C 284.056 96.878,283.301 94.800,283.031 94.800 C 282.927 94.800,283.033 95.349,283.267 96.020 M161.377 211.600 C 161.334 215.626,156.904 222.427,153.700 223.385 C 153.205 223.533,152.800 223.817,152.800 224.016 C 152.800 224.841,148.338 225.675,144.661 225.538 C 136.854 225.245,130.875 219.929,129.661 212.200 C 129.454 210.880,129.367 209.663,129.468 209.495 C 129.570 209.328,136.796 209.238,145.526 209.295 L 161.400 209.400 161.377 211.600 " stroke="none" fill="#fb541c" fill-rule="evenodd"></path><path id="path3" d="M291.724 152.600 C 291.726 153.920,291.801 154.412,291.890 153.693 C 291.979 152.974,291.977 151.894,291.886 151.293 C 291.795 150.692,291.722 151.280,291.724 152.600 M291.314 158.200 C 291.317 159.300,291.395 159.703,291.487 159.095 C 291.579 158.486,291.577 157.586,291.482 157.095 C 291.387 156.603,291.311 157.100,291.314 158.200 M290.893 162.000 C 290.893 162.770,290.975 163.085,291.076 162.700 C 291.176 162.315,291.176 161.685,291.076 161.300 C 290.975 160.915,290.893 161.230,290.893 162.000 M287.822 179.422 C 287.672 180.225,287.628 180.962,287.726 181.060 C 287.824 181.157,288.027 180.581,288.178 179.778 C 288.328 178.975,288.372 178.238,288.274 178.140 C 288.176 178.043,287.973 178.619,287.822 179.422 M276.722 210.251 C 272.573 218.846,266.329 228.901,261.236 235.192 L 259.872 236.877 270.919 236.739 C 281.417 236.607,281.995 236.560,282.550 235.800 C 283.251 234.842,286.924 234.497,297.043 234.438 L 303.486 234.400 305.393 229.900 C 306.442 227.425,307.535 225.130,307.821 224.800 C 308.108 224.470,308.631 223.300,308.984 222.200 C 309.337 221.100,309.764 219.930,309.934 219.600 C 310.104 219.270,310.774 217.380,311.422 215.400 C 312.070 213.420,312.746 211.693,312.924 211.562 C 313.102 211.430,313.481 210.530,313.766 209.562 L 314.285 207.800 316.642 207.543 C 317.939 207.402,324.895 207.267,332.100 207.243 L 345.200 207.200 345.200 206.200 L 345.200 205.200 326.665 205.200 C 316.471 205.200,301.666 205.088,293.765 204.951 L 279.400 204.703 276.722 210.251 M256.975 240.500 L 255.800 241.800 257.100 240.625 C 257.815 239.979,258.400 239.394,258.400 239.325 C 258.400 239.016,258.070 239.288,256.975 240.500 M253.978 243.900 L 252.600 245.400 254.100 244.022 C 255.496 242.738,255.784 242.400,255.478 242.400 C 255.412 242.400,254.737 243.075,253.978 243.900 M249.381 248.900 L 247.800 250.600 249.500 249.019 C 250.435 248.149,251.200 247.384,251.200 247.319 C 251.200 247.016,250.852 247.319,249.381 248.900 M243.381 254.500 L 241.800 256.200 243.500 254.619 C 244.435 253.749,245.200 252.984,245.200 252.919 C 245.200 252.616,244.852 252.919,243.381 254.500 M240.175 257.300 L 239.000 258.600 240.300 257.425 C 241.512 256.330,241.784 256.000,241.475 256.000 C 241.406 256.000,240.821 256.585,240.175 257.300 M236.200 260.427 C 227.319 267.739,212.354 276.421,200.400 281.196 C 190.725 285.061,176.244 288.994,167.664 290.087 C 165.759 290.329,164.025 290.683,163.812 290.872 C 163.595 291.064,176.138 291.168,192.241 291.108 C 218.814 291.008,221.111 290.947,221.742 290.316 C 222.744 289.313,223.495 289.262,241.200 288.991 C 254.427 288.789,257.515 288.639,258.031 288.172 C 258.379 287.857,258.874 287.600,259.131 287.600 C 259.389 287.600,259.600 287.369,259.600 287.086 C 259.600 286.804,260.185 286.234,260.900 285.820 C 264.919 283.493,277.090 271.754,284.302 263.249 L 285.448 261.897 315.324 261.690 L 345.200 261.483 345.200 260.541 L 345.200 259.600 296.300 259.598 C 248.703 259.596,238.204 259.440,238.637 258.740 C 238.990 258.169,238.691 258.377,236.200 260.427 M156.307 291.490 C 157.026 291.579,158.106 291.577,158.707 291.486 C 159.308 291.395,158.720 291.322,157.400 291.324 C 156.080 291.326,155.588 291.401,156.307 291.490 M112.972 292.045 C 112.821 292.289,112.860 292.604,113.058 292.745 C 113.256 292.885,113.834 294.620,114.343 296.600 C 114.852 298.580,115.414 300.254,115.592 300.319 C 115.769 300.385,115.823 300.790,115.711 301.219 C 115.582 301.711,115.709 302.002,116.053 302.006 C 116.486 302.011,116.477 302.090,116.011 302.385 C 115.508 302.703,115.525 302.796,116.123 303.026 C 116.608 303.212,116.745 303.542,116.569 304.097 C 116.398 304.635,116.462 304.809,116.762 304.624 C 117.041 304.451,117.302 304.809,117.455 305.573 C 117.590 306.248,117.868 306.800,118.074 306.800 C 118.279 306.800,118.336 306.980,118.200 307.200 C 118.064 307.420,118.163 307.600,118.419 307.600 C 118.676 307.600,118.784 307.864,118.660 308.187 C 118.536 308.510,118.626 308.893,118.860 309.037 C 119.159 309.222,119.156 309.380,118.851 309.568 C 118.333 309.889,119.459 310.939,120.512 311.118 C 121.127 311.223,121.086 310.925,120.150 308.518 C 117.771 302.397,117.067 300.425,115.965 296.800 C 115.329 294.710,114.807 292.777,114.805 292.504 C 114.801 292.117,119.181 291.984,134.700 291.900 L 154.600 291.792 133.924 291.696 C 119.090 291.627,113.170 291.726,112.972 292.045 M254.800 315.400 L 254.800 316.400 300.000 316.400 L 345.200 316.400 345.200 315.400 L 345.200 314.400 300.000 314.400 L 254.800 314.400 254.800 315.400 " stroke="none" fill="#919190" fill-rule="evenodd"></path><path id="path4" d="M137.200 0.097 C 137.090 0.205,135.200 0.399,133.000 0.528 C 127.131 0.872,119.977 1.875,115.200 3.023 C 105.471 5.360,102.578 6.115,102.200 6.415 C 101.980 6.589,101.710 6.735,101.600 6.738 C 101.490 6.741,100.897 6.935,100.282 7.169 C 99.668 7.402,98.678 7.708,98.082 7.847 C 97.143 8.068,91.444 10.260,87.800 11.803 C 87.140 12.082,86.195 12.433,85.700 12.582 C 85.205 12.732,84.800 13.022,84.800 13.227 C 84.800 13.432,84.608 13.600,84.374 13.600 C 84.139 13.600,82.654 14.197,81.074 14.928 C 79.493 15.658,78.040 16.273,77.845 16.294 C 77.649 16.315,77.379 16.495,77.245 16.694 C 77.030 17.012,75.716 17.785,71.000 20.368 C 69.611 21.129,62.989 25.552,59.200 28.250 C 49.710 35.006,37.464 47.099,29.479 57.600 C 28.224 59.250,27.055 60.780,26.881 61.000 C 26.213 61.842,21.291 69.448,20.798 70.400 C 20.513 70.950,20.164 71.490,20.023 71.600 C 19.296 72.165,10.800 89.303,10.800 90.204 C 10.800 90.340,10.377 91.385,9.859 92.526 C 9.342 93.667,8.524 95.860,8.042 97.400 C 7.560 98.940,7.072 100.470,6.957 100.800 C 6.842 101.130,6.745 101.490,6.740 101.600 C 6.736 101.710,6.586 101.980,6.407 102.200 C 6.229 102.420,5.607 104.580,5.025 107.000 C 4.444 109.420,3.782 112.120,3.556 113.000 C 2.620 116.634,1.670 121.573,1.402 124.200 C 1.244 125.740,1.044 127.360,0.958 127.800 C 0.871 128.240,0.697 130.220,0.572 132.200 C 0.446 134.180,0.268 136.034,0.176 136.321 C 0.084 136.607,0.187 136.732,0.405 136.597 C 0.622 136.463,0.800 135.724,0.800 134.955 C 0.800 131.533,3.300 118.843,5.598 110.600 C 18.384 64.735,54.455 27.047,99.976 11.992 C 191.816 -18.383,286.730 46.953,291.606 143.904 L 291.943 150.600 291.779 143.600 C 291.586 135.321,290.774 127.191,289.343 119.200 C 288.772 116.010,288.227 112.776,288.133 112.014 C 288.039 111.252,287.540 109.362,287.024 107.814 C 286.508 106.266,285.705 103.634,285.240 101.963 C 284.160 98.087,281.512 90.899,280.023 87.800 C 279.389 86.480,278.556 84.590,278.173 83.600 C 277.789 82.610,277.262 81.530,277.000 81.200 C 276.738 80.870,275.946 79.343,275.239 77.806 C 274.532 76.270,273.721 74.740,273.435 74.406 C 273.150 74.073,272.402 72.810,271.772 71.600 C 271.143 70.390,270.127 68.744,269.514 67.942 C 268.901 67.141,268.400 66.359,268.400 66.206 C 268.400 65.965,264.641 60.521,263.700 59.400 C 263.515 59.180,262.922 58.370,262.382 57.600 C 261.842 56.830,260.714 55.390,259.875 54.400 C 259.036 53.410,257.686 51.800,256.875 50.822 C 255.030 48.597,243.500 36.968,241.564 35.379 C 240.774 34.730,239.424 33.618,238.564 32.908 C 234.889 29.870,233.529 28.821,232.205 28.003 C 231.432 27.525,230.800 26.939,230.800 26.701 C 230.800 26.462,230.691 26.376,230.557 26.509 C 230.424 26.643,229.929 26.387,229.457 25.942 C 228.986 25.497,228.060 24.856,227.400 24.519 C 226.740 24.182,225.840 23.600,225.400 23.224 C 223.836 21.891,214.631 16.712,210.400 14.785 C 208.970 14.134,207.440 13.391,207.000 13.133 C 205.552 12.286,198.679 9.559,194.200 8.054 C 191.780 7.241,189.599 6.451,189.354 6.298 C 189.109 6.145,186.589 5.476,183.754 4.812 C 180.919 4.148,178.060 3.434,177.400 3.224 C 175.850 2.732,170.280 1.738,166.200 1.226 C 164.440 1.005,162.190 0.723,161.200 0.599 C 158.774 0.296,137.452 -0.150,137.200 0.097 M144.705 70.283 C 145.202 70.379,145.922 70.375,146.305 70.275 C 146.687 70.175,146.280 70.096,145.400 70.101 C 144.520 70.105,144.207 70.187,144.705 70.283 M139.344 71.569 C 138.653 71.990,137.945 72.565,137.771 72.846 C 137.598 73.127,137.983 72.989,138.628 72.540 C 139.272 72.090,140.160 71.520,140.600 71.273 C 141.040 71.026,141.220 70.820,141.000 70.814 C 140.780 70.808,140.035 71.148,139.344 71.569 M150.000 70.952 C 150.000 71.253,152.895 72.838,153.089 72.644 C 153.193 72.541,152.540 72.080,151.639 71.620 C 150.737 71.160,150.000 70.860,150.000 70.952 M154.394 74.203 C 155.987 76.121,156.121 76.245,155.686 75.396 C 155.459 74.953,154.852 74.234,154.337 73.798 C 153.433 73.034,153.435 73.048,154.394 74.203 M134.871 75.959 C 134.392 76.811,134.002 77.664,134.005 77.854 C 134.007 78.045,134.462 77.409,135.014 76.443 C 135.567 75.476,135.957 74.623,135.881 74.547 C 135.804 74.471,135.350 75.106,134.871 75.959 M157.041 78.911 C 157.179 79.523,157.439 81.773,157.619 83.911 L 157.946 87.800 157.818 83.546 C 157.748 81.206,157.488 78.956,157.240 78.546 C 156.855 77.910,156.826 77.964,157.041 78.911 M128.072 88.859 C 126.901 89.309,126.008 89.741,126.086 89.819 C 126.164 89.897,127.392 89.530,128.814 89.002 C 130.236 88.474,131.130 88.042,130.800 88.042 C 130.470 88.042,129.242 88.410,128.072 88.859 M160.000 88.293 C 162.357 89.195,164.912 89.958,164.589 89.662 C 164.134 89.246,160.455 87.985,159.829 88.032 C 159.593 88.049,159.670 88.167,160.000 88.293 M122.328 91.412 C 121.298 91.949,120.353 92.553,120.228 92.755 C 120.046 93.049,124.137 91.049,124.767 90.536 C 125.330 90.077,123.916 90.585,122.328 91.412 M168.000 91.379 C 168.000 91.489,168.540 91.859,169.200 92.200 C 169.860 92.541,170.400 92.731,170.400 92.621 C 170.400 92.511,169.860 92.141,169.200 91.800 C 168.540 91.459,168.000 91.269,168.000 91.379 M116.951 94.910 C 113.853 97.333,111.600 99.369,111.600 99.746 C 111.600 99.952,112.635 99.149,113.900 97.961 C 115.165 96.772,116.830 95.313,117.600 94.719 C 118.370 94.124,118.910 93.634,118.800 93.629 C 118.690 93.624,117.858 94.201,116.951 94.910 M173.200 94.538 C 173.200 94.630,173.875 95.210,174.700 95.826 C 175.928 96.745,176.056 96.783,175.404 96.037 C 174.646 95.169,173.200 94.186,173.200 94.538 M177.200 97.725 C 177.200 97.794,177.785 98.379,178.500 99.025 L 179.800 100.200 178.625 98.900 C 177.530 97.688,177.200 97.416,177.200 97.725 M109.266 102.187 C 107.368 104.347,103.652 110.000,104.129 110.000 C 104.216 110.000,104.945 108.932,105.751 107.627 C 106.556 106.322,108.032 104.252,109.030 103.027 C 111.028 100.574,111.191 99.993,109.266 102.187 M180.764 101.533 C 180.980 101.936,181.474 102.521,181.863 102.833 C 182.364 103.235,182.304 103.022,181.657 102.100 C 180.669 100.691,180.131 100.349,180.764 101.533 M184.237 106.100 C 185.049 107.365,185.788 108.400,185.879 108.400 C 186.147 108.400,184.700 106.082,183.690 104.894 C 183.179 104.292,183.425 104.835,184.237 106.100 M187.478 111.795 C 187.844 112.562,188.214 113.119,188.301 113.032 C 188.484 112.849,187.270 110.400,186.996 110.400 C 186.895 110.400,187.112 111.028,187.478 111.795 M102.054 113.962 C 100.875 116.703,101.019 117.099,102.228 114.438 C 102.768 113.249,103.142 112.208,103.059 112.126 C 102.977 112.043,102.524 112.870,102.054 113.962 M190.968 121.203 C 191.414 122.937,191.850 124.284,191.937 124.197 C 192.162 123.971,190.769 118.428,190.435 118.222 C 190.283 118.128,190.523 119.469,190.968 121.203 M99.064 122.577 C 98.676 123.589,97.512 132.046,97.731 132.264 C 97.843 132.376,98.056 131.417,98.204 130.134 C 98.353 128.850,98.725 126.552,99.031 125.027 C 99.559 122.394,99.575 121.246,99.064 122.577 M0.120 139.200 C 0.120 140.410,0.195 140.905,0.287 140.300 C 0.378 139.695,0.378 138.705,0.287 138.100 C 0.195 137.495,0.120 137.990,0.120 139.200 M291.301 155.000 C 291.305 155.880,291.387 156.193,291.483 155.695 C 291.579 155.198,291.575 154.478,291.475 154.095 C 291.375 153.713,291.296 154.120,291.301 155.000 M95.186 177.500 L 93.000 179.800 95.300 177.614 C 97.437 175.582,97.783 175.200,97.486 175.200 C 97.424 175.200,96.389 176.235,95.186 177.500 M201.000 183.200 C 205.396 187.600,209.082 191.200,209.192 191.200 C 209.302 191.200,205.796 187.600,201.400 183.200 C 197.004 178.800,193.318 175.200,193.208 175.200 C 193.098 175.200,196.604 178.800,201.000 183.200 M91.178 181.500 L 89.800 183.000 91.300 181.622 C 92.696 180.338,92.984 180.000,92.678 180.000 C 92.612 180.000,91.937 180.675,91.178 181.500 M86.000 186.600 C 84.361 188.250,83.110 189.600,83.220 189.600 C 83.330 189.600,84.761 188.250,86.400 186.600 C 88.039 184.950,89.290 183.600,89.180 183.600 C 89.070 183.600,87.639 184.950,86.000 186.600 M82.080 190.480 C 81.753 190.807,81.600 192.720,81.600 196.480 L 81.600 202.000 145.500 201.901 L 209.400 201.802 145.700 201.700 L 82.000 201.598 82.000 196.279 C 82.000 192.675,82.155 190.805,82.480 190.480 C 82.744 190.216,82.870 190.000,82.760 190.000 C 82.650 190.000,82.344 190.216,82.080 190.480 M129.386 209.622 C 129.240 209.859,129.228 210.161,129.360 210.293 C 129.492 210.425,129.600 210.323,129.600 210.067 C 129.600 209.719,133.629 209.600,145.400 209.600 L 161.200 209.600 161.200 210.936 C 161.200 211.671,160.948 213.111,160.639 214.136 C 160.331 215.160,160.216 215.914,160.384 215.810 C 160.920 215.478,161.667 212.201,161.531 210.775 L 161.400 209.400 145.526 209.295 C 134.504 209.223,129.571 209.323,129.386 209.622 M131.620 218.039 C 132.080 218.940,132.541 219.593,132.644 219.489 C 132.838 219.295,131.253 216.400,130.952 216.400 C 130.860 216.400,131.160 217.137,131.620 218.039 M158.708 218.325 C 158.342 218.944,157.141 220.294,156.039 221.325 C 154.936 222.356,154.178 223.200,154.354 223.200 C 154.829 223.200,159.600 218.139,159.600 217.635 C 159.600 216.970,159.431 217.101,158.708 218.325 M134.201 221.134 C 134.860 221.868,135.760 222.655,136.200 222.883 C 136.640 223.111,136.820 223.140,136.600 222.948 C 136.380 222.755,135.480 221.968,134.601 221.199 L 133.002 219.800 134.201 221.134 M138.219 224.030 C 139.420 225.974,152.800 225.967,152.800 224.023 C 152.800 223.833,151.898 224.020,150.796 224.438 C 148.150 225.444,143.003 225.451,140.118 224.455 C 138.973 224.059,138.118 223.868,138.219 224.030 M248.792 249.100 L 245.000 253.000 248.900 249.208 C 252.522 245.686,252.982 245.200,252.692 245.200 C 252.633 245.200,250.878 246.955,248.792 249.100 " stroke="none" fill="#fb7c4c" fill-rule="evenodd"></path></g></svg>