<?xml version="1.0" standalone="no"?>
<!DOCTYPE svg PUBLIC "-//W3C//DTD SVG 20010904//EN"
 "http://www.w3.org/TR/2001/REC-SVG-20010904/DTD/svg10.dtd">
<svg version="1.0" xmlns="http://www.w3.org/2000/svg"
 width="225.000000pt" height="225.000000pt" viewBox="0 0 225.000000 225.000000"
 preserveAspectRatio="xMidYMid meet">

<g transform="translate(0.000000,225.000000) scale(0.100000,-0.100000)"
fill="#000000" stroke="none">
<path d="M1184 1369 c-10 -12 -17 -24 -16 -28 11 -20 27 -31 46 -31 44 0 63
50 27 70 -28 14 -35 13 -57 -11z"/>
<path d="M279 1317 c-138 -95 -189 -132 -189 -137 0 -3 26 -15 58 -25 40 -14
74 -35 115 -74 31 -30 57 -48 57 -40 0 8 9 64 19 124 28 166 33 205 24 205 -4
-1 -42 -24 -84 -53z m26 -104 c-4 -31 -10 -64 -13 -74 -7 -17 -8 -17 -31 1
l-25 18 34 56 c19 31 36 56 38 56 2 0 1 -25 -3 -57z"/>
<path d="M870 1166 l0 -204 33 1 c30 2 32 4 35 43 2 28 11 49 27 64 l23 22 52
-65 c46 -58 55 -64 90 -65 22 -1 40 0 40 1 0 2 -29 41 -65 87 l-66 84 63 63
62 63 -38 0 c-34 0 -49 -9 -112 -66 l-74 -66 0 121 0 121 -35 0 -35 0 0 -204z"/>
<path d="M1310 1165 l0 -205 30 0 30 0 0 205 0 205 -30 0 -30 0 0 -205z"/>
<path d="M1430 1166 l0 -204 35 0 35 0 0 204 0 204 -35 0 -35 0 0 -204z"/>
<path d="M599 1327 c-97 -65 -64 -167 63 -197 79 -19 108 -36 108 -65 0 -14
-8 -29 -21 -35 -31 -17 -107 -14 -151 6 -34 15 -41 16 -49 3 -25 -40 22 -71
118 -77 99 -7 173 40 173 108 0 54 -53 98 -140 115 -81 17 -111 53 -72 87 28
26 75 30 126 13 53 -18 51 -19 60 13 6 19 2 25 -28 37 -56 23 -146 20 -187 -8z"/>
<path d="M1184 1247 c-2 -7 -3 -74 -2 -148 l3 -134 33 -3 32 -3 0 150 0 151
-30 0 c-17 0 -33 -6 -36 -13z"/>
<path d="M100 1080 c-18 -28 -30 -54 -26 -57 7 -7 4 -10 44 49 34 50 37 58 23
58 -5 0 -23 -23 -41 -50z"/>
<path d="M127 1012 c-49 -73 -58 -94 -31 -71 25 20 86 118 82 130 -2 6 -25
-20 -51 -59z"/>
<path d="M200 1016 c-34 -50 -41 -79 -12 -53 25 23 66 97 53 97 -5 0 -24 -20
-41 -44z"/>
<path d="M1191 937 c-24 -24 -6 -85 23 -74 10 4 16 18 16 41 0 36 -19 53 -39
33z m29 -38 c0 -20 -4 -29 -12 -27 -15 5 -22 33 -14 54 9 24 26 6 26 -27z"/>
<path d="M1840 905 c0 -40 2 -45 23 -44 16 1 18 2 5 6 -21 5 -24 29 -5 36 10
4 10 6 0 6 -7 1 -13 7 -13 15 0 8 6 17 13 19 7 3 5 6 -5 6 -15 1 -18 -8 -18
-44z"/>
<path d="M1321 898 c2 -31 3 -35 6 -15 2 15 9 25 14 22 11 -7 11 -3 3 19 -12
30 -24 16 -23 -26z"/>
<path d="M1357 913 c-3 -16 -1 -35 4 -43 6 -10 8 -2 9 28 0 48 -5 55 -13 15z"/>
<path d="M1463 905 c2 -35 5 -40 27 -42 22 -2 23 -2 5 6 -12 5 -23 22 -27 42
-6 33 -6 33 -5 -6z"/>
<path d="M1593 905 c0 -22 2 -30 4 -17 2 12 2 30 0 40 -3 9 -5 -1 -4 -23z"/>
<path d="M1700 926 c0 -8 5 -18 10 -21 6 -3 10 1 10 9 0 8 -4 18 -10 21 -5 3
-10 -1 -10 -9z"/>
<path d="M1733 926 c3 -7 1 -18 -5 -24 -7 -7 -7 -16 1 -29 6 -10 11 -16 11
-13 9 43 9 80 -1 80 -6 0 -9 -6 -6 -14z"/>
<path d="M1693 885 c0 -8 4 -15 9 -15 4 0 8 4 8 9 0 6 -4 12 -8 15 -5 3 -9 -1
-9 -9z"/>
</g>
</svg>
