<svg id="svg" version="1.1" xmlns="http://www.w3.org/2000/svg" xmlns:xlink="http://www.w3.org/1999/xlink" width="400" height="212.5" viewBox="0, 0, 400,212.5"><g id="svgg"><path id="path0" d="M128.048 54.885 C 127.992 55.033,127.971 67.109,128.001 81.722 L 128.055 108.289 133.794 108.289 L 139.532 108.289 139.589 102.938 L 139.646 97.587 141.239 95.962 C 143.081 94.084,143.392 94.032,143.921 95.509 C 144.124 96.077,144.559 96.926,144.887 97.396 C 146.097 99.130,147.160 100.894,148.307 103.076 C 148.954 104.306,149.755 105.662,150.087 106.088 C 150.419 106.514,150.691 106.954,150.691 107.066 C 150.691 107.179,150.925 107.524,151.212 107.833 L 151.733 108.395 158.120 108.395 C 165.152 108.395,164.952 108.440,163.985 107.098 C 162.764 105.404,160.275 101.603,159.615 100.425 C 158.952 99.240,158.558 98.659,156.861 96.366 C 156.507 95.887,156.217 95.368,156.217 95.213 C 156.217 95.058,155.380 93.701,154.357 92.199 C 153.334 90.696,152.258 88.995,151.966 88.419 C 151.674 87.842,151.315 87.252,151.169 87.107 C 150.859 86.800,150.808 85.441,151.106 85.441 C 151.217 85.441,151.617 84.987,151.994 84.431 C 152.371 83.876,153.343 82.736,154.153 81.897 C 154.963 81.058,155.938 79.908,156.320 79.341 C 156.702 78.774,157.586 77.734,158.286 77.030 C 158.985 76.326,159.796 75.372,160.088 74.910 C 160.380 74.447,161.255 73.417,162.031 72.621 C 164.165 70.434,164.497 70.563,156.738 70.563 L 150.034 70.563 149.565 71.053 C 148.912 71.736,148.309 72.485,147.889 73.137 C 147.693 73.442,147.167 74.121,146.720 74.646 C 144.504 77.251,143.968 77.919,143.369 78.824 C 143.012 79.363,142.304 80.236,141.794 80.763 C 141.284 81.290,140.723 81.937,140.547 82.200 C 139.652 83.538,139.645 83.432,139.587 68.704 L 139.532 54.729 133.842 54.672 C 129.404 54.628,128.128 54.675,128.048 54.885 M188.006 54.812 C 187.810 55.128,187.858 108.028,188.054 108.224 C 188.152 108.322,190.713 108.377,193.744 108.346 L 199.256 108.289 199.256 81.509 L 199.256 54.729 193.692 54.672 C 190.456 54.639,188.076 54.698,188.006 54.812 M207.705 54.762 C 207.292 54.931,207.317 107.817,207.731 108.160 C 207.937 108.331,209.643 108.386,213.522 108.346 L 219.022 108.289 219.022 81.509 L 219.022 54.729 213.496 54.691 C 210.457 54.670,207.851 54.702,207.705 54.762 M170.804 55.556 C 166.202 57.503,166.075 63.318,170.585 65.576 C 172.169 66.369,175.364 66.375,176.685 65.587 C 177.176 65.294,177.879 64.894,178.248 64.697 C 180.156 63.681,180.707 59.703,179.249 57.478 C 177.878 55.386,173.539 54.398,170.804 55.556 M98.087 57.071 C 97.386 57.229,96.587 57.365,96.313 57.372 C 94.546 57.420,88.557 60.498,86.684 62.320 C 83.246 65.665,82.116 72.637,84.403 76.395 C 84.620 76.753,85.048 77.545,85.354 78.154 C 85.926 79.298,87.165 80.591,88.367 81.301 C 88.745 81.524,89.054 81.781,89.054 81.871 C 89.054 82.293,93.108 84.520,95.537 85.432 C 96.238 85.695,97.481 86.176,98.300 86.500 C 99.118 86.825,100.313 87.258,100.956 87.462 C 101.599 87.667,102.365 87.960,102.657 88.114 C 102.949 88.268,103.523 88.533,103.932 88.703 C 106.406 89.733,107.405 90.265,107.985 90.861 C 112.087 95.082,109.244 100.159,102.763 100.187 C 97.356 100.210,94.645 98.392,93.931 94.261 L 93.600 92.349 87.602 92.292 C 80.594 92.226,81.156 91.972,81.675 94.972 C 82.131 97.610,83.464 100.345,85.406 102.628 C 86.509 103.925,89.527 106.270,90.093 106.270 C 90.293 106.270,90.548 106.349,90.659 106.446 C 91.022 106.762,94.655 108.124,96.068 108.474 C 102.491 110.064,110.261 109.256,114.984 106.505 C 115.159 106.403,115.589 106.189,115.938 106.029 C 117.197 105.454,119.878 102.358,120.610 100.634 C 122.612 95.917,122.070 90.843,119.146 86.941 C 118.844 86.538,118.591 86.108,118.583 85.984 C 118.548 85.438,113.335 81.494,112.372 81.284 C 111.997 81.203,111.068 80.820,110.308 80.434 C 109.548 80.048,108.688 79.642,108.395 79.531 C 108.103 79.421,107.577 79.210,107.226 79.063 C 106.315 78.682,102.470 77.373,101.622 77.156 C 99.026 76.491,95.510 73.689,95.083 71.945 C 94.438 69.309,97.392 66.327,100.956 66.013 C 105.822 65.586,109.147 67.652,109.649 71.413 L 109.777 72.370 115.781 72.426 L 121.785 72.483 121.785 71.375 C 121.785 69.372,120.355 65.520,119.235 64.506 C 119.001 64.294,118.810 64.007,118.810 63.867 C 118.810 62.997,113.875 58.874,112.834 58.874 C 112.737 58.874,112.009 58.576,111.217 58.213 C 108.360 56.904,101.484 56.306,98.087 57.071 M275.504 82.828 L 275.558 108.289 281.456 108.346 C 286.098 108.390,287.356 108.345,287.362 108.133 C 287.367 107.985,287.390 104.154,287.415 99.620 C 287.454 92.558,287.506 91.348,287.779 91.175 C 287.954 91.064,290.202 90.969,292.774 90.962 C 304.453 90.934,310.761 88.258,313.852 82.020 C 315.182 79.335,315.731 75.299,315.195 72.143 C 314.342 67.116,313.718 65.902,310.004 62.047 C 309.074 61.081,304.661 58.863,302.125 58.086 L 300.213 57.500 287.831 57.433 L 275.450 57.367 275.504 82.828 M227.046 57.952 C 226.679 58.099,226.662 92.242,227.027 95.476 C 227.476 99.463,231.691 106.221,233.756 106.264 C 233.910 106.267,234.459 106.561,234.975 106.916 C 237.878 108.913,243.487 110.018,248.781 109.635 C 252.765 109.347,255.337 108.528,259.511 106.216 C 260.386 105.731,263.759 102.335,264.112 101.583 C 266.588 96.313,266.631 95.999,266.631 83.440 C 266.631 71.170,266.806 71.893,264.424 74.313 C 261.809 76.968,257.414 81.066,256.955 81.276 C 256.724 81.381,256.536 81.543,256.536 81.635 C 256.536 81.727,256.105 82.239,255.579 82.773 L 254.623 83.743 254.623 87.878 C 254.623 92.772,254.360 94.883,253.548 96.506 C 251.757 100.087,247.057 101.455,242.883 99.609 C 240.432 98.525,239.830 97.728,239.081 94.580 C 238.983 94.171,238.896 85.905,238.887 76.212 C 238.877 65.165,238.793 58.443,238.663 58.199 C 238.461 57.822,227.924 57.597,227.046 57.952 M297.931 66.917 C 298.134 67.015,298.753 67.314,299.306 67.582 C 304.302 69.997,304.320 79.651,299.331 81.200 C 298.176 81.558,288.041 81.749,287.710 81.419 C 287.437 81.145,287.203 68.776,287.447 67.477 L 287.586 66.738 292.574 66.738 C 295.317 66.738,297.728 66.818,297.931 66.917 M168.218 70.825 C 168.162 70.973,168.140 79.463,168.170 89.692 L 168.225 108.289 173.912 108.346 L 179.598 108.402 179.544 89.536 L 179.490 70.670 173.905 70.613 C 169.553 70.569,168.298 70.616,168.218 70.825 M163.018 71.087 C 163.018 71.141,162.827 71.288,162.593 71.413 C 162.254 71.595,162.168 71.575,162.168 71.315 C 162.168 71.130,162.353 70.988,162.593 70.988 C 162.827 70.988,163.018 71.033,163.018 71.087 M266.073 127.258 C 265.819 127.582,265.822 127.598,266.100 127.383 C 266.275 127.248,266.706 127.094,267.056 127.043 L 267.694 126.950 267.029 126.918 C 266.619 126.898,266.253 127.029,266.073 127.258 M170.341 130.018 C 170.351 132.789,170.592 133.425,171.346 132.671 C 171.479 132.538,171.360 132.502,171.011 132.569 L 170.470 132.672 170.400 129.991 L 170.331 127.311 170.341 130.018 M202.575 127.717 C 202.394 127.832,202.679 127.864,203.319 127.802 C 204.758 127.662,204.959 127.560,203.826 127.544 C 203.300 127.537,202.737 127.614,202.575 127.717 M268.011 135.600 L 267.906 143.783 267.172 143.853 C 266.656 143.902,266.356 143.811,266.162 143.547 C 266.011 143.340,265.887 143.265,265.887 143.381 C 265.887 144.060,267.508 144.392,267.989 143.811 C 268.162 143.603,268.214 141.237,268.173 135.469 L 268.116 127.418 268.011 135.600 M213.603 128.680 C 213.603 128.966,213.681 129.248,213.777 129.307 C 213.872 129.366,213.909 129.132,213.859 128.788 C 213.747 128.028,213.603 127.968,213.603 128.680 M254.271 130.393 C 254.271 131.328,254.309 131.685,254.354 131.185 C 254.398 130.685,254.398 129.920,254.352 129.484 C 254.306 129.049,254.270 129.458,254.271 130.393 M206.376 129.563 C 206.785 129.740,207.407 130.143,207.757 130.458 L 208.394 131.031 207.863 130.426 C 207.303 129.788,206.371 129.219,205.909 129.233 C 205.757 129.237,205.967 129.386,206.376 129.563 M199.445 130.187 C 199.251 130.483,199.131 130.764,199.178 130.811 C 199.225 130.858,199.425 130.616,199.622 130.273 C 200.061 129.509,199.931 129.446,199.445 130.187 M173.807 131.712 C 174.071 131.763,174.454 131.761,174.657 131.708 C 174.860 131.655,174.644 131.613,174.176 131.616 C 173.709 131.618,173.543 131.662,173.807 131.712 M224.708 131.709 C 224.912 131.762,225.247 131.762,225.452 131.709 C 225.656 131.655,225.489 131.611,225.080 131.611 C 224.671 131.611,224.503 131.655,224.708 131.709 M232.362 131.715 C 232.685 131.764,233.163 131.762,233.425 131.712 C 233.686 131.661,233.422 131.621,232.837 131.623 C 232.253 131.625,232.039 131.666,232.362 131.715 M245.962 131.709 C 246.166 131.762,246.501 131.762,246.706 131.709 C 246.910 131.655,246.743 131.611,246.334 131.611 C 245.925 131.611,245.757 131.655,245.962 131.709 M276.567 131.709 C 276.772 131.762,277.107 131.762,277.311 131.709 C 277.516 131.655,277.349 131.611,276.939 131.611 C 276.530 131.611,276.363 131.655,276.567 131.709 M311.105 131.712 C 311.368 131.763,311.799 131.763,312.062 131.712 C 312.325 131.662,312.109 131.620,311.583 131.620 C 311.057 131.620,310.842 131.662,311.105 131.712 M240.725 131.949 C 240.666 132.045,240.900 132.081,241.246 132.031 C 241.592 131.980,242.041 132.069,242.244 132.229 C 242.579 132.491,242.587 132.483,242.323 132.147 C 242.026 131.768,240.921 131.632,240.725 131.949 M299.342 132.359 C 299.771 132.866,300.209 132.975,300.424 132.627 C 300.499 132.506,300.411 132.472,300.216 132.547 C 300.029 132.618,299.667 132.498,299.408 132.279 L 298.937 131.881 299.342 132.359 M254.266 133.475 C 254.266 134.235,254.304 134.546,254.351 134.166 C 254.399 133.786,254.399 133.164,254.351 132.784 C 254.304 132.404,254.266 132.715,254.266 133.475 M240.479 140.383 C 240.479 144.825,240.507 146.672,240.542 144.488 C 240.576 142.304,240.576 138.669,240.542 136.411 C 240.507 134.153,240.479 135.940,240.479 140.383 M262.060 138.045 L 261.955 143.783 261.211 143.783 L 260.468 143.783 260.356 138.363 L 260.244 132.944 260.196 138.268 C 260.145 143.985,260.166 144.102,261.228 144.102 C 262.256 144.102,262.286 143.921,262.223 137.912 L 262.164 132.306 262.060 138.045 M297.604 137.949 C 297.554 143.751,297.602 144.123,298.395 144.087 C 298.623 144.077,298.593 144.021,298.300 143.906 C 297.893 143.748,297.870 143.490,297.763 138.023 L 297.652 132.306 297.604 137.949 M215.513 138.255 L 215.409 143.779 214.772 143.915 C 214.157 144.047,214.154 144.053,214.692 144.077 C 215.703 144.122,215.740 143.903,215.677 138.125 L 215.618 132.731 215.513 138.255 M223.966 133.413 C 224.231 133.464,224.613 133.462,224.817 133.409 C 225.020 133.355,224.803 133.314,224.336 133.316 C 223.868 133.318,223.702 133.362,223.966 133.413 M231.934 133.409 C 232.139 133.462,232.473 133.462,232.678 133.409 C 232.883 133.356,232.715 133.312,232.306 133.312 C 231.897 133.312,231.730 133.356,231.934 133.409 M222.235 134.326 C 221.801 134.807,221.475 135.384,221.486 135.654 C 221.501 136.031,221.546 135.991,221.699 135.463 C 221.805 135.095,222.230 134.497,222.643 134.134 C 223.056 133.772,223.306 133.475,223.199 133.475 C 223.092 133.475,222.658 133.858,222.235 134.326 M246.865 133.724 C 247.099 133.853,247.438 134.066,247.619 134.196 C 247.800 134.325,247.723 134.216,247.448 133.953 C 247.173 133.690,246.833 133.478,246.694 133.481 C 246.554 133.485,246.631 133.594,246.865 133.724 M290.436 133.724 C 290.670 133.853,291.009 134.066,291.190 134.196 C 291.371 134.325,291.294 134.216,291.019 133.953 C 290.743 133.690,290.404 133.478,290.264 133.481 C 290.125 133.485,290.202 133.594,290.436 133.724 M312.877 134.244 C 313.159 134.609,313.433 134.869,313.485 134.822 C 313.537 134.776,313.306 134.477,312.972 134.159 L 312.364 133.581 312.877 134.244 M286.785 134.378 C 286.548 134.641,286.278 135.000,286.185 135.175 C 286.006 135.514,286.055 135.467,286.916 134.485 C 287.198 134.163,287.380 133.900,287.322 133.900 C 287.263 133.900,287.022 134.115,286.785 134.378 M299.563 135.448 C 299.506 135.598,299.485 137.487,299.517 139.646 L 299.576 143.571 299.682 139.373 C 299.785 135.256,299.775 134.897,299.563 135.448 M313.550 135.919 C 313.552 136.387,313.596 136.553,313.647 136.289 C 313.697 136.024,313.696 135.642,313.642 135.439 C 313.589 135.235,313.548 135.452,313.550 135.919 M236.982 139.575 C 236.923 141.937,236.950 143.795,237.040 143.705 C 237.130 143.614,237.178 141.682,237.146 139.411 L 237.087 135.282 236.982 139.575 M293.818 139.214 C 293.818 141.376,293.850 142.261,293.888 141.180 C 293.927 140.098,293.927 138.329,293.888 137.248 C 293.850 136.166,293.818 137.051,293.818 139.214 M170.326 138.045 C 170.326 139.447,170.360 139.994,170.402 139.258 C 170.444 138.523,170.443 137.376,170.401 136.708 C 170.359 136.040,170.325 136.642,170.326 138.045 M229.419 139.532 C 229.419 141.753,229.451 142.633,229.489 141.487 C 229.527 140.342,229.527 138.524,229.489 137.449 C 229.450 136.374,229.419 137.311,229.419 139.532 M242.591 138.257 C 242.591 139.777,242.625 140.371,242.666 139.577 C 242.707 138.783,242.706 137.539,242.665 136.814 C 242.624 136.088,242.590 136.738,242.591 138.257 M291.842 135.849 C 291.828 136.044,291.762 136.378,291.695 136.593 C 291.579 136.962,291.585 136.962,291.815 136.603 C 291.949 136.395,292.015 136.060,291.962 135.859 C 291.876 135.530,291.864 135.529,291.842 135.849 M248.957 137.832 C 248.958 138.767,248.995 139.123,249.040 138.623 C 249.085 138.124,249.084 137.358,249.039 136.923 C 248.993 136.488,248.956 136.897,248.957 137.832 M221.516 138.151 C 221.516 138.560,221.560 138.727,221.613 138.523 C 221.666 138.318,221.666 137.984,221.613 137.779 C 221.560 137.574,221.516 137.742,221.516 138.151 M254.282 140.383 C 254.282 142.019,254.315 142.661,254.356 141.808 C 254.396 140.955,254.396 139.616,254.355 138.832 C 254.314 138.048,254.281 138.746,254.282 140.383 M285.321 138.204 L 284.697 138.895 285.440 138.257 C 285.849 137.906,286.223 137.596,286.272 137.566 C 286.322 137.537,286.268 137.513,286.154 137.513 C 286.039 137.513,285.665 137.824,285.321 138.204 M207.014 137.785 C 207.014 137.825,207.325 138.086,207.705 138.364 C 208.132 138.677,208.280 138.728,208.094 138.499 C 207.811 138.150,207.014 137.623,207.014 137.785 M265.964 139.639 C 265.964 140.749,266.000 141.204,266.044 140.648 C 266.087 140.093,266.087 139.184,266.044 138.629 C 266.000 138.074,265.964 138.528,265.964 139.639 M290.216 138.309 C 290.913 138.352,291.630 138.502,291.810 138.641 C 292.096 138.863,292.100 138.849,291.844 138.523 C 291.616 138.231,291.270 138.160,290.250 138.191 L 288.948 138.231 290.216 138.309 M168.381 139.001 C 168.381 139.410,168.425 139.578,168.478 139.373 C 168.532 139.168,168.532 138.834,168.478 138.629 C 168.425 138.425,168.381 138.592,168.381 139.001 M273.465 138.735 C 273.410 138.823,274.528 138.870,275.950 138.839 C 280.795 138.735,281.301 138.659,277.430 138.618 C 275.304 138.595,273.519 138.648,273.465 138.735 M208.551 140.064 C 208.551 140.473,208.595 140.640,208.648 140.436 C 208.702 140.231,208.702 139.896,208.648 139.692 C 208.595 139.487,208.551 139.655,208.551 140.064 M207.882 141.633 L 207.369 142.295 207.977 141.717 C 208.312 141.399,208.543 141.101,208.490 141.055 C 208.438 141.008,208.164 141.268,207.882 141.633 M199.150 142.043 C 199.150 142.080,199.461 142.391,199.841 142.734 L 200.531 143.358 199.907 142.667 C 199.325 142.023,199.150 141.879,199.150 142.043 M209.657 142.880 L 209.033 143.571 209.724 142.946 C 210.104 142.603,210.414 142.292,210.414 142.256 C 210.414 142.091,210.239 142.236,209.657 142.880 M249.431 143.019 L 248.809 143.783 249.526 143.099 C 249.921 142.723,250.201 142.379,250.149 142.335 C 250.096 142.291,249.773 142.599,249.431 143.019 M284.378 142.329 C 284.378 142.445,284.641 142.772,284.963 143.055 L 285.547 143.571 285.016 142.933 C 284.724 142.582,284.461 142.256,284.431 142.207 C 284.402 142.158,284.378 142.213,284.378 142.329 M287.640 142.664 C 287.775 142.750,288.220 142.820,288.629 142.820 C 289.038 142.820,289.483 142.750,289.618 142.664 C 289.753 142.578,289.308 142.508,288.629 142.508 C 287.950 142.508,287.505 142.578,287.640 142.664 M219.355 143.262 C 219.327 143.939,220.980 144.505,221.330 143.939 C 221.385 143.849,221.057 143.811,220.600 143.855 C 219.888 143.923,219.740 143.862,219.568 143.433 C 219.451 143.141,219.362 143.070,219.355 143.262 M168.598 143.449 C 168.792 144.203,170.457 144.207,170.457 143.454 C 170.457 143.326,170.307 143.372,170.123 143.555 C 169.681 143.997,169.047 143.980,168.755 143.518 C 168.618 143.302,168.552 143.273,168.598 143.449 M293.875 143.546 C 293.809 143.718,293.487 143.899,293.158 143.949 C 292.568 144.037,292.569 144.039,293.229 144.070 C 293.822 144.098,294.373 143.612,294.080 143.319 C 294.033 143.272,293.941 143.374,293.875 143.546 M242.600 143.744 C 242.541 143.898,242.520 145.022,242.555 146.242 L 242.617 148.459 242.722 145.961 C 242.826 143.492,242.809 143.198,242.600 143.744 M227.396 143.953 C 227.495 144.052,227.899 144.100,228.294 144.059 C 228.994 143.987,228.990 143.983,228.114 143.879 C 227.620 143.821,227.297 143.854,227.396 143.953 M306.196 143.943 C 306.251 144.030,306.523 144.102,306.801 144.102 C 307.080 144.102,307.352 144.030,307.406 143.943 C 307.460 143.855,307.188 143.783,306.801 143.783 C 306.414 143.783,306.142 143.855,306.196 143.943 M313.921 143.887 C 314.097 144.001,314.471 144.097,314.754 144.099 C 315.436 144.103,315.263 143.982,314.346 143.814 C 313.823 143.718,313.697 143.739,313.921 143.887 M254.997 144.040 C 255.262 144.091,255.644 144.089,255.847 144.036 C 256.051 143.982,255.834 143.941,255.367 143.943 C 254.899 143.945,254.733 143.989,254.997 144.040 M173.701 144.255 C 174.024 144.303,174.502 144.302,174.764 144.252 C 175.025 144.201,174.761 144.161,174.176 144.163 C 173.592 144.164,173.378 144.206,173.701 144.255 M203.882 144.255 C 204.205 144.303,204.683 144.302,204.944 144.252 C 205.206 144.201,204.942 144.161,204.357 144.163 C 203.773 144.164,203.559 144.206,203.882 144.255 M245.647 144.256 C 246.029 144.303,246.603 144.302,246.922 144.254 C 247.241 144.205,246.929 144.167,246.227 144.168 C 245.526 144.169,245.265 144.209,245.647 144.256 M276.461 144.252 C 276.724 144.303,277.155 144.303,277.418 144.252 C 277.681 144.201,277.465 144.160,276.939 144.160 C 276.413 144.160,276.198 144.201,276.461 144.252 M287.730 144.256 C 288.112 144.303,288.685 144.302,289.005 144.254 C 289.324 144.205,289.012 144.167,288.310 144.168 C 287.609 144.169,287.348 144.209,287.730 144.256 M240.735 148.831 C 240.862 149.037,241.902 149.031,242.231 148.822 C 242.370 148.734,242.069 148.663,241.561 148.666 C 241.053 148.669,240.681 148.743,240.735 148.831 " stroke="none" fill="#ffffff" fill-rule="evenodd"></path><path id="path1" d="M0.000 106.270 L 0.000 212.540 200.000 212.540 L 400.000 212.540 400.000 106.270 L 400.000 0.000 200.000 0.000 L 0.000 0.000 0.000 106.270 M261.357 35.295 C 262.064 35.561,263.257 36.657,263.656 37.407 C 263.812 37.699,264.473 38.605,265.126 39.421 C 265.778 40.236,266.312 40.976,266.312 41.065 C 266.312 41.279,266.848 41.941,267.960 43.101 C 268.456 43.619,268.863 44.160,268.863 44.302 C 268.863 44.661,271.064 47.443,271.607 47.770 C 271.851 47.917,272.051 48.139,272.051 48.263 C 272.051 48.387,272.362 48.936,272.742 49.483 C 276.109 54.333,275.684 55.667,270.670 55.976 C 267.370 56.179,267.510 55.913,267.568 61.867 C 267.624 67.616,267.786 67.139,264.829 69.926 C 263.651 71.036,261.658 72.949,260.400 74.176 C 253.478 80.932,253.814 81.273,253.790 67.481 C 253.769 55.203,254.026 56.053,250.310 55.960 C 246.183 55.857,244.748 54.190,246.680 51.745 C 247.046 51.282,247.563 50.441,247.828 49.876 C 248.093 49.311,248.894 48.203,249.607 47.414 C 250.320 46.625,251.262 45.414,251.700 44.722 C 252.139 44.030,252.808 43.066,253.188 42.580 C 254.947 40.328,255.845 39.122,256.595 38.002 C 258.060 35.816,259.926 34.755,261.357 35.295 M139.850 54.620 C 140.005 54.910,140.057 59.234,140.017 68.329 C 139.984 75.637,140.030 81.615,140.119 81.615 C 140.555 81.615,142.410 79.565,143.677 77.683 C 143.852 77.423,144.713 76.343,145.590 75.283 C 146.467 74.224,147.662 72.721,148.247 71.945 C 149.671 70.052,149.098 70.172,156.931 70.121 C 165.463 70.064,165.355 70.009,162.380 72.901 C 161.599 73.661,160.717 74.665,160.420 75.133 C 160.124 75.600,159.106 76.796,158.158 77.790 C 157.210 78.783,156.433 79.709,156.432 79.847 C 156.430 79.985,155.849 80.702,155.140 81.441 C 153.363 83.292,152.179 84.711,152.179 84.991 C 152.179 85.119,151.987 85.344,151.753 85.490 C 151.218 85.825,151.221 86.033,151.781 87.174 C 152.691 89.029,152.903 89.389,153.597 90.245 C 153.986 90.725,154.304 91.171,154.304 91.238 C 154.304 91.304,154.782 92.052,155.367 92.901 C 155.951 93.749,156.429 94.578,156.429 94.742 C 156.429 94.906,156.764 95.449,157.173 95.948 C 157.582 96.447,157.917 96.922,157.917 97.002 C 157.917 97.083,158.282 97.647,158.729 98.256 C 159.175 98.864,159.768 99.793,160.047 100.319 C 160.506 101.186,162.681 104.499,164.458 107.039 C 165.769 108.913,165.722 108.927,158.120 108.927 L 151.680 108.927 151.079 108.326 C 150.749 107.995,150.478 107.612,150.478 107.474 C 150.478 107.335,150.246 106.971,149.962 106.665 C 149.678 106.359,148.948 105.164,148.341 104.011 C 147.734 102.857,147.060 101.662,146.844 101.356 C 146.627 101.050,146.363 100.569,146.256 100.286 C 146.148 100.004,145.737 99.346,145.341 98.824 C 144.334 97.494,143.747 96.444,143.576 95.669 C 143.495 95.297,143.295 95.005,143.121 95.005 C 142.816 95.005,140.074 97.617,140.053 97.927 C 140.048 98.015,140.036 100.335,140.027 103.082 C 140.016 106.660,139.936 108.198,139.748 108.503 C 139.436 109.008,128.842 109.298,127.959 108.826 C 127.521 108.591,127.231 54.774,127.666 54.339 C 128.078 53.927,139.621 54.193,139.850 54.620 M199.660 54.537 C 200.024 55.486,199.803 108.496,199.434 108.766 C 198.745 109.270,188.201 109.136,187.682 108.617 C 187.112 108.047,187.103 54.766,187.673 54.406 C 188.282 54.021,199.509 54.143,199.660 54.537 M219.546 54.609 C 219.992 55.441,219.837 108.266,219.388 108.672 C 218.693 109.301,207.632 109.023,207.291 108.368 C 206.966 107.746,206.925 55.185,207.249 54.581 C 207.577 53.967,219.217 53.993,219.546 54.609 M175.267 54.727 C 183.434 56.431,181.958 66.538,173.539 66.563 C 167.111 66.582,164.305 59.093,169.501 55.787 C 170.532 55.131,170.899 54.998,172.689 54.636 C 173.156 54.541,173.587 54.452,173.645 54.437 C 173.704 54.422,174.434 54.553,175.267 54.727 M106.161 56.545 C 107.212 56.666,108.163 56.856,108.276 56.969 C 108.388 57.081,108.872 57.173,109.352 57.173 C 109.831 57.173,110.314 57.252,110.425 57.349 C 110.536 57.446,111.392 57.849,112.327 58.245 C 115.178 59.450,118.810 62.173,118.810 63.103 C 118.810 63.231,119.132 63.695,119.527 64.133 C 120.742 65.485,121.982 68.660,121.996 70.457 C 122.001 71.041,122.090 71.655,122.195 71.821 C 122.319 72.017,122.271 72.298,122.058 72.623 L 121.730 73.124 115.806 73.103 C 109.121 73.080,109.245 73.111,109.245 71.517 C 109.245 71.006,109.150 70.529,109.033 70.457 C 108.916 70.385,108.820 70.149,108.820 69.932 C 108.820 69.383,106.861 67.522,105.589 66.862 C 101.097 64.531,93.766 68.701,95.773 72.445 C 96.619 74.024,99.254 76.008,101.318 76.622 C 101.996 76.824,102.933 77.111,103.401 77.261 C 103.868 77.411,104.681 77.656,105.207 77.806 C 105.733 77.956,106.259 78.142,106.376 78.219 C 106.493 78.296,107.402 78.680,108.395 79.073 C 109.389 79.465,110.503 79.963,110.871 80.178 C 111.239 80.393,112.045 80.747,112.663 80.964 C 115.555 81.983,119.071 85.483,120.936 89.200 C 123.879 95.068,121.251 104.020,115.834 106.574 C 115.308 106.822,114.639 107.184,114.346 107.377 C 114.054 107.570,113.193 107.931,112.434 108.179 C 111.674 108.428,110.895 108.715,110.703 108.819 C 109.813 109.301,104.237 109.936,101.913 109.821 C 99.272 109.690,95.457 108.963,93.836 108.280 C 93.486 108.132,92.527 107.763,91.706 107.459 C 88.363 106.223,85.318 103.734,83.513 100.762 C 81.655 97.704,81.360 96.772,81.321 93.836 L 81.296 91.923 87.354 91.817 C 94.829 91.686,94.243 91.483,94.346 94.245 C 94.546 99.635,104.016 101.946,108.309 97.653 L 109.245 96.717 109.245 95.124 C 109.245 92.502,108.332 91.272,105.288 89.791 C 104.214 89.269,103.269 88.842,103.188 88.842 C 103.106 88.842,102.738 88.712,102.370 88.553 C 101.067 87.990,100.414 87.735,99.469 87.417 C 98.943 87.240,98.034 86.883,97.450 86.624 C 96.865 86.364,95.861 85.975,95.218 85.760 C 93.751 85.268,91.286 84.059,90.397 83.395 C 90.025 83.118,89.632 82.891,89.524 82.891 C 89.417 82.891,89.099 82.622,88.819 82.293 C 88.539 81.965,87.976 81.493,87.566 81.246 C 86.150 80.388,85.335 79.266,83.819 76.089 C 82.198 72.694,82.351 68.277,84.197 65.143 C 84.404 64.793,84.739 64.178,84.943 63.778 C 85.399 62.879,87.260 61.001,88.107 60.584 C 88.453 60.414,88.927 60.110,89.160 59.909 C 89.889 59.281,94.854 57.173,95.602 57.173 C 95.991 57.173,96.500 57.071,96.734 56.945 C 97.711 56.423,103.096 56.194,106.161 56.545 M294.155 57.047 L 300.638 57.135 302.951 57.891 C 304.223 58.306,305.913 59.032,306.707 59.504 C 307.501 59.975,308.288 60.361,308.456 60.361 C 308.759 60.361,310.764 61.990,310.923 62.365 C 310.969 62.474,311.548 63.145,312.210 63.856 C 313.427 65.165,314.563 67.200,314.945 68.757 C 315.557 71.253,315.665 71.891,315.771 73.645 C 315.839 74.756,315.779 76.182,315.629 77.046 C 315.486 77.864,315.302 78.974,315.219 79.512 C 314.858 81.856,310.395 87.991,309.051 87.991 C 308.941 87.991,308.724 88.117,308.570 88.271 C 308.041 88.797,305.063 90.100,303.913 90.309 C 303.280 90.424,301.763 90.711,300.540 90.947 C 298.759 91.290,297.344 91.382,293.420 91.410 C 290.727 91.429,288.353 91.533,288.146 91.641 C 287.795 91.824,287.771 92.395,287.784 100.006 C 287.794 105.631,287.724 108.313,287.561 108.617 C 287.289 109.127,275.745 109.200,275.242 108.696 C 274.844 108.297,274.946 57.614,275.345 57.173 C 275.679 56.805,276.158 56.802,294.155 57.047 M239.038 57.719 C 239.247 58.005,239.307 62.021,239.314 76.243 C 239.320 87.823,239.400 94.545,239.534 94.796 C 239.650 95.013,239.745 95.435,239.745 95.735 C 239.745 96.035,239.841 96.281,239.957 96.281 C 240.074 96.281,240.170 96.477,240.170 96.718 C 240.170 98.570,247.476 101.052,249.001 99.717 C 249.112 99.620,249.605 99.426,250.097 99.286 C 251.557 98.871,252.564 97.727,253.583 95.324 C 254.018 94.298,254.229 90.667,254.203 84.634 L 254.198 83.508 255.865 81.871 C 256.783 80.971,258.411 79.421,259.483 78.427 C 260.556 77.434,262.438 75.641,263.667 74.444 C 265.680 72.483,266.738 71.768,267.095 72.125 C 267.302 72.332,267.171 93.334,266.956 94.368 C 266.847 94.894,266.639 95.898,266.494 96.599 C 266.272 97.670,265.505 99.585,264.338 101.984 C 263.249 104.220,256.567 109.033,254.549 109.033 C 254.297 109.033,253.565 109.245,252.922 109.505 C 251.826 109.947,251.431 109.976,246.546 109.976 L 241.339 109.976 239.001 109.160 C 237.715 108.710,236.572 108.259,236.461 108.157 C 236.350 108.054,236.137 107.970,235.987 107.970 C 235.837 107.970,235.192 107.635,234.552 107.226 C 233.912 106.817,233.283 106.482,233.154 106.482 C 232.867 106.482,230.606 104.372,230.606 104.104 C 230.606 103.999,230.257 103.536,229.830 103.075 C 228.749 101.907,228.187 101.024,227.734 99.787 C 227.520 99.203,227.277 98.629,227.194 98.512 C 227.041 98.298,226.955 97.818,226.580 95.112 C 226.340 93.378,226.281 58.038,226.518 57.683 C 226.779 57.292,227.015 57.278,232.988 57.317 C 238.182 57.350,238.798 57.391,239.038 57.719 M287.970 67.294 C 287.855 67.433,287.796 70.370,287.829 74.308 L 287.885 81.084 292.774 81.136 C 296.997 81.181,297.829 81.136,298.889 80.803 C 300.093 80.425,301.805 79.114,301.808 78.569 C 301.809 78.432,301.964 78.034,302.152 77.683 C 302.395 77.231,302.503 76.427,302.523 74.920 C 302.576 70.860,301.648 69.152,298.618 67.728 C 297.485 67.196,288.359 66.824,287.970 67.294 M179.904 70.333 C 180.130 70.699,180.050 108.424,179.822 108.698 C 179.475 109.116,168.250 109.127,167.903 108.710 C 167.639 108.392,167.554 70.749,167.816 70.325 C 167.971 70.075,179.749 70.082,179.904 70.333 M170.586 126.833 C 170.783 127.092,170.871 127.963,170.875 129.702 C 170.882 132.127,170.992 132.517,171.498 131.907 C 172.240 131.013,175.116 130.954,176.626 131.803 C 179.717 133.541,180.543 139.740,178.117 142.990 C 176.738 144.835,173.904 145.280,171.362 144.050 C 170.986 143.868,170.804 143.894,170.495 144.173 C 169.988 144.632,168.685 144.634,168.304 144.176 C 168.068 143.891,168.013 142.242,168.013 135.494 C 168.013 128.746,168.068 127.097,168.304 126.813 C 168.708 126.327,170.212 126.340,170.586 126.833 M256.528 126.872 C 256.669 127.135,256.748 130.241,256.748 135.494 C 256.748 140.748,256.669 143.853,256.528 144.116 C 256.291 144.559,254.348 144.730,254.101 144.330 C 253.852 143.927,253.965 127.060,254.219 126.754 C 254.606 126.288,256.261 126.373,256.528 126.872 M268.320 126.934 C 268.821 127.649,268.818 143.692,268.316 144.193 C 267.808 144.702,265.967 144.648,265.682 144.116 C 265.542 143.853,265.462 140.748,265.462 135.494 C 265.462 130.241,265.542 127.135,265.682 126.872 C 266.019 126.243,267.866 126.286,268.320 126.934 M207.549 127.556 C 209.063 128.053,210.627 129.327,210.627 130.062 C 210.627 130.289,210.723 130.533,210.840 130.606 C 211.085 130.757,211.122 132.191,210.889 132.543 C 210.301 133.436,208.681 133.091,208.173 131.966 C 207.427 130.312,206.604 129.836,204.615 129.907 L 202.888 129.968 202.249 130.878 L 201.610 131.788 202.129 132.738 C 202.414 133.260,202.651 133.688,202.654 133.688 C 202.658 133.688,203.617 134.021,204.784 134.429 C 205.952 134.837,207.052 135.172,207.230 135.173 C 209.853 135.191,211.944 139.371,210.752 142.216 C 209.764 144.575,205.693 145.456,201.661 144.183 C 199.286 143.433,197.152 140.659,198.086 139.534 C 198.754 138.729,201.275 139.074,201.275 139.970 C 201.275 142.212,206.300 143.118,207.804 141.147 C 208.803 139.837,206.702 137.301,204.619 137.301 C 204.344 137.301,203.934 137.160,203.707 136.989 C 203.480 136.817,203.181 136.674,203.044 136.670 C 202.906 136.666,202.187 136.383,201.447 136.040 C 194.716 132.925,200.290 125.174,207.549 127.556 M215.969 127.556 C 216.890 128.619,216.154 130.287,214.764 130.287 C 214.046 130.287,213.545 129.871,213.213 129.000 C 212.667 127.564,214.942 126.372,215.969 127.556 M262.227 127.430 C 263.027 127.990,262.900 129.533,262.009 130.075 C 260.836 130.788,259.724 130.133,259.724 128.730 C 259.724 127.260,261.022 126.586,262.227 127.430 M226.886 131.486 C 227.237 131.677,227.787 131.970,228.108 132.138 C 228.430 132.306,228.693 132.532,228.693 132.640 C 228.693 132.961,229.018 132.868,229.564 132.392 C 231.396 130.792,234.429 130.674,235.976 132.142 C 237.460 133.551,237.620 134.244,237.620 139.298 C 237.620 144.434,237.593 144.527,236.129 144.527 C 234.724 144.527,234.644 144.244,234.644 139.288 C 234.644 134.255,234.485 133.900,232.233 133.900 C 230.359 133.900,229.990 134.892,229.917 140.125 C 229.855 144.624,229.896 144.518,228.227 144.524 C 226.898 144.528,226.912 144.576,226.947 140.182 C 226.987 135.109,226.719 134.248,225.011 133.971 C 223.985 133.805,223.341 133.996,222.669 134.669 L 222.104 135.233 222.104 139.408 C 222.104 144.369,222.052 144.527,220.399 144.527 C 219.585 144.527,219.308 144.437,219.136 144.116 C 218.742 143.380,218.846 132.088,219.250 131.684 C 219.743 131.191,221.024 131.259,221.610 131.810 C 222.063 132.235,222.128 132.244,222.478 131.927 C 223.397 131.096,225.737 130.862,226.886 131.486 M248.308 131.656 C 249.317 132.192,250.159 132.911,250.159 133.236 C 250.159 133.339,250.316 133.553,250.507 133.712 C 251.933 134.895,252.083 139.786,250.769 142.241 C 249.677 144.281,247.104 145.267,244.729 144.555 L 243.372 144.148 243.221 144.603 C 243.138 144.854,243.095 145.804,243.126 146.714 C 243.201 148.887,242.895 149.416,241.562 149.416 C 239.886 149.416,239.957 149.815,239.957 140.437 C 239.957 133.003,239.995 132.086,240.309 131.738 C 240.795 131.202,242.156 131.218,242.667 131.766 C 243.052 132.180,243.064 132.179,244.110 131.667 C 245.532 130.970,247.012 130.966,248.308 131.656 M278.674 131.464 C 280.802 132.189,281.981 134.179,282.098 137.245 C 282.175 139.239,282.232 139.214,277.657 139.214 C 273.401 139.214,273.468 139.191,274.015 140.426 C 274.863 142.342,277.552 142.784,279.565 141.339 L 280.560 140.624 281.141 141.056 C 283.662 142.930,279.127 145.423,274.975 144.446 C 272.136 143.778,270.776 141.715,270.776 138.079 C 270.776 135.585,270.874 135.302,272.495 133.156 C 273.863 131.343,276.334 130.667,278.674 131.464 M292.040 131.812 C 293.981 132.662,294.326 133.864,294.408 140.064 L 294.465 144.421 293.470 144.485 C 292.839 144.526,292.293 144.431,291.980 144.226 C 291.525 143.927,291.375 143.946,290.114 144.455 C 285.297 146.401,281.468 141.129,285.213 137.708 C 286.033 136.960,288.333 136.237,289.798 136.269 C 291.351 136.302,291.392 136.287,291.392 135.707 C 291.392 133.708,287.842 133.368,286.781 135.265 C 286.594 135.600,284.645 135.790,284.204 135.518 C 283.419 135.033,284.986 132.477,286.482 131.802 C 287.993 131.120,290.469 131.125,292.040 131.812 M303.360 131.334 C 304.169 131.642,304.315 133.184,303.619 134.060 C 303.595 134.090,303.011 134.218,302.319 134.344 C 300.104 134.749,300.106 134.744,300.106 139.775 C 300.106 144.642,300.147 144.527,298.415 144.527 C 297.202 144.527,297.184 144.435,297.145 137.965 C 297.105 131.142,297.392 130.435,299.715 131.647 C 300.025 131.809,300.360 131.864,300.459 131.769 C 300.947 131.297,302.607 131.048,303.360 131.334 M313.177 131.371 C 315.475 131.997,315.832 132.990,315.863 138.849 C 315.894 144.538,315.896 144.527,314.684 144.527 C 313.138 144.527,313.105 144.423,313.030 139.272 C 312.969 135.057,312.938 134.747,312.540 134.450 C 311.480 133.659,310.018 133.798,309.032 134.784 L 308.395 135.421 308.395 139.501 C 308.395 144.297,308.322 144.527,306.797 144.527 C 306.088 144.527,305.806 144.427,305.640 144.116 C 305.387 143.643,305.334 132.239,305.583 131.847 C 305.916 131.323,307.259 131.276,307.754 131.771 C 308.192 132.209,308.252 132.216,308.913 131.902 C 310.664 131.071,311.633 130.950,313.177 131.371 M182.868 131.876 C 183.136 132.166,183.604 133.099,183.907 133.949 C 184.209 134.799,184.702 136.144,185.002 136.938 C 185.302 137.733,185.547 138.570,185.547 138.798 C 185.547 139.027,185.645 139.214,185.764 139.214 C 185.997 139.214,186.110 138.963,186.769 136.982 C 187.452 134.929,187.928 133.608,188.126 133.212 C 188.227 133.009,188.310 132.698,188.310 132.521 C 188.310 131.921,189.118 131.350,189.968 131.350 C 191.485 131.350,191.648 132.144,190.629 134.569 C 190.268 135.428,189.885 136.557,189.778 137.077 C 189.545 138.204,189.141 139.436,188.891 139.782 C 188.702 140.043,188.166 141.428,187.424 143.571 C 187.181 144.272,186.899 144.937,186.796 145.048 C 186.694 145.159,186.610 145.426,186.610 145.641 C 186.610 147.311,184.087 149.628,182.270 149.628 C 180.236 149.628,180.112 147.080,182.132 146.809 C 183.649 146.606,184.992 143.944,184.095 142.922 C 183.997 142.811,183.749 142.242,183.543 141.658 C 183.337 141.073,182.939 140.107,182.658 139.511 C 182.377 138.915,182.147 138.316,182.147 138.180 C 182.147 138.044,182.061 137.767,181.956 137.564 C 181.424 136.534,180.234 132.840,180.234 132.218 C 180.234 131.290,182.100 131.048,182.868 131.876 M215.799 131.616 C 216.271 131.961,216.400 143.654,215.939 144.210 C 215.621 144.594,214.010 144.637,213.645 144.272 C 213.101 143.728,213.302 132.073,213.862 131.680 C 214.432 131.281,215.301 131.252,215.799 131.616 M262.227 131.680 C 262.696 132.009,262.699 132.056,262.699 137.881 C 262.699 144.577,262.711 144.527,261.080 144.527 C 259.733 144.527,259.724 144.483,259.724 137.858 C 259.724 131.376,259.730 131.350,261.211 131.350 C 261.510 131.350,261.967 131.499,262.227 131.680 M172.339 134.270 C 170.230 135.218,170.191 140.873,172.286 141.867 C 174.771 143.046,176.794 141.045,176.575 137.626 C 176.389 134.730,174.552 133.275,172.339 134.270 M244.165 134.419 C 243.193 135.093,243.077 135.608,243.181 138.796 C 243.256 141.087,243.280 141.187,243.852 141.679 C 244.912 142.591,247.821 142.170,247.821 141.105 C 247.821 140.910,247.964 140.476,248.139 140.141 C 249.836 136.887,246.835 132.566,244.165 134.419 M275.448 134.294 C 274.790 134.643,273.751 135.835,273.751 136.240 C 273.751 136.416,276.056 136.627,277.152 136.552 C 277.561 136.524,278.159 136.489,278.480 136.476 C 279.969 136.412,278.259 133.906,276.724 133.902 C 276.430 133.901,275.856 134.077,275.448 134.294 M289.586 138.716 C 287.527 138.964,286.734 139.516,286.723 140.709 C 286.711 142.014,288.426 142.608,290.022 141.851 C 291.746 141.033,292.084 138.386,290.436 138.611 C 290.319 138.627,289.936 138.674,289.586 138.716 " stroke="none" fill="#000000" fill-rule="evenodd"></path><path id="path2" d="M259.816 36.192 C 258.723 36.835,257.517 38.019,256.749 39.202 C 255.843 40.596,254.403 42.538,253.272 43.889 C 252.880 44.357,252.349 45.153,252.092 45.658 C 251.834 46.163,251.117 47.127,250.497 47.801 C 249.878 48.474,249.014 49.635,248.578 50.380 C 248.141 51.125,247.601 51.967,247.377 52.251 C 246.011 53.988,247.023 54.844,250.819 55.163 C 254.952 55.510,254.496 54.165,254.623 66.394 C 254.758 79.435,254.439 78.843,258.955 74.437 C 260.605 72.827,263.007 70.487,264.293 69.238 L 266.631 66.966 266.738 61.442 C 266.863 54.900,266.561 55.473,270.084 55.113 C 274.997 54.612,275.007 53.437,270.147 47.503 C 269.477 46.684,268.661 45.584,268.334 45.058 C 268.007 44.532,267.442 43.759,267.079 43.341 C 266.196 42.322,265.734 41.724,263.871 39.186 C 261.610 36.106,260.880 35.567,259.816 36.192 " stroke="none" fill="#ffffff" fill-rule="evenodd"></path><path id="path3" d="M259.617 35.955 C 258.996 36.298,258.236 37.023,258.236 37.271 C 258.236 37.390,258.499 37.241,258.820 36.941 C 260.594 35.288,261.210 35.562,263.871 39.186 C 265.673 41.641,266.102 42.195,267.219 43.511 C 267.659 44.029,268.163 44.733,268.340 45.075 C 268.517 45.417,268.709 45.696,268.766 45.696 C 268.959 45.696,268.050 44.078,267.689 43.779 C 267.494 43.617,266.817 42.787,266.186 41.934 C 265.554 41.081,264.521 39.685,263.889 38.832 C 261.861 36.093,260.736 35.336,259.617 35.955 M256.280 39.586 C 255.481 40.650,255.311 40.979,255.740 40.631 C 256.071 40.363,257.029 38.895,256.872 38.895 C 256.832 38.895,256.565 39.206,256.280 39.586 M253.237 43.695 C 252.781 44.231,252.149 45.116,251.835 45.661 C 251.521 46.206,250.722 47.274,250.061 48.034 C 246.747 51.838,245.764 55.128,247.971 55.031 C 248.268 55.018,248.282 54.988,248.034 54.897 C 246.949 54.498,246.628 53.204,247.377 52.251 C 247.601 51.967,248.141 51.125,248.578 50.380 C 249.014 49.635,249.879 48.473,250.499 47.799 C 251.120 47.124,251.863 46.106,252.152 45.536 C 252.441 44.966,252.832 44.371,253.022 44.214 C 253.385 43.912,254.283 42.721,254.147 42.721 C 254.104 42.721,253.694 43.159,253.237 43.695 M270.352 47.708 C 271.844 49.495,273.986 52.985,273.921 53.522 C 273.822 54.341,272.972 54.815,271.201 55.039 L 269.607 55.240 271.201 55.164 C 273.668 55.046,274.451 54.471,274.092 53.041 C 273.907 52.304,271.486 48.725,270.488 47.715 L 269.648 46.865 270.352 47.708 M248.937 55.200 C 249.259 55.249,249.785 55.249,250.106 55.200 C 250.428 55.151,250.165 55.112,249.522 55.112 C 248.879 55.112,248.616 55.151,248.937 55.200 M266.786 61.145 C 266.726 67.475,267.193 66.479,261.926 71.523 C 259.487 73.859,257.211 76.105,256.867 76.514 C 256.523 76.923,257.479 76.062,258.992 74.600 C 260.505 73.138,262.861 70.874,264.228 69.567 C 267.187 66.739,266.989 67.381,266.902 60.893 L 266.835 56.004 266.786 61.145 M254.507 65.143 C 254.507 69.936,254.535 71.927,254.569 69.568 C 254.603 67.209,254.604 63.287,254.569 60.854 C 254.535 58.420,254.507 60.351,254.507 65.143 M162.168 71.315 C 162.168 71.575,162.254 71.595,162.593 71.413 C 162.827 71.288,163.018 71.141,163.018 71.087 C 163.018 71.033,162.827 70.988,162.593 70.988 C 162.353 70.988,162.168 71.130,162.168 71.315 M254.697 76.727 C 254.732 77.763,255.330 78.155,255.876 77.498 C 256.090 77.239,256.066 77.203,255.736 77.290 C 255.271 77.411,254.919 77.051,254.771 76.302 C 254.713 76.010,254.680 76.201,254.697 76.727 M168.678 127.577 C 168.448 128.434,168.527 143.036,168.764 143.478 C 169.032 143.980,169.668 144.010,170.134 143.544 C 170.452 143.226,170.585 143.234,171.854 143.651 C 175.392 144.812,177.702 143.751,178.658 140.525 C 180.312 134.943,176.392 130.130,171.982 132.327 C 170.293 133.169,170.244 133.100,170.244 129.869 L 170.244 127.099 169.525 127.099 C 168.959 127.099,168.779 127.201,168.678 127.577 M254.491 127.352 C 254.405 127.491,254.342 131.245,254.351 135.694 L 254.366 143.783 255.164 143.851 C 255.657 143.893,256.029 143.812,256.139 143.639 C 256.340 143.321,256.387 128.315,256.189 127.577 C 256.046 127.043,254.785 126.876,254.491 127.352 M266.113 127.401 C 265.780 127.803,265.922 143.372,266.262 143.712 C 266.377 143.827,266.794 143.890,267.189 143.852 L 267.906 143.783 267.906 135.494 L 267.906 127.205 267.144 127.141 C 266.656 127.100,266.286 127.194,266.113 127.401 M203.555 127.732 C 199.637 128.248,197.730 132.334,200.290 134.726 C 200.861 135.260,202.570 136.041,204.357 136.586 C 208.865 137.960,210.139 140.807,206.969 142.424 C 204.793 143.535,200.850 142.253,200.850 140.434 C 200.850 139.916,200.353 139.639,199.426 139.639 C 197.237 139.639,199.311 142.987,201.981 143.763 C 204.637 144.535,208.528 144.009,209.790 142.707 C 211.203 141.249,210.799 137.942,209.059 136.718 C 208.099 136.043,207.850 135.942,204.896 135.043 C 202.627 134.353,201.604 133.565,201.372 132.330 C 200.689 128.687,206.891 127.926,208.528 131.451 C 209.148 132.788,210.799 132.630,210.505 131.263 C 209.966 128.761,207.038 127.274,203.555 127.732 M214.070 127.779 C 213.795 128.054,213.736 128.771,213.944 129.313 C 214.225 130.044,215.940 129.451,215.940 128.623 C 215.940 127.863,214.594 127.255,214.070 127.779 M260.404 127.779 C 260.122 128.061,260.067 128.989,260.311 129.346 C 260.844 130.123,262.274 129.653,262.274 128.700 C 262.274 127.830,260.987 127.196,260.404 127.779 M222.909 132.306 C 221.963 132.948,221.555 132.975,221.254 132.412 C 220.950 131.843,219.862 131.836,219.560 132.400 C 219.297 132.891,219.324 142.678,219.590 143.424 C 219.738 143.838,219.891 143.905,220.563 143.849 L 221.360 143.783 221.467 139.384 L 221.573 134.985 222.303 134.232 C 223.171 133.338,224.097 133.111,225.396 133.474 C 227.076 133.945,227.085 133.974,227.205 139.182 L 227.311 143.783 228.268 143.783 L 229.224 143.783 229.330 139.639 C 229.443 135.237,229.480 135.073,230.602 134.006 C 231.749 132.915,234.594 133.322,234.945 134.628 C 235.010 134.870,235.065 136.946,235.066 139.241 C 235.069 143.797,235.119 143.985,236.278 143.852 L 236.876 143.783 236.929 139.214 L 236.983 134.644 236.358 133.559 C 235.080 131.339,231.971 131.066,229.686 132.974 C 228.944 133.593,228.813 133.595,228.216 132.997 C 226.863 131.640,224.367 131.315,222.909 132.306 M244.633 131.928 C 244.458 131.994,244.061 132.226,243.750 132.443 C 243.023 132.952,242.675 132.941,242.337 132.400 C 242.135 132.076,241.886 131.979,241.382 132.028 L 240.701 132.094 240.701 140.380 C 240.701 149.522,240.625 149.030,241.993 148.686 C 242.501 148.559,242.508 148.522,242.508 146.110 C 242.508 143.324,242.589 143.196,244.000 143.760 C 247.935 145.335,251.139 142.709,251.104 137.938 C 251.072 133.671,247.882 130.707,244.633 131.928 M274.665 132.161 C 270.054 134.035,270.149 142.772,274.792 143.844 C 278.293 144.652,282.584 143.111,280.950 141.633 C 280.564 141.284,280.515 141.287,279.964 141.694 C 277.270 143.686,274.117 142.934,273.338 140.115 C 272.929 138.634,273.037 138.593,277.529 138.528 L 281.509 138.470 281.584 137.832 C 282.083 133.587,278.462 130.619,274.665 132.161 M287.183 132.223 C 286.000 132.598,285.768 132.764,285.211 133.643 C 284.026 135.511,285.136 136.106,286.766 134.477 C 288.587 132.655,291.244 133.045,291.829 135.220 C 292.226 136.694,292.094 136.796,289.598 136.937 C 285.871 137.148,283.910 138.746,284.288 141.263 C 284.666 143.784,287.483 144.843,290.654 143.657 C 291.769 143.239,291.870 143.233,292.237 143.566 C 292.461 143.769,292.880 143.892,293.212 143.852 L 293.795 143.783 293.748 139.122 C 293.690 133.333,293.588 133.054,291.192 132.155 C 289.930 131.682,288.831 131.701,287.183 132.223 M301.382 132.057 C 301.089 132.211,300.639 132.470,300.381 132.633 C 299.961 132.898,299.858 132.878,299.392 132.440 C 299.077 132.144,298.677 131.980,298.374 132.023 L 297.875 132.094 297.818 137.891 L 297.761 143.688 298.243 143.870 C 299.389 144.303,299.469 144.026,299.469 139.611 C 299.469 134.697,299.965 133.688,302.381 133.688 C 303.150 133.688,303.507 133.344,303.507 132.605 C 303.507 131.763,302.455 131.492,301.382 132.057 M309.352 132.412 C 307.883 133.185,307.812 133.189,307.506 132.519 C 307.245 131.946,306.536 131.806,306.100 132.242 C 305.914 132.428,305.845 134.022,305.845 138.083 L 305.845 143.669 306.361 143.798 C 307.735 144.143,307.758 144.072,307.758 139.482 L 307.758 135.315 308.718 134.395 C 309.989 133.177,311.740 133.052,312.908 134.095 L 313.603 134.715 313.668 139.195 L 313.733 143.675 314.235 143.801 C 315.515 144.122,315.510 144.137,315.573 139.873 C 315.670 133.350,314.923 131.775,311.732 131.775 C 310.845 131.775,310.272 131.928,309.352 132.412 M180.940 132.572 C 181.309 134.422,181.528 135.211,181.907 136.048 C 182.406 137.152,184.071 141.408,184.612 142.961 C 185.282 144.887,184.078 147.181,182.240 147.480 C 181.113 147.663,180.951 148.833,182.037 148.956 C 184.019 149.181,184.965 148.272,186.314 144.843 C 188.316 139.752,189.103 137.626,189.385 136.557 C 189.539 135.972,189.886 134.926,190.157 134.232 C 190.851 132.448,190.818 131.987,189.995 131.987 C 189.124 131.987,188.908 132.254,188.361 134.006 C 186.146 141.095,185.884 141.477,185.037 138.844 C 184.708 137.820,184.310 136.695,184.154 136.344 C 183.997 135.994,183.666 135.085,183.417 134.325 C 182.764 132.328,182.497 131.987,181.586 131.987 C 180.867 131.987,180.830 132.021,180.940 132.572 M214.050 132.279 C 213.879 132.485,213.825 134.219,213.865 138.177 L 213.921 143.783 214.665 143.783 L 215.409 143.783 215.515 138.188 C 215.574 135.111,215.545 132.457,215.452 132.290 C 215.235 131.904,214.367 131.897,214.050 132.279 M260.429 132.347 C 260.333 132.558,260.303 135.218,260.361 138.257 L 260.468 143.783 261.211 143.783 L 261.955 143.783 261.955 137.938 L 261.955 132.094 261.279 132.028 C 260.789 131.981,260.554 132.069,260.429 132.347 M277.637 133.554 C 278.963 134.119,280.162 136.032,279.639 136.747 C 279.415 137.053,278.978 137.093,276.406 137.041 L 273.433 136.982 273.365 136.393 C 273.156 134.574,275.842 132.789,277.637 133.554 M175.148 133.801 C 178.578 135.575,177.413 142.840,173.701 142.823 C 171.373 142.813,170.244 141.268,170.244 138.091 C 170.244 134.246,172.385 132.373,175.148 133.801 M247.430 133.881 C 249.173 135.252,249.629 138.643,248.395 141.055 C 247.328 143.139,245.055 143.517,243.420 141.882 L 242.475 140.936 242.544 138.040 L 242.614 135.144 243.509 134.309 C 244.583 133.309,246.444 133.105,247.430 133.881 M291.775 138.406 C 292.775 139.406,291.733 141.727,289.932 142.514 C 287.417 143.612,284.745 140.966,286.604 139.219 C 287.541 138.339,291.141 137.772,291.775 138.406 " stroke="none" fill="#696969" fill-rule="evenodd"></path><path id="path4" d="M259.724 35.221 C 258.872 35.539,257.324 36.915,256.595 38.002 C 255.845 39.122,254.947 40.328,253.188 42.580 C 252.808 43.066,252.139 44.030,251.700 44.722 C 251.262 45.414,250.320 46.625,249.607 47.414 C 248.894 48.203,248.093 49.311,247.828 49.876 C 247.563 50.441,247.046 51.282,246.680 51.745 C 244.748 54.190,246.183 55.857,250.310 55.960 C 254.026 56.053,253.769 55.203,253.790 67.481 C 253.814 81.273,253.478 80.932,260.400 74.176 C 261.658 72.949,263.651 71.036,264.829 69.926 C 267.786 67.139,267.624 67.616,267.568 61.867 C 267.510 55.913,267.370 56.179,270.670 55.976 C 275.684 55.667,276.109 54.333,272.742 49.483 C 272.362 48.936,272.051 48.387,272.051 48.263 C 272.051 48.139,271.851 47.917,271.607 47.770 C 271.064 47.443,268.863 44.661,268.863 44.302 C 268.863 44.160,268.456 43.619,267.960 43.101 C 266.848 41.941,266.312 41.279,266.312 41.065 C 266.312 40.976,265.778 40.236,265.126 39.421 C 264.473 38.605,263.812 37.699,263.656 37.407 C 262.817 35.832,260.918 34.776,259.724 35.221 M261.869 36.494 C 262.349 36.927,263.258 37.979,263.889 38.832 C 264.521 39.685,265.554 41.081,266.186 41.934 C 266.817 42.787,267.494 43.617,267.689 43.779 C 267.884 43.941,268.241 44.463,268.483 44.938 C 268.981 45.921,269.412 46.503,270.536 47.715 C 271.545 48.803,273.922 52.363,274.092 53.041 C 274.483 54.599,273.743 55.020,270.168 55.274 C 266.656 55.523,266.950 54.983,266.949 61.184 C 266.947 67.405,267.139 66.840,264.035 69.776 C 262.774 70.969,260.382 73.260,258.718 74.867 C 255.837 77.652,254.965 78.234,254.737 77.524 C 254.540 76.914,254.423 72.084,254.417 64.387 C 254.409 54.465,254.796 55.464,250.886 55.270 C 247.257 55.091,246.254 54.619,246.669 53.286 C 246.957 52.365,248.877 49.392,250.062 48.034 C 250.724 47.274,251.540 46.174,251.874 45.590 C 252.208 45.005,252.748 44.235,253.074 43.879 C 253.400 43.523,254.077 42.662,254.578 41.966 C 255.080 41.271,255.952 40.060,256.517 39.276 C 259.136 35.642,260.273 35.052,261.869 36.494 M127.666 54.339 C 127.231 54.774,127.521 108.591,127.959 108.826 C 128.842 109.298,139.436 109.008,139.748 108.503 C 139.936 108.198,140.016 106.660,140.027 103.082 C 140.036 100.335,140.048 98.015,140.053 97.927 C 140.074 97.617,142.816 95.005,143.121 95.005 C 143.295 95.005,143.495 95.297,143.576 95.669 C 143.747 96.444,144.334 97.494,145.341 98.824 C 145.737 99.346,146.148 100.004,146.256 100.286 C 146.363 100.569,146.627 101.050,146.844 101.356 C 147.060 101.662,147.734 102.857,148.341 104.011 C 148.948 105.164,149.678 106.359,149.962 106.665 C 150.246 106.971,150.478 107.335,150.478 107.474 C 150.478 107.612,150.749 107.995,151.079 108.326 L 151.680 108.927 158.120 108.927 C 165.722 108.927,165.769 108.913,164.458 107.039 C 162.681 104.499,160.506 101.186,160.047 100.319 C 159.768 99.793,159.175 98.864,158.729 98.256 C 158.282 97.647,157.917 97.083,157.917 97.002 C 157.917 96.922,157.582 96.447,157.173 95.948 C 156.764 95.449,156.429 94.906,156.429 94.742 C 156.429 94.578,155.951 93.749,155.367 92.901 C 154.782 92.052,154.304 91.304,154.304 91.238 C 154.304 91.171,153.986 90.725,153.597 90.245 C 152.903 89.389,152.691 89.029,151.781 87.174 C 151.221 86.033,151.218 85.825,151.753 85.490 C 151.987 85.344,152.179 85.119,152.179 84.991 C 152.179 84.711,153.363 83.292,155.140 81.441 C 155.849 80.702,156.430 79.985,156.432 79.847 C 156.433 79.709,157.210 78.783,158.158 77.790 C 159.106 76.796,160.124 75.600,160.420 75.133 C 160.717 74.665,161.599 73.661,162.380 72.901 C 165.355 70.009,165.463 70.064,156.931 70.121 C 149.098 70.172,149.671 70.052,148.247 71.945 C 147.662 72.721,146.467 74.224,145.590 75.283 C 144.713 76.343,143.852 77.423,143.677 77.683 C 142.410 79.565,140.555 81.615,140.119 81.615 C 140.030 81.615,139.984 75.637,140.017 68.329 C 140.057 59.234,140.005 54.910,139.850 54.620 C 139.621 54.193,128.078 53.927,127.666 54.339 M187.673 54.406 C 187.103 54.766,187.112 108.047,187.682 108.617 C 188.201 109.136,198.745 109.270,199.434 108.766 C 199.803 108.496,200.024 55.486,199.660 54.537 C 199.509 54.143,188.282 54.021,187.673 54.406 M207.249 54.581 C 206.925 55.185,206.966 107.746,207.291 108.368 C 207.632 109.023,218.693 109.301,219.388 108.672 C 219.837 108.266,219.992 55.441,219.546 54.609 C 219.217 53.993,207.577 53.967,207.249 54.581 M172.689 54.636 C 170.899 54.998,170.532 55.131,169.501 55.787 C 165.170 58.542,166.546 65.487,171.599 66.374 C 177.552 67.419,182.003 63.496,180.327 58.681 C 179.566 56.497,175.570 53.958,173.645 54.437 C 173.587 54.452,173.156 54.541,172.689 54.636 M139.587 68.704 C 139.645 83.432,139.652 83.538,140.547 82.200 C 140.723 81.937,141.284 81.290,141.794 80.763 C 142.304 80.236,143.012 79.363,143.369 78.824 C 143.968 77.919,144.504 77.251,146.720 74.646 C 147.167 74.121,147.693 73.442,147.889 73.137 C 148.309 72.485,148.912 71.736,149.565 71.053 L 150.034 70.563 156.738 70.563 C 164.497 70.563,164.165 70.434,162.031 72.621 C 161.255 73.417,160.380 74.447,160.088 74.910 C 159.796 75.372,158.985 76.326,158.286 77.030 C 157.586 77.734,156.702 78.774,156.320 79.341 C 155.938 79.908,154.963 81.058,154.153 81.897 C 153.343 82.736,152.371 83.876,151.994 84.431 C 151.617 84.987,151.217 85.441,151.106 85.441 C 150.808 85.441,150.859 86.800,151.169 87.107 C 151.315 87.252,151.674 87.842,151.966 88.419 C 152.258 88.995,153.334 90.696,154.357 92.199 C 155.380 93.701,156.217 95.058,156.217 95.213 C 156.217 95.368,156.507 95.887,156.861 96.366 C 158.558 98.659,158.952 99.240,159.615 100.425 C 160.275 101.603,162.764 105.404,163.985 107.098 C 164.952 108.440,165.152 108.395,158.120 108.395 L 151.733 108.395 151.212 107.833 C 150.925 107.524,150.691 107.179,150.691 107.066 C 150.691 106.954,150.419 106.514,150.087 106.088 C 149.755 105.662,148.954 104.306,148.307 103.076 C 147.160 100.894,146.097 99.130,144.887 97.396 C 144.559 96.926,144.124 96.077,143.921 95.509 C 143.392 94.032,143.081 94.084,141.239 95.962 L 139.646 97.587 139.589 102.938 L 139.532 108.289 133.794 108.289 L 128.055 108.289 128.001 81.722 C 127.971 67.109,127.992 55.033,128.048 54.885 C 128.128 54.675,129.404 54.628,133.842 54.672 L 139.532 54.729 139.587 68.704 M199.256 81.509 L 199.256 108.289 193.744 108.346 C 190.713 108.377,188.152 108.322,188.054 108.224 C 187.858 108.028,187.810 55.128,188.006 54.812 C 188.076 54.698,190.456 54.639,193.692 54.672 L 199.256 54.729 199.256 81.509 M219.022 81.509 L 219.022 108.289 213.522 108.346 C 209.643 108.386,207.937 108.331,207.731 108.160 C 207.317 107.817,207.292 54.931,207.705 54.762 C 207.851 54.702,210.457 54.670,213.496 54.691 L 219.022 54.729 219.022 81.509 M177.571 56.107 C 180.681 58.133,181.079 63.188,178.248 64.697 C 177.879 64.894,177.176 65.294,176.685 65.587 C 173.997 67.191,169.390 65.872,167.964 63.091 C 165.167 57.635,172.138 52.567,177.571 56.107 M98.899 56.549 C 97.942 56.642,96.968 56.820,96.734 56.945 C 96.500 57.071,95.991 57.173,95.602 57.173 C 94.854 57.173,89.889 59.281,89.160 59.909 C 88.927 60.110,88.453 60.414,88.107 60.584 C 87.260 61.001,85.399 62.879,84.943 63.778 C 84.739 64.178,84.404 64.793,84.197 65.143 C 82.351 68.277,82.198 72.694,83.819 76.089 C 85.335 79.266,86.150 80.388,87.566 81.246 C 87.976 81.493,88.539 81.965,88.819 82.293 C 89.099 82.622,89.417 82.891,89.524 82.891 C 89.632 82.891,90.025 83.118,90.397 83.395 C 91.286 84.059,93.751 85.268,95.218 85.760 C 95.861 85.975,96.865 86.364,97.450 86.624 C 98.034 86.883,98.943 87.240,99.469 87.417 C 100.414 87.735,101.067 87.990,102.370 88.553 C 102.738 88.712,103.106 88.842,103.188 88.842 C 103.269 88.842,104.214 89.269,105.288 89.791 C 108.332 91.272,109.245 92.502,109.245 95.124 L 109.245 96.717 108.309 97.653 C 104.016 101.946,94.546 99.635,94.346 94.245 C 94.243 91.483,94.829 91.686,87.354 91.817 L 81.296 91.923 81.321 93.836 C 81.360 96.772,81.655 97.704,83.513 100.762 C 85.318 103.734,88.363 106.223,91.706 107.459 C 92.527 107.763,93.486 108.132,93.836 108.280 C 95.457 108.963,99.272 109.690,101.913 109.821 C 104.237 109.936,109.813 109.301,110.703 108.819 C 110.895 108.715,111.674 108.428,112.434 108.179 C 113.193 107.931,114.054 107.570,114.346 107.377 C 114.639 107.184,115.308 106.822,115.834 106.574 C 121.251 104.020,123.879 95.068,120.936 89.200 C 119.071 85.483,115.555 81.983,112.663 80.964 C 112.045 80.747,111.239 80.393,110.871 80.178 C 110.503 79.963,109.389 79.465,108.395 79.073 C 107.402 78.680,106.493 78.296,106.376 78.219 C 106.259 78.142,105.733 77.956,105.207 77.806 C 104.681 77.656,103.868 77.411,103.401 77.261 C 102.933 77.111,101.996 76.824,101.318 76.622 C 99.254 76.008,96.619 74.024,95.773 72.445 C 93.766 68.701,101.097 64.531,105.589 66.862 C 106.861 67.522,108.820 69.383,108.820 69.932 C 108.820 70.149,108.916 70.385,109.033 70.457 C 109.150 70.529,109.245 71.006,109.245 71.517 C 109.245 73.111,109.121 73.080,115.806 73.103 L 121.730 73.124 122.058 72.623 C 122.271 72.298,122.319 72.017,122.195 71.821 C 122.090 71.655,122.001 71.041,121.996 70.457 C 121.982 68.660,120.742 65.485,119.527 64.133 C 119.132 63.695,118.810 63.231,118.810 63.103 C 118.810 62.173,115.178 59.450,112.327 58.245 C 111.392 57.849,110.536 57.446,110.425 57.349 C 110.314 57.252,109.831 57.173,109.352 57.173 C 108.872 57.173,108.388 57.081,108.276 56.969 C 107.744 56.437,102.486 56.202,98.899 56.549 M107.466 57.151 C 108.880 57.397,110.336 57.809,111.217 58.213 C 112.009 58.576,112.737 58.874,112.834 58.874 C 113.875 58.874,118.810 62.997,118.810 63.867 C 118.810 64.007,119.001 64.294,119.235 64.506 C 120.355 65.520,121.785 69.372,121.785 71.375 L 121.785 72.483 115.781 72.426 L 109.777 72.370 109.649 71.413 C 109.147 67.652,105.822 65.586,100.956 66.013 C 97.392 66.327,94.438 69.309,95.083 71.945 C 95.510 73.689,99.026 76.491,101.622 77.156 C 102.470 77.373,106.315 78.682,107.226 79.063 C 107.577 79.210,108.103 79.421,108.395 79.531 C 108.688 79.642,109.548 80.048,110.308 80.434 C 111.068 80.820,111.997 81.203,112.372 81.284 C 113.335 81.494,118.548 85.438,118.583 85.984 C 118.591 86.108,118.844 86.538,119.146 86.941 C 122.070 90.843,122.612 95.917,120.610 100.634 C 119.878 102.358,117.197 105.454,115.938 106.029 C 115.589 106.189,115.159 106.403,114.984 106.505 C 110.261 109.256,102.491 110.064,96.068 108.474 C 94.655 108.124,91.022 106.762,90.659 106.446 C 90.548 106.349,90.293 106.270,90.093 106.270 C 89.527 106.270,86.509 103.925,85.406 102.628 C 83.464 100.345,82.131 97.610,81.675 94.972 C 81.156 91.972,80.594 92.226,87.602 92.292 L 93.600 92.349 93.931 94.261 C 94.645 98.392,97.356 100.210,102.763 100.187 C 109.244 100.159,112.087 95.082,107.985 90.861 C 107.405 90.265,106.406 89.733,103.932 88.703 C 103.523 88.533,102.949 88.268,102.657 88.114 C 102.365 87.960,101.599 87.667,100.956 87.462 C 100.313 87.258,99.118 86.825,98.300 86.500 C 97.481 86.176,96.238 85.695,95.537 85.432 C 93.108 84.520,89.054 82.293,89.054 81.871 C 89.054 81.781,88.745 81.524,88.367 81.301 C 87.165 80.591,85.926 79.298,85.354 78.154 C 85.048 77.545,84.620 76.753,84.403 76.395 C 82.116 72.637,83.246 65.665,86.684 62.320 C 88.557 60.498,94.546 57.420,96.313 57.372 C 96.587 57.365,97.386 57.229,98.087 57.071 C 100.028 56.634,104.729 56.674,107.466 57.151 M275.345 57.173 C 274.946 57.614,274.844 108.297,275.242 108.696 C 275.745 109.200,287.289 109.127,287.561 108.617 C 287.724 108.313,287.794 105.631,287.784 100.006 C 287.771 92.395,287.795 91.824,288.146 91.641 C 288.353 91.533,290.727 91.429,293.420 91.410 C 297.344 91.382,298.759 91.290,300.540 90.947 C 301.763 90.711,303.280 90.424,303.913 90.309 C 305.063 90.100,308.041 88.797,308.570 88.271 C 308.724 88.117,308.941 87.991,309.051 87.991 C 310.395 87.991,314.858 81.856,315.219 79.512 C 315.302 78.974,315.486 77.864,315.629 77.046 C 315.779 76.182,315.839 74.756,315.771 73.645 C 315.665 71.891,315.557 71.253,314.945 68.757 C 314.563 67.200,313.427 65.165,312.210 63.856 C 311.548 63.145,310.969 62.474,310.923 62.365 C 310.764 61.990,308.759 60.361,308.456 60.361 C 308.288 60.361,307.501 59.975,306.707 59.504 C 305.913 59.032,304.223 58.306,302.951 57.891 L 300.638 57.135 294.155 57.047 C 276.158 56.802,275.679 56.805,275.345 57.173 M226.940 57.364 C 226.794 57.411,226.603 57.555,226.518 57.683 C 226.281 58.038,226.340 93.378,226.580 95.112 C 226.955 97.818,227.041 98.298,227.194 98.512 C 227.277 98.629,227.520 99.203,227.734 99.787 C 228.187 101.024,228.749 101.907,229.830 103.075 C 230.257 103.536,230.606 103.999,230.606 104.104 C 230.606 104.372,232.867 106.482,233.154 106.482 C 233.283 106.482,233.912 106.817,234.552 107.226 C 235.192 107.635,235.837 107.970,235.987 107.970 C 236.137 107.970,236.350 108.054,236.461 108.157 C 236.572 108.259,237.715 108.710,239.001 109.160 L 241.339 109.976 246.546 109.976 C 251.431 109.976,251.826 109.947,252.922 109.505 C 253.565 109.245,254.297 109.033,254.549 109.033 C 256.567 109.033,263.249 104.220,264.338 101.984 C 265.505 99.585,266.272 97.670,266.494 96.599 C 266.639 95.898,266.847 94.894,266.956 94.368 C 267.171 93.334,267.302 72.332,267.095 72.125 C 266.738 71.768,265.680 72.483,263.667 74.444 C 262.438 75.641,260.556 77.434,259.483 78.427 C 258.411 79.421,256.783 80.971,255.865 81.871 L 254.198 83.508 254.203 84.634 C 254.229 90.667,254.018 94.298,253.583 95.324 C 252.564 97.727,251.557 98.871,250.097 99.286 C 249.605 99.426,249.112 99.620,249.001 99.717 C 247.476 101.052,240.170 98.570,240.170 96.718 C 240.170 96.477,240.074 96.281,239.957 96.281 C 239.841 96.281,239.745 96.035,239.745 95.735 C 239.745 95.435,239.650 95.013,239.534 94.796 C 239.400 94.545,239.320 87.823,239.314 76.243 C 239.307 62.021,239.247 58.005,239.038 57.719 C 238.786 57.375,227.905 57.056,226.940 57.364 M302.125 58.086 C 304.661 58.863,309.074 61.081,310.004 62.047 C 313.718 65.902,314.342 67.116,315.195 72.143 C 315.731 75.299,315.182 79.335,313.852 82.020 C 310.761 88.258,304.453 90.934,292.774 90.962 C 290.202 90.969,287.954 91.064,287.779 91.175 C 287.506 91.348,287.454 92.558,287.415 99.620 C 287.390 104.154,287.367 107.985,287.362 108.133 C 287.356 108.345,286.098 108.390,281.456 108.346 L 275.558 108.289 275.504 82.828 L 275.450 57.367 287.831 57.433 L 300.213 57.500 302.125 58.086 M238.663 58.199 C 238.793 58.443,238.877 65.165,238.887 76.212 C 238.896 85.905,238.983 94.171,239.081 94.580 C 239.830 97.728,240.432 98.525,242.883 99.609 C 247.057 101.455,251.757 100.087,253.548 96.506 C 254.360 94.883,254.623 92.772,254.623 87.878 L 254.623 83.743 255.579 82.773 C 256.105 82.239,256.536 81.727,256.536 81.635 C 256.536 81.543,256.724 81.381,256.955 81.276 C 257.414 81.066,261.809 76.968,264.424 74.313 C 266.806 71.893,266.631 71.170,266.631 83.440 C 266.631 95.999,266.588 96.313,264.112 101.583 C 263.759 102.335,260.386 105.731,259.511 106.216 C 255.337 108.528,252.765 109.347,248.781 109.635 C 243.487 110.018,237.878 108.913,234.975 106.916 C 234.459 106.561,233.910 106.267,233.756 106.264 C 231.691 106.221,227.476 99.463,227.027 95.476 C 226.662 92.242,226.679 58.099,227.046 57.952 C 227.924 57.597,238.461 57.822,238.663 58.199 M287.447 67.477 C 287.203 68.776,287.437 81.145,287.710 81.419 C 288.041 81.749,298.176 81.558,299.331 81.200 C 304.320 79.651,304.302 69.997,299.306 67.582 C 298.753 67.314,298.134 67.015,297.931 66.917 C 297.728 66.818,295.317 66.738,292.574 66.738 L 287.586 66.738 287.447 67.477 M298.618 67.728 C 301.648 69.152,302.576 70.860,302.523 74.920 C 302.503 76.427,302.395 77.231,302.152 77.683 C 301.964 78.034,301.809 78.432,301.808 78.569 C 301.805 79.114,300.093 80.425,298.889 80.803 C 297.829 81.136,296.997 81.181,292.774 81.136 L 287.885 81.084 287.829 74.308 C 287.796 70.370,287.855 67.433,287.970 67.294 C 288.359 66.824,297.485 67.196,298.618 67.728 M167.816 70.325 C 167.554 70.749,167.639 108.392,167.903 108.710 C 168.250 109.127,179.475 109.116,179.822 108.698 C 180.050 108.424,180.130 70.699,179.904 70.333 C 179.749 70.082,167.971 70.075,167.816 70.325 M179.544 89.536 L 179.598 108.402 173.912 108.346 L 168.225 108.289 168.170 89.692 C 168.140 79.463,168.162 70.973,168.218 70.825 C 168.298 70.616,169.553 70.569,173.905 70.613 L 179.490 70.670 179.544 89.536 M168.304 126.813 C 168.068 127.097,168.013 128.746,168.013 135.494 C 168.013 142.242,168.068 143.891,168.304 144.176 C 168.685 144.634,169.988 144.632,170.495 144.173 C 170.804 143.894,170.986 143.868,171.362 144.050 C 176.921 146.741,181.346 141.275,178.914 134.723 C 177.756 131.606,173.188 129.871,171.498 131.907 C 170.992 132.517,170.882 132.127,170.875 129.702 C 170.871 127.963,170.783 127.092,170.586 126.833 C 170.212 126.340,168.708 126.327,168.304 126.813 M254.219 126.754 C 253.965 127.060,253.852 143.927,254.101 144.330 C 254.348 144.730,256.291 144.559,256.528 144.116 C 256.669 143.853,256.748 140.748,256.748 135.494 C 256.748 130.241,256.669 127.135,256.528 126.872 C 256.261 126.373,254.606 126.288,254.219 126.754 M265.682 126.872 C 265.542 127.135,265.462 130.241,265.462 135.494 C 265.462 140.748,265.542 143.853,265.682 144.116 C 265.967 144.648,267.808 144.702,268.316 144.193 C 268.818 143.692,268.821 127.649,268.320 126.934 C 267.866 126.286,266.019 126.243,265.682 126.872 M170.202 127.141 C 170.373 127.312,170.457 128.261,170.457 130.011 C 170.457 132.961,170.452 132.954,171.991 132.148 C 176.279 129.903,180.466 135.011,178.811 140.470 C 177.784 143.859,175.493 144.991,172.018 143.827 C 170.620 143.359,170.549 143.355,170.191 143.721 C 169.738 144.185,169.113 144.212,168.757 143.783 C 168.393 143.345,168.412 127.620,168.777 127.181 C 169.077 126.819,169.858 126.797,170.202 127.141 M256.068 127.141 C 256.338 127.411,256.457 143.081,256.194 143.766 C 256.040 144.168,254.830 144.224,254.453 143.847 C 253.986 143.380,254.098 127.391,254.570 127.116 C 255.076 126.821,255.759 126.833,256.068 127.141 M267.891 127.220 C 268.329 127.658,268.404 143.414,267.970 143.847 C 267.641 144.176,266.472 144.176,266.142 143.847 C 265.776 143.481,265.776 127.507,266.142 127.141 C 266.504 126.780,267.496 126.825,267.891 127.220 M201.807 127.638 C 197.537 129.671,197.346 134.142,201.447 136.040 C 202.187 136.383,202.906 136.666,203.044 136.670 C 203.181 136.674,203.480 136.817,203.707 136.989 C 203.934 137.160,204.344 137.301,204.619 137.301 C 206.702 137.301,208.803 139.837,207.804 141.147 C 206.300 143.118,201.275 142.212,201.275 139.970 C 201.275 139.074,198.754 138.729,198.086 139.534 C 197.690 140.011,198.262 141.661,199.188 142.714 C 201.813 145.695,209.432 145.368,210.752 142.216 C 211.944 139.371,209.853 135.191,207.230 135.173 C 207.052 135.172,205.952 134.837,204.784 134.429 C 203.617 134.021,202.658 133.688,202.654 133.688 C 202.651 133.688,202.414 133.260,202.129 132.738 L 201.610 131.788 202.249 130.878 L 202.888 129.968 204.615 129.907 C 206.604 129.836,207.427 130.312,208.173 131.966 C 208.681 133.091,210.301 133.436,210.889 132.543 C 211.122 132.191,211.085 130.757,210.840 130.606 C 210.723 130.533,210.627 130.289,210.627 130.062 C 210.627 127.908,204.675 126.273,201.807 127.638 M213.800 127.371 C 212.584 128.313,213.237 130.287,214.764 130.287 C 216.154 130.287,216.890 128.619,215.969 127.556 C 215.523 127.042,214.353 126.942,213.800 127.371 M260.075 127.488 C 259.277 128.370,259.745 130.018,260.893 130.366 C 262.306 130.794,263.446 128.284,262.227 127.430 C 261.587 126.981,260.507 127.010,260.075 127.488 M207.196 127.895 C 209.049 128.479,210.408 129.868,210.471 131.243 L 210.521 132.306 209.673 132.306 C 208.939 132.306,208.787 132.221,208.530 131.668 C 206.914 128.189,201.141 128.549,201.542 132.105 C 201.723 133.715,202.441 134.236,205.820 135.209 C 210.105 136.442,211.169 137.861,210.536 141.492 C 209.772 145.870,198.758 144.820,198.446 140.339 C 198.374 139.307,200.493 139.230,200.881 140.250 C 201.940 143.037,206.225 143.751,208.040 141.443 C 209.257 139.897,207.757 137.534,205.207 136.980 C 204.438 136.813,203.676 136.539,202.125 135.874 C 200.428 135.146,200.376 135.109,199.719 134.181 C 197.030 130.382,201.955 126.242,207.196 127.895 M215.606 127.858 C 216.636 128.888,215.072 130.488,213.991 129.510 C 213.555 129.116,213.495 128.548,213.823 127.935 C 214.093 127.429,215.133 127.384,215.606 127.858 M262.193 128.064 C 262.643 128.750,262.326 129.575,261.538 129.773 C 260.446 130.047,259.720 129.184,260.131 128.102 C 260.439 127.293,261.673 127.270,262.193 128.064 M223.384 131.374 C 223.094 131.490,222.686 131.739,222.478 131.927 C 222.128 132.244,222.063 132.235,221.610 131.810 C 221.024 131.259,219.743 131.191,219.250 131.684 C 218.846 132.088,218.742 143.380,219.136 144.116 C 219.308 144.437,219.585 144.527,220.399 144.527 C 222.052 144.527,222.104 144.369,222.104 139.408 L 222.104 135.233 222.669 134.669 C 223.341 133.996,223.985 133.805,225.011 133.971 C 226.719 134.248,226.987 135.109,226.947 140.182 C 226.912 144.576,226.898 144.528,228.227 144.524 C 229.896 144.518,229.855 144.624,229.917 140.125 C 229.990 134.892,230.359 133.900,232.233 133.900 C 234.485 133.900,234.644 134.255,234.644 139.288 C 234.644 144.244,234.724 144.527,236.129 144.527 C 237.593 144.527,237.620 144.434,237.620 139.298 C 237.620 134.244,237.460 133.551,235.976 132.142 C 234.429 130.674,231.396 130.792,229.564 132.392 C 229.018 132.868,228.693 132.961,228.693 132.640 C 228.693 132.532,228.430 132.306,228.108 132.138 C 227.787 131.970,227.237 131.677,226.886 131.486 C 226.176 131.100,224.226 131.038,223.384 131.374 M244.110 131.667 C 243.064 132.179,243.052 132.180,242.667 131.766 C 242.156 131.218,240.795 131.202,240.309 131.738 C 239.995 132.086,239.957 133.003,239.957 140.437 C 239.957 149.815,239.886 149.416,241.562 149.416 C 242.895 149.416,243.201 148.887,243.126 146.714 C 243.095 145.804,243.138 144.854,243.221 144.603 L 243.372 144.148 244.729 144.555 C 247.104 145.267,249.677 144.281,250.769 142.241 C 252.083 139.786,251.933 134.895,250.507 133.712 C 250.316 133.553,250.159 133.339,250.159 133.236 C 250.159 131.700,246.160 130.663,244.110 131.667 M275.239 131.335 C 273.520 131.813,272.502 132.753,271.207 135.059 C 269.959 137.280,271.020 142.285,273.030 143.663 C 276.539 146.067,284.458 143.521,281.141 141.056 L 280.560 140.624 279.565 141.339 C 277.552 142.784,274.863 142.342,274.015 140.426 C 273.468 139.191,273.401 139.214,277.657 139.214 C 282.232 139.214,282.175 139.239,282.098 137.245 C 281.928 132.795,279.015 130.286,275.239 131.335 M288.098 131.302 C 285.933 131.500,282.943 134.738,284.204 135.518 C 284.645 135.790,286.594 135.600,286.781 135.265 C 287.842 133.368,291.392 133.708,291.392 135.707 C 291.392 136.287,291.351 136.302,289.798 136.269 C 288.333 136.237,286.033 136.960,285.213 137.708 C 281.468 141.129,285.297 146.401,290.114 144.455 C 291.375 143.946,291.525 143.927,291.980 144.226 C 292.293 144.431,292.839 144.526,293.470 144.485 L 294.465 144.421 294.408 140.064 C 294.306 132.336,293.222 130.832,288.098 131.302 M301.382 131.385 C 300.972 131.501,300.557 131.673,300.459 131.769 C 300.360 131.864,300.025 131.809,299.715 131.647 C 297.392 130.435,297.105 131.142,297.145 137.965 C 297.184 144.435,297.202 144.527,298.415 144.527 C 300.147 144.527,300.106 144.642,300.106 139.775 C 300.106 134.744,300.104 134.749,302.319 134.344 C 303.011 134.218,303.595 134.090,303.619 134.060 C 304.997 132.326,303.670 130.739,301.382 131.385 M310.119 131.367 C 309.839 131.479,309.297 131.720,308.913 131.902 C 308.252 132.216,308.192 132.209,307.754 131.771 C 307.259 131.276,305.916 131.323,305.583 131.847 C 305.334 132.239,305.387 143.643,305.640 144.116 C 305.806 144.427,306.088 144.527,306.797 144.527 C 308.322 144.527,308.395 144.297,308.395 139.501 L 308.395 135.421 309.032 134.784 C 310.018 133.798,311.480 133.659,312.540 134.450 C 312.938 134.747,312.969 135.057,313.030 139.272 C 313.105 144.423,313.138 144.527,314.684 144.527 C 315.896 144.527,315.894 144.538,315.863 138.849 C 315.836 133.709,315.728 133.163,314.527 132.061 C 313.641 131.249,311.326 130.884,310.119 131.367 M180.712 131.569 C 179.985 131.861,180.640 135.017,181.956 137.564 C 182.061 137.767,182.147 138.044,182.147 138.180 C 182.147 138.316,182.377 138.915,182.658 139.511 C 182.939 140.107,183.337 141.073,183.543 141.658 C 183.749 142.242,183.997 142.811,184.095 142.922 C 184.992 143.944,183.649 146.606,182.132 146.809 C 180.112 147.080,180.236 149.628,182.270 149.628 C 184.087 149.628,186.610 147.311,186.610 145.641 C 186.610 145.426,186.694 145.159,186.796 145.048 C 186.899 144.937,187.181 144.272,187.424 143.571 C 188.166 141.428,188.702 140.043,188.891 139.782 C 189.141 139.436,189.545 138.204,189.778 137.077 C 189.885 136.557,190.268 135.428,190.629 134.569 C 191.648 132.144,191.485 131.350,189.968 131.350 C 189.118 131.350,188.310 131.921,188.310 132.521 C 188.310 132.698,188.227 133.009,188.126 133.212 C 187.928 133.608,187.452 134.929,186.769 136.982 C 186.110 138.963,185.997 139.214,185.764 139.214 C 185.645 139.214,185.547 139.027,185.547 138.798 C 185.547 138.570,185.302 137.733,185.002 136.938 C 184.702 136.144,184.209 134.799,183.907 133.949 C 183.060 131.573,182.233 130.957,180.712 131.569 M213.862 131.680 C 213.302 132.073,213.101 143.728,213.645 144.272 C 214.010 144.637,215.621 144.594,215.939 144.210 C 216.400 143.654,216.271 131.961,215.799 131.616 C 215.301 131.252,214.432 131.281,213.862 131.680 M260.196 131.680 C 259.727 132.009,259.724 132.057,259.724 137.858 C 259.724 144.483,259.733 144.527,261.080 144.527 C 262.711 144.527,262.699 144.577,262.699 137.881 C 262.699 131.373,262.694 131.350,261.211 131.350 C 260.913 131.350,260.456 131.499,260.196 131.680 M227.222 132.113 C 227.406 132.278,227.646 132.412,227.755 132.412 C 227.864 132.412,228.072 132.604,228.218 132.837 C 228.541 133.354,229.175 133.388,229.570 132.910 C 230.835 131.380,234.306 131.181,235.748 132.555 C 236.944 133.695,237.056 134.222,237.147 139.157 L 237.231 143.669 236.681 143.920 C 236.267 144.108,236.001 144.111,235.600 143.928 L 235.069 143.686 235.069 139.670 C 235.069 134.033,234.836 133.473,232.494 133.476 C 230.051 133.480,229.546 134.505,229.544 139.464 C 229.543 143.963,229.475 144.177,228.082 144.060 L 227.311 143.996 227.205 139.405 C 227.091 134.472,227.070 134.384,225.903 133.780 C 224.854 133.237,223.498 133.384,222.646 134.132 C 221.642 135.013,221.513 135.680,221.506 140.003 C 221.500 144.094,221.498 144.102,220.540 144.102 C 219.343 144.102,219.341 144.093,219.341 137.903 C 219.341 132.348,219.352 132.209,219.786 131.977 C 220.378 131.660,221.193 131.886,221.360 132.413 C 221.532 132.954,221.778 132.948,222.574 132.380 C 223.751 131.542,226.411 131.389,227.222 132.113 M248.565 132.295 C 250.373 133.354,251.325 135.619,251.184 138.527 C 250.960 143.137,248.101 145.313,244.111 143.911 C 242.665 143.402,242.721 143.318,242.721 146.035 C 242.721 148.576,242.541 148.990,241.438 148.990 C 240.412 148.990,240.383 148.747,240.383 140.383 C 240.383 135.422,240.462 132.448,240.603 132.186 C 240.941 131.553,241.954 131.647,242.473 132.359 L 242.898 132.943 243.548 132.463 C 244.910 131.455,247.013 131.385,248.565 132.295 M279.009 132.132 C 280.832 132.997,281.552 134.377,281.675 137.242 C 281.738 138.717,281.870 138.669,277.401 138.789 L 273.433 138.895 273.367 139.463 C 273.051 142.197,277.851 143.889,279.678 141.687 C 280.241 141.009,281.403 141.383,281.403 142.242 C 281.403 144.331,275.139 144.950,273.055 143.067 C 268.052 138.547,273.077 129.317,279.009 132.132 M303.283 131.867 C 303.916 132.630,303.472 133.536,302.338 133.793 C 299.771 134.375,299.681 134.564,299.681 139.381 C 299.681 143.623,299.577 144.102,298.654 144.102 C 297.573 144.102,297.556 144.006,297.556 138.017 C 297.556 131.492,297.725 130.950,299.359 132.235 L 299.944 132.695 300.822 132.245 C 302.305 131.485,302.891 131.395,303.283 131.867 M314.044 132.210 C 315.343 133.013,315.622 134.262,315.622 139.285 C 315.622 143.796,315.561 144.105,314.676 144.099 C 313.714 144.092,313.655 143.894,313.690 140.779 C 313.756 134.851,313.378 133.730,311.252 133.538 C 310.373 133.459,310.060 133.537,309.327 134.020 C 307.827 135.007,307.758 135.258,307.758 139.682 C 307.758 143.785,307.689 144.102,306.801 144.102 C 305.879 144.102,305.845 143.879,305.845 137.903 C 305.845 132.397,305.859 132.207,306.278 131.983 C 306.839 131.683,307.470 131.889,307.609 132.419 C 307.731 132.888,308.385 132.975,308.784 132.576 C 309.823 131.537,312.638 131.341,314.044 132.210 M190.525 131.904 C 190.993 132.084,190.947 132.553,190.305 134.129 C 189.999 134.880,189.615 136.020,189.451 136.663 C 189.287 137.306,188.855 138.597,188.491 139.532 C 188.127 140.468,187.754 141.424,187.663 141.658 C 187.572 141.892,187.149 142.991,186.723 144.102 C 185.445 147.434,185.298 147.706,184.407 148.361 C 183.551 148.991,181.296 149.305,181.296 148.795 C 181.296 148.688,181.243 148.461,181.178 148.291 C 181.007 147.844,181.655 147.290,182.349 147.290 C 183.135 147.290,184.154 146.243,184.577 145.003 C 184.935 143.951,185.010 144.202,182.360 137.513 C 181.588 135.565,181.198 134.359,180.728 132.465 C 180.562 131.795,182.423 131.737,182.778 132.401 C 183.081 132.966,184.159 135.905,184.989 138.427 C 185.765 140.784,186.022 140.823,186.685 138.682 C 188.623 132.421,189.204 131.397,190.525 131.904 M215.317 131.995 C 215.822 132.265,215.968 143.352,215.473 143.847 C 215.134 144.186,214.350 144.172,214.060 143.822 C 213.618 143.289,213.712 132.376,214.161 132.047 C 214.612 131.717,214.784 131.710,215.317 131.995 M261.940 132.109 C 262.227 132.395,262.274 133.233,262.274 138.017 C 262.274 143.976,262.252 144.102,261.211 144.102 C 260.169 144.102,260.149 143.983,260.149 137.906 C 260.149 132.716,260.181 132.202,260.521 132.004 C 261.060 131.690,261.559 131.727,261.940 132.109 M291.253 132.004 C 292.534 132.360,293.483 133.382,293.719 134.661 C 293.871 135.485,294.040 142.070,293.955 143.836 C 293.937 144.216,292.945 144.165,292.240 143.748 C 291.672 143.413,291.575 143.418,290.379 143.854 C 287.092 145.053,284.383 143.828,284.207 141.064 C 284.040 138.447,285.747 137.093,289.429 136.921 C 291.526 136.824,291.616 136.800,291.741 136.302 C 292.372 133.784,288.747 132.436,286.910 134.506 C 285.449 136.152,283.821 135.627,284.929 133.867 C 286.091 132.022,288.627 131.275,291.253 132.004 M171.930 133.998 C 170.207 135.128,169.687 139.809,171.104 141.424 C 172.897 143.466,175.518 143.037,176.632 140.521 C 178.417 136.484,175.118 131.907,171.930 133.998 M244.109 133.894 C 242.821 134.742,242.730 135.019,242.725 138.105 C 242.720 141.235,242.844 141.624,244.096 142.398 C 245.668 143.370,247.501 142.708,248.362 140.857 C 250.272 136.754,247.257 131.818,244.109 133.894 M274.882 134.088 C 274.113 134.645,273.326 135.832,273.326 136.435 C 273.326 136.885,274.388 137.077,276.730 137.049 C 279.525 137.017,279.874 136.859,279.511 135.795 C 278.762 133.599,276.638 132.816,274.882 134.088 M174.650 134.223 C 177.737 135.468,177.026 142.189,173.808 142.189 C 171.579 142.189,170.882 141.202,170.882 138.045 C 170.882 134.559,172.191 133.232,174.650 134.223 M247.319 134.565 C 248.443 135.620,248.894 138.693,248.139 140.141 C 247.964 140.476,247.821 140.910,247.821 141.105 C 247.821 142.170,244.912 142.591,243.852 141.679 C 243.226 141.141,242.871 137.662,243.240 135.694 C 243.544 134.074,246.056 133.379,247.319 134.565 M277.882 134.314 C 279.095 135.114,279.460 136.434,278.480 136.476 C 278.159 136.489,277.561 136.524,277.152 136.552 C 276.056 136.627,273.751 136.416,273.751 136.240 C 273.751 134.763,276.569 133.449,277.882 134.314 M288.310 138.515 C 286.157 139.035,285.465 140.702,286.858 142.010 C 287.634 142.737,289.700 142.718,290.755 141.972 C 291.164 141.683,291.523 141.438,291.552 141.427 C 291.800 141.339,292.020 138.927,291.805 138.667 C 291.556 138.368,289.323 138.271,288.310 138.515 M291.087 138.699 C 291.582 138.833,291.521 140.566,290.998 141.196 C 289.736 142.717,286.708 142.371,286.723 140.709 C 286.734 139.516,287.527 138.964,289.586 138.716 C 289.936 138.674,290.319 138.627,290.436 138.611 C 290.553 138.595,290.845 138.635,291.087 138.699 " stroke="none" fill="#ffffff" fill-rule="evenodd"></path></g></svg>