<?xml version="1.0" standalone="no"?>
<!DOCTYPE svg PUBLIC "-//W3C//DTD SVG 20010904//EN"
 "http://www.w3.org/TR/2001/REC-SVG-20010904/DTD/svg10.dtd">
<svg version="1.0" xmlns="http://www.w3.org/2000/svg"
 width="250.000000pt" height="200.000000pt" viewBox="0 0 250.000000 200.000000"
 preserveAspectRatio="xMidYMid meet">

<g transform="translate(0.000000,200.000000) scale(0.100000,-0.100000)"
fill="#000000" stroke="none">
<path d="M1140 1396 c-63 -18 -100 -39 -135 -77 -22 -24 -25 -30 -11 -25 33
11 212 30 229 23 15 -6 17 -26 17 -152 0 -98 3 -144 10 -140 7 4 10 58 9 142
0 85 3 139 10 146 11 11 186 -4 226 -19 32 -13 -2 34 -45 61 -80 51 -212 68
-310 41z"/>
<path d="M1028 1257 l-68 -9 0 -35 c0 -43 21 -83 59 -116 32 -26 118 -64 127
-55 10 10 45 201 40 214 -6 16 -56 16 -158 1z"/>
<path d="M1310 1238 c0 -63 32 -198 47 -198 27 0 110 49 140 83 31 35 51 103
36 118 -9 8 -146 29 -194 29 -26 0 -29 -3 -29 -32z"/>
<path d="M500 880 c0 -15 7 -20 25 -20 24 0 25 -2 25 -70 l0 -70 35 0 34 0 3
68 c3 60 5 67 24 70 12 2 24 12 27 23 5 18 -1 19 -84 19 -82 0 -89 -1 -89 -20z"/>
<path d="M706 823 c-16 -43 -31 -84 -34 -91 -3 -10 4 -13 28 -10 30 3 35 8 50
53 9 28 20 49 25 48 4 -1 15 -24 24 -50 14 -43 19 -48 50 -51 25 -3 32 0 29
10 -3 7 -18 48 -34 90 l-29 78 -40 0 -40 0 -29 -77z"/>
<path d="M880 880 c0 -15 7 -20 25 -20 24 0 25 -2 25 -70 l0 -70 35 0 34 0 3
68 c3 61 5 67 26 70 14 2 22 10 22 23 0 17 -8 19 -85 19 -78 0 -85 -2 -85 -20z"/>
<path d="M1086 823 c-16 -43 -31 -84 -34 -91 -3 -10 4 -13 28 -10 30 3 35 8
49 50 9 26 19 49 22 53 4 3 15 -18 25 -47 17 -48 22 -53 52 -56 17 -2 32 -2
32 0 0 2 -15 42 -33 89 l-33 84 -39 3 -40 3 -29 -78z"/>
<path d="M1382 888 c-24 -24 -13 -57 28 -83 57 -36 51 -72 -12 -67 -14 1 -29
-2 -33 -8 -4 -6 11 -10 38 -10 86 0 101 71 22 104 -19 8 -35 21 -35 29 0 22
27 40 50 34 11 -3 23 -1 26 4 8 14 -70 11 -84 -3z"/>
<path d="M1490 891 c0 -5 12 -11 28 -13 27 -3 27 -4 30 -80 4 -103 22 -101 22
2 l0 80 30 0 c17 0 30 5 30 10 0 6 -30 10 -70 10 -38 0 -70 -4 -70 -9z"/>
<path d="M1660 810 l0 -90 56 0 c34 0 53 4 49 10 -3 6 -24 10 -46 10 -37 0
-39 2 -39 30 0 17 6 31 13 31 6 1 17 2 22 4 6 1 19 3 30 5 11 2 2 6 -20 9 -34
5 -40 10 -43 34 -3 26 -1 27 37 27 23 0 41 5 41 10 0 6 -22 10 -50 10 l-50 0
0 -90z"/>
<path d="M1810 810 l0 -90 55 0 c30 0 55 5 55 10 0 6 -18 10 -41 10 -39 0 -40
1 -37 33 3 29 6 32 36 31 17 0 32 3 32 8 0 4 -16 8 -35 8 -32 0 -35 2 -35 30
0 28 3 30 35 30 19 0 35 5 35 10 0 6 -22 10 -50 10 l-50 0 0 -90z"/>
<path d="M1965 810 l0 -90 53 0 c28 0 52 5 52 10 0 6 -18 10 -40 10 l-40 0 0
80 c0 57 -4 80 -12 80 -10 0 -13 -25 -13 -90z"/>
</g>
</svg>
