<?xml version="1.0" standalone="no"?>
<!DOCTYPE svg PUBLIC "-//W3C//DTD SVG 20010904//EN"
 "http://www.w3.org/TR/2001/REC-SVG-20010904/DTD/svg10.dtd">
<svg version="1.0" xmlns="http://www.w3.org/2000/svg"
 width="513.000000pt" height="420.000000pt" viewBox="0 0 513.000000 420.000000"
 preserveAspectRatio="xMidYMid meet">

<g transform="translate(0.000000,420.000000) scale(0.100000,-0.100000)"
fill="#000000" stroke="none">
<path d="M1555 4173 c-118 -43 -203 -134 -278 -298 -97 -210 -223 -450 -306
-583 -268 -427 -563 -758 -883 -990 l-87 -64 6 -51 c31 -278 296 -388 582
-242 36 18 91 49 121 69 30 19 56 33 58 31 2 -2 -22 -121 -52 -264 -70 -322
-85 -424 -92 -621 -24 -593 203 -1007 613 -1122 91 -25 270 -30 368 -9 435 90
817 454 1225 1166 106 185 329 633 421 847 35 81 66 147 69 148 3 0 3 -83 2
-185 -8 -398 39 -679 150 -905 91 -185 236 -305 433 -356 54 -14 106 -18 225
-18 134 1 168 4 253 27 232 62 441 197 565 365 180 242 222 558 91 676 -21 20
-45 36 -52 36 -6 0 -59 -43 -117 -96 -129 -117 -298 -246 -367 -280 -28 -14
-80 -30 -115 -36 -59 -10 -69 -10 -109 10 -74 36 -108 106 -128 260 -19 149
-32 421 -41 867 -11 537 -22 622 -100 792 -46 99 -103 163 -179 200 -50 25
-67 28 -156 28 -85 0 -107 -3 -145 -23 -92 -48 -141 -113 -255 -342 -129 -258
-502 -985 -588 -1145 -225 -420 -550 -912 -741 -1122 -59 -65 -139 -113 -188
-113 -42 0 -100 34 -124 72 -51 78 -59 128 -59 358 0 237 9 307 76 640 41 208
164 712 249 1025 109 399 129 501 137 700 11 286 -59 462 -213 535 -68 32
-199 38 -269 13z"/>
</g>
</svg>
