<svg id="svg" version="1.1" xmlns="http://www.w3.org/2000/svg" xmlns:xlink="http://www.w3.org/1999/xlink" width="400" height="400" viewBox="0, 0, 400,400"><g id="svgg"><path id="path0" d="M0.000 200.000 L 0.000 400.000 200.000 400.000 L 400.000 400.000 400.000 200.000 L 400.000 0.000 200.000 0.000 L 0.000 0.000 0.000 200.000 M176.008 115.239 C 177.134 115.481,178.152 115.931,178.270 116.239 C 178.389 116.548,178.756 116.800,179.085 116.800 C 179.707 116.800,183.600 120.699,183.600 121.322 C 183.600 121.515,183.951 122.120,184.380 122.665 C 184.809 123.210,185.283 124.480,185.434 125.487 C 185.585 126.494,185.953 127.786,186.252 128.359 C 187.022 129.834,187.009 140.937,186.235 143.286 C 185.925 144.229,185.543 146.350,185.387 148.000 C 185.231 149.650,184.765 151.862,184.352 152.915 C 183.938 153.968,183.600 155.411,183.600 156.121 C 183.600 156.831,183.248 158.068,182.819 158.870 C 182.389 159.672,181.918 161.289,181.773 162.464 C 181.627 163.639,181.286 164.960,181.015 165.400 C 180.744 165.840,180.290 167.460,180.007 169.000 C 179.724 170.540,179.267 172.250,178.993 172.800 C 178.718 173.350,178.365 174.750,178.208 175.910 C 178.051 177.071,177.661 178.281,177.343 178.600 C 177.023 178.920,176.616 180.497,176.433 182.125 C 176.251 183.746,175.830 185.505,175.496 186.036 C 175.163 186.566,174.766 188.170,174.615 189.600 C 174.463 191.030,174.094 192.472,173.794 192.804 C 173.494 193.137,173.063 194.890,172.836 196.701 C 172.609 198.511,172.165 200.399,171.849 200.896 C 171.534 201.393,171.152 203.150,171.001 204.800 C 170.849 206.450,170.488 208.291,170.198 208.891 C 169.907 209.492,169.554 211.382,169.413 213.091 C 169.271 214.801,168.788 217.962,168.339 220.116 C 167.408 224.582,167.353 237.734,168.261 238.839 C 168.514 239.148,168.926 240.162,169.175 241.094 C 170.095 244.537,174.579 246.506,177.419 244.716 C 177.870 244.432,178.814 243.840,179.517 243.400 C 180.220 242.960,180.796 242.384,180.797 242.120 C 180.799 241.856,181.049 241.496,181.354 241.320 C 181.659 241.144,183.008 239.650,184.352 238.000 C 185.696 236.350,187.426 234.308,188.198 233.463 C 188.969 232.618,189.600 231.741,189.600 231.516 C 189.600 231.290,190.146 230.452,190.814 229.653 C 191.482 228.854,192.247 227.938,192.514 227.618 C 192.781 227.298,193.577 226.128,194.283 225.018 C 194.988 223.908,195.798 222.738,196.083 222.418 C 196.367 222.098,196.816 221.333,197.081 220.718 C 197.345 220.103,197.750 219.600,197.981 219.600 C 198.211 219.600,198.400 219.344,198.400 219.031 C 198.400 218.718,198.850 217.927,199.400 217.273 C 199.950 216.619,200.400 215.912,200.400 215.701 C 200.400 215.490,200.850 214.831,201.400 214.238 C 201.950 213.644,202.400 212.926,202.400 212.641 C 202.400 212.357,202.760 211.798,203.200 211.400 C 203.640 211.002,204.000 210.498,204.000 210.279 C 204.000 209.792,206.670 205.727,207.210 205.394 C 207.424 205.261,207.600 204.803,207.600 204.376 C 207.600 203.949,207.955 203.245,208.390 202.810 C 208.824 202.376,209.298 201.521,209.444 200.910 C 209.589 200.300,209.970 199.497,210.291 199.128 C 210.895 198.431,212.002 196.535,212.816 194.800 C 213.074 194.250,213.448 193.530,213.648 193.200 C 213.847 192.870,214.366 191.880,214.800 191.000 C 215.607 189.366,215.897 188.867,217.490 186.378 C 217.991 185.597,218.400 184.679,218.400 184.340 C 218.400 184.000,218.749 183.320,219.175 182.828 C 219.602 182.337,220.069 181.397,220.213 180.740 C 220.357 180.083,220.717 179.453,221.013 179.340 C 221.309 179.226,221.662 178.627,221.798 178.008 C 221.934 177.389,222.395 176.566,222.823 176.179 C 223.250 175.793,223.600 175.054,223.600 174.538 C 223.600 174.022,223.942 173.258,224.361 172.839 C 224.779 172.421,225.254 171.656,225.416 171.139 C 225.578 170.623,226.045 169.771,226.455 169.246 C 226.865 168.721,227.200 168.027,227.200 167.704 C 227.200 167.380,227.650 166.581,228.200 165.927 C 228.750 165.273,229.200 164.403,229.200 163.993 C 229.200 163.583,229.395 163.127,229.633 162.980 C 229.871 162.832,230.396 161.942,230.800 161.000 C 231.204 160.058,231.729 159.168,231.967 159.020 C 232.205 158.873,232.400 158.438,232.400 158.054 C 232.400 157.670,232.850 156.745,233.400 156.000 C 233.950 155.255,234.400 154.332,234.400 153.951 C 234.400 153.569,234.657 153.001,234.970 152.687 C 235.284 152.373,235.831 151.505,236.186 150.758 C 237.669 147.638,238.522 146.182,239.045 145.880 C 239.350 145.704,239.600 145.332,239.600 145.052 C 239.600 144.773,240.005 144.164,240.500 143.700 C 240.995 143.235,241.623 142.618,241.895 142.328 C 244.980 139.040,246.960 138.315,252.443 138.467 C 255.451 138.551,257.336 138.769,257.515 139.055 C 257.672 139.305,258.430 139.778,259.200 140.105 C 261.009 140.874,264.675 144.598,265.286 146.287 C 265.547 147.009,265.900 147.600,266.069 147.600 C 266.239 147.600,266.678 148.635,267.046 149.900 C 267.413 151.165,267.937 152.560,268.210 153.000 C 268.482 153.440,268.817 155.090,268.952 156.666 C 269.088 158.243,269.453 160.583,269.764 161.866 C 270.195 163.646,270.386 169.140,270.571 185.000 C 270.762 201.501,270.935 206.255,271.404 208.000 C 271.729 209.210,272.114 211.959,272.258 214.109 C 272.459 217.090,272.699 218.223,273.272 218.883 C 273.684 219.358,274.121 220.119,274.243 220.574 C 274.642 222.060,279.886 223.955,280.565 222.857 C 280.681 222.669,281.862 222.284,283.188 222.002 C 284.515 221.721,285.600 221.338,285.600 221.151 C 285.600 220.964,286.185 220.566,286.900 220.267 C 287.615 219.968,288.447 219.426,288.749 219.062 C 289.051 218.698,289.627 218.400,290.029 218.400 C 290.431 218.400,290.904 218.155,291.080 217.855 C 291.472 217.186,296.630 212.800,297.025 212.800 C 297.181 212.800,297.722 212.395,298.228 211.900 C 303.151 207.085,304.338 206.400,306.147 207.339 C 307.671 208.129,309.598 210.375,309.609 211.372 C 309.614 211.827,309.974 212.985,310.409 213.944 C 311.357 216.033,311.453 219.550,310.608 221.185 C 310.282 221.816,309.895 223.350,309.749 224.596 C 309.603 225.841,309.253 227.089,308.973 227.370 C 308.693 227.650,308.260 228.636,308.011 229.560 C 307.762 230.485,307.314 231.335,307.015 231.450 C 306.717 231.564,306.373 232.050,306.253 232.529 C 306.015 233.472,305.225 234.615,303.500 236.510 C 302.895 237.175,302.400 237.860,302.400 238.032 C 302.400 238.205,302.040 238.460,301.600 238.600 C 301.160 238.740,300.800 239.116,300.800 239.437 C 300.800 239.757,300.350 240.191,299.800 240.400 C 299.250 240.609,298.800 240.937,298.800 241.128 C 298.800 241.545,294.176 244.987,292.317 245.954 C 291.593 246.331,290.640 246.824,290.200 247.051 C 289.760 247.278,288.670 247.839,287.778 248.299 C 286.885 248.759,285.445 249.262,284.578 249.418 C 283.710 249.574,282.730 249.924,282.400 250.197 C 280.130 252.072,260.237 252.106,258.000 250.239 C 257.670 249.963,256.656 249.526,255.747 249.267 C 254.839 249.008,253.872 248.527,253.598 248.198 C 253.325 247.869,252.899 247.598,252.651 247.595 C 251.610 247.582,246.584 242.827,244.978 240.334 C 244.458 239.527,243.845 238.751,243.616 238.610 C 243.387 238.469,243.200 238.031,243.200 237.638 C 243.200 237.245,242.862 236.618,242.450 236.245 C 242.037 235.871,241.595 234.921,241.467 234.133 C 241.339 233.345,240.951 232.388,240.605 232.006 C 240.259 231.623,239.808 230.277,239.602 229.013 C 239.397 227.750,239.041 226.491,238.812 226.215 C 238.584 225.939,238.211 224.203,237.985 222.357 C 237.759 220.511,237.361 217.830,237.102 216.400 C 236.843 214.970,236.534 210.560,236.415 206.600 C 236.195 199.244,235.934 198.211,234.989 200.960 C 234.694 201.818,234.297 202.628,234.107 202.760 C 233.917 202.892,233.544 203.744,233.279 204.653 C 233.013 205.561,232.527 206.528,232.198 206.802 C 231.869 207.075,231.600 207.612,231.600 207.995 C 231.600 208.378,231.251 209.136,230.825 209.678 C 230.398 210.220,229.921 211.189,229.764 211.832 C 229.607 212.474,229.145 213.429,228.739 213.954 C 228.333 214.479,228.000 215.244,228.000 215.654 C 228.000 216.064,227.640 216.760,227.200 217.200 C 226.760 217.640,226.400 218.256,226.400 218.569 C 226.400 218.882,225.950 219.673,225.400 220.327 C 224.850 220.981,224.400 221.884,224.400 222.334 C 224.400 222.784,224.200 223.277,223.955 223.428 C 223.710 223.579,223.151 224.445,222.714 225.352 C 221.383 228.108,220.576 229.481,219.872 230.185 C 219.502 230.555,219.200 231.170,219.200 231.553 C 219.200 231.936,218.878 232.598,218.485 233.025 C 218.092 233.451,217.536 234.372,217.249 235.071 C 216.962 235.770,216.473 236.440,216.163 236.559 C 215.854 236.678,215.600 237.070,215.600 237.430 C 215.600 237.790,215.150 238.619,214.600 239.273 C 214.050 239.927,213.600 240.711,213.600 241.017 C 213.600 241.322,213.240 241.765,212.800 242.000 C 212.360 242.235,212.000 242.622,212.000 242.858 C 212.000 243.478,209.531 247.200,209.120 247.200 C 208.930 247.200,208.645 247.532,208.487 247.939 C 208.057 249.044,204.831 253.387,202.900 255.460 C 201.965 256.463,201.200 257.400,201.200 257.542 C 201.199 257.684,200.704 258.294,200.100 258.897 C 199.495 259.500,198.370 260.628,197.600 261.403 C 194.246 264.780,193.551 265.444,192.582 266.200 C 192.017 266.640,190.755 267.753,189.777 268.673 C 188.799 269.594,187.663 270.453,187.252 270.583 C 186.841 270.714,186.184 271.176,185.791 271.610 C 185.398 272.045,184.860 272.400,184.596 272.400 C 184.333 272.400,183.631 272.850,183.038 273.400 C 182.444 273.950,181.681 274.400,181.342 274.400 C 181.004 274.400,180.269 274.760,179.709 275.200 C 179.150 275.640,178.291 276.000,177.800 276.000 C 177.309 276.000,176.479 276.333,175.954 276.741 C 175.429 277.149,174.035 277.607,172.856 277.761 C 171.677 277.914,170.245 278.345,169.674 278.720 C 168.168 279.707,155.073 279.732,153.574 278.751 C 153.029 278.393,151.776 277.969,150.791 277.807 C 149.806 277.645,148.730 277.284,148.400 277.004 C 148.070 276.724,147.350 276.359,146.800 276.193 C 146.250 276.026,145.291 275.465,144.669 274.945 C 144.047 274.425,143.417 273.999,143.269 273.998 C 143.121 273.997,142.108 273.187,141.017 272.198 C 139.926 271.209,138.891 270.400,138.717 270.400 C 138.543 270.400,138.400 270.196,138.400 269.946 C 138.400 269.696,137.995 269.091,137.500 268.602 C 135.834 266.955,133.458 263.449,132.985 261.941 C 132.823 261.424,132.355 260.571,131.945 260.046 C 131.535 259.521,131.200 258.733,131.200 258.293 C 131.200 257.854,130.861 256.933,130.447 256.247 C 130.033 255.561,129.573 254.100,129.425 253.000 C 129.277 251.900,128.850 250.370,128.478 249.600 C 127.465 247.507,127.460 225.310,128.471 223.200 C 128.841 222.430,129.267 220.270,129.418 218.400 C 129.569 216.530,129.943 214.512,130.248 213.917 C 130.554 213.321,130.996 211.449,131.231 209.757 C 131.467 208.066,131.898 206.303,132.191 205.841 C 134.024 202.944,133.160 200.564,130.855 202.162 C 130.031 202.733,129.170 203.200,128.940 203.200 C 128.711 203.200,128.198 203.560,127.800 204.000 C 127.402 204.440,126.696 204.800,126.232 204.800 C 125.768 204.800,124.671 205.189,123.794 205.663 C 121.664 206.817,112.929 207.001,111.728 205.918 C 111.327 205.557,110.500 205.138,109.889 204.985 C 109.279 204.833,108.604 204.381,108.390 203.981 C 108.176 203.581,107.641 203.140,107.200 203.000 C 106.760 202.860,106.400 202.495,106.400 202.187 C 106.400 201.880,106.042 201.437,105.605 201.203 C 105.167 200.968,104.693 200.287,104.551 199.688 C 104.409 199.090,104.013 198.278,103.671 197.885 C 103.006 197.121,102.545 193.071,102.942 191.489 C 103.081 190.933,104.040 189.999,105.289 189.202 C 107.371 187.872,108.064 187.363,111.000 185.000 C 112.975 183.410,113.799 182.760,115.051 181.800 C 116.792 180.467,125.600 171.594,125.600 171.174 C 125.600 170.959,126.050 170.578,126.600 170.327 C 127.150 170.077,127.600 169.639,127.600 169.354 C 127.600 169.069,128.005 168.411,128.500 167.892 C 128.995 167.373,129.850 166.362,130.400 165.647 C 130.950 164.931,131.805 163.966,132.300 163.501 C 132.795 163.036,133.200 162.458,133.200 162.217 C 133.200 161.975,133.515 161.485,133.900 161.128 C 134.285 160.770,135.050 159.816,135.600 159.008 C 136.150 158.200,137.005 157.076,137.500 156.511 C 137.995 155.946,138.400 155.329,138.400 155.142 C 138.400 154.954,138.686 154.485,139.036 154.100 C 139.386 153.715,140.241 152.487,140.936 151.370 C 141.631 150.254,142.515 149.026,142.900 148.642 C 143.285 148.257,143.600 147.606,143.600 147.194 C 143.600 146.782,143.947 146.202,144.372 145.905 C 144.796 145.607,145.262 144.891,145.408 144.312 C 145.553 143.733,146.016 142.948,146.436 142.567 C 146.856 142.187,147.200 141.571,147.200 141.199 C 147.200 140.827,147.565 140.102,148.011 139.587 C 148.457 139.073,148.931 138.191,149.065 137.626 C 149.198 137.062,149.519 136.330,149.778 136.000 C 150.586 134.970,152.305 131.341,152.582 130.084 C 152.727 129.423,153.195 128.566,153.623 128.179 C 154.050 127.793,154.400 127.076,154.400 126.587 C 154.400 126.098,154.698 125.451,155.062 125.149 C 155.426 124.847,155.968 124.015,156.267 123.300 C 156.566 122.585,156.988 122.000,157.205 122.000 C 157.422 122.000,157.600 121.757,157.600 121.459 C 157.600 120.823,161.814 116.800,162.481 116.800 C 162.732 116.800,163.259 116.509,163.652 116.153 C 165.090 114.852,171.865 114.351,176.008 115.239 " stroke="none" fill="#000000" fill-rule="evenodd"></path><path id="path1" d="M166.600 116.288 C 166.160 116.395,165.530 116.720,165.200 117.010 C 164.870 117.300,164.123 117.657,163.540 117.802 C 162.370 118.094,158.944 121.316,158.578 122.468 C 158.451 122.871,158.169 123.200,157.953 123.200 C 157.736 123.200,157.280 123.869,156.938 124.686 C 156.597 125.504,156.095 126.359,155.824 126.586 C 155.553 126.814,155.114 127.765,154.850 128.700 C 154.585 129.635,154.215 130.400,154.028 130.400 C 153.842 130.400,153.574 131.012,153.434 131.759 C 153.294 132.507,152.824 133.570,152.389 134.123 C 151.955 134.675,151.600 135.389,151.600 135.709 C 151.600 136.030,151.265 136.721,150.855 137.246 C 150.445 137.771,149.974 138.650,149.808 139.200 C 149.641 139.750,149.278 140.470,149.001 140.800 C 148.723 141.130,148.180 142.030,147.792 142.800 C 147.405 143.570,146.978 144.290,146.844 144.400 C 146.532 144.656,145.383 146.644,144.630 148.232 C 144.309 148.909,143.766 149.696,143.423 149.981 C 143.080 150.265,142.800 150.746,142.800 151.049 C 142.800 151.352,142.485 151.918,142.100 152.307 C 141.386 153.028,140.137 154.733,139.377 156.025 C 138.919 156.804,138.025 158.055,136.294 160.340 C 135.685 161.143,134.915 162.160,134.582 162.600 C 132.323 165.583,129.418 169.051,128.953 169.320 C 128.649 169.496,128.400 169.797,128.400 169.988 C 128.400 170.180,127.275 171.519,125.900 172.963 C 124.525 174.408,123.184 175.817,122.919 176.095 C 122.655 176.373,122.205 176.816,121.919 177.081 C 121.634 177.345,121.206 177.795,120.969 178.081 C 120.595 178.532,119.485 179.528,114.035 184.308 C 113.466 184.807,112.640 185.544,112.200 185.945 C 111.760 186.347,110.950 186.910,110.400 187.196 C 109.850 187.482,109.256 187.961,109.080 188.258 C 108.904 188.556,108.574 188.800,108.347 188.800 C 107.583 188.800,104.391 191.697,104.165 192.595 C 103.878 193.740,105.525 199.215,106.392 200.000 C 106.757 200.330,107.174 200.919,107.319 201.309 C 107.463 201.699,107.901 202.131,108.291 202.269 C 108.681 202.406,109.360 202.825,109.800 203.199 C 111.085 204.291,116.147 205.717,117.880 205.477 C 120.554 205.105,124.980 203.914,125.600 203.399 C 125.930 203.125,126.874 202.685,127.697 202.421 C 128.520 202.156,129.330 201.719,129.497 201.448 C 130.707 199.485,135.795 198.940,134.754 200.886 C 134.518 201.326,134.077 203.218,133.775 205.088 C 133.472 206.959,133.037 208.714,132.809 208.989 C 132.581 209.264,132.216 210.909,131.998 212.644 C 131.780 214.380,131.342 216.610,131.026 217.600 C 130.710 218.590,130.239 221.380,129.980 223.800 C 129.721 226.220,129.350 228.503,129.155 228.874 C 128.567 229.991,128.727 242.192,129.363 244.742 C 129.673 245.984,130.048 248.260,130.196 249.800 C 130.345 251.340,130.692 252.960,130.967 253.400 C 131.243 253.840,131.692 255.100,131.964 256.200 C 132.237 257.300,132.692 258.470,132.976 258.800 C 133.260 259.130,133.600 259.850,133.731 260.400 C 134.281 262.704,140.225 270.482,142.443 271.800 C 142.814 272.020,144.080 272.855,145.258 273.655 C 146.436 274.455,147.850 275.241,148.400 275.402 C 148.950 275.563,149.670 275.919,150.000 276.193 C 150.330 276.468,151.499 276.809,152.597 276.952 C 153.695 277.094,155.739 277.498,157.139 277.850 C 158.785 278.262,160.552 278.413,162.142 278.276 C 165.699 277.968,173.135 276.551,173.715 276.070 C 173.988 275.844,175.058 275.446,176.093 275.185 C 177.129 274.924,178.183 274.461,178.437 274.156 C 178.690 273.850,179.170 273.600,179.502 273.600 C 179.834 273.600,180.754 273.195,181.547 272.700 C 182.340 272.205,183.282 271.620,183.641 271.400 C 184.815 270.681,186.577 269.452,187.800 268.500 C 188.460 267.986,189.408 267.259,189.906 266.883 C 192.138 265.201,198.761 258.427,201.447 255.078 C 203.070 253.055,204.759 251.034,205.199 250.586 C 205.640 250.138,206.000 249.562,206.000 249.306 C 206.000 249.049,206.239 248.696,206.531 248.520 C 206.823 248.344,207.402 247.615,207.818 246.900 C 208.233 246.185,208.696 245.600,208.847 245.600 C 208.998 245.600,209.318 245.105,209.557 244.500 C 209.797 243.895,210.626 242.590,211.400 241.600 C 212.174 240.610,213.003 239.305,213.243 238.700 C 213.482 238.095,213.821 237.600,213.996 237.600 C 214.170 237.600,214.601 236.880,214.953 236.000 C 215.305 235.120,215.736 234.400,215.909 234.400 C 216.083 234.400,216.447 233.905,216.720 233.300 C 216.992 232.695,217.661 231.480,218.206 230.600 C 219.158 229.064,219.927 227.649,221.680 224.211 C 222.125 223.337,222.718 222.437,222.997 222.211 C 223.276 221.985,223.616 221.318,223.753 220.728 C 223.889 220.138,224.238 219.418,224.528 219.128 C 224.817 218.838,225.259 218.010,225.510 217.288 C 225.761 216.567,226.244 215.699,226.583 215.360 C 226.923 215.020,227.200 214.431,227.200 214.049 C 227.200 213.668,227.650 212.745,228.200 212.000 C 228.750 211.255,229.200 210.419,229.200 210.143 C 229.200 209.868,229.622 208.848,230.139 207.877 C 230.655 206.905,231.191 205.771,231.330 205.355 C 231.469 204.940,232.216 203.460,232.991 202.066 C 233.766 200.673,234.400 199.217,234.400 198.832 C 234.400 197.761,237.248 194.288,237.731 194.771 C 237.972 195.012,238.167 199.125,238.222 205.086 C 238.312 215.005,238.842 221.783,239.645 223.284 C 239.880 223.723,240.230 225.188,240.424 226.541 C 240.617 227.893,241.141 229.713,241.588 230.585 C 242.034 231.456,242.400 232.559,242.400 233.036 C 242.400 233.512,242.661 234.118,242.980 234.383 C 243.298 234.648,243.762 235.480,244.011 236.232 C 244.259 236.984,244.606 237.600,244.782 237.600 C 244.959 237.600,245.308 238.095,245.559 238.700 C 246.336 240.570,252.761 246.800,253.913 246.800 C 254.122 246.800,254.721 247.137,255.246 247.548 C 255.771 247.959,257.010 248.486,258.000 248.718 C 258.990 248.950,260.610 249.440,261.600 249.807 C 264.130 250.745,277.545 250.519,279.437 249.506 C 280.118 249.142,281.600 248.721,282.730 248.571 C 283.861 248.421,284.990 248.053,285.240 247.752 C 285.489 247.452,286.431 247.007,287.333 246.764 C 288.234 246.522,289.407 245.980,289.940 245.561 C 290.472 245.143,291.170 244.800,291.491 244.800 C 291.811 244.800,292.552 244.431,293.137 243.980 C 298.178 240.093,299.537 238.994,300.444 238.067 C 302.018 236.458,305.600 231.552,305.600 231.005 C 305.600 230.740,305.938 230.218,306.352 229.844 C 306.765 229.469,307.224 228.411,307.371 227.492 C 307.518 226.573,307.945 225.483,308.319 225.069 C 308.897 224.430,309.000 223.403,309.000 218.259 L 309.000 212.200 307.639 210.508 C 305.753 208.162,303.196 207.722,302.587 209.640 C 302.455 210.058,302.157 210.400,301.926 210.400 C 301.695 210.400,300.808 211.120,299.954 212.000 C 299.100 212.880,298.300 213.600,298.177 213.600 C 298.053 213.600,296.456 214.860,294.627 216.400 C 292.799 217.940,291.159 219.200,290.985 219.200 C 290.810 219.200,290.382 219.474,290.034 219.810 C 288.933 220.869,286.421 222.379,285.290 222.663 C 284.690 222.813,283.660 223.264,283.000 223.666 C 281.094 224.827,277.070 224.683,275.458 223.396 C 272.739 221.226,271.600 219.742,271.600 218.367 C 271.600 217.711,271.307 216.505,270.949 215.687 C 270.133 213.825,269.343 199.860,268.836 178.372 C 268.447 161.881,268.175 157.657,267.373 155.699 C 267.080 154.984,266.656 153.401,266.430 152.181 C 266.205 150.961,265.746 149.689,265.411 149.354 C 265.076 149.018,264.682 148.262,264.536 147.672 C 264.390 147.082,263.940 146.365,263.535 146.077 C 263.131 145.790,262.800 145.371,262.800 145.147 C 262.800 144.653,260.601 142.400,260.120 142.400 C 259.932 142.400,259.470 142.040,259.093 141.600 C 258.716 141.160,258.001 140.794,257.504 140.786 C 257.007 140.778,256.150 140.514,255.600 140.200 C 254.494 139.568,248.989 139.371,248.630 139.951 C 248.511 140.144,247.634 140.498,246.680 140.738 C 245.727 140.978,244.616 141.540,244.212 141.987 C 243.807 142.434,243.234 142.800,242.938 142.800 C 242.642 142.800,242.400 143.038,242.400 143.328 C 242.400 143.618,241.950 144.247,241.400 144.725 C 240.850 145.203,240.400 145.844,240.400 146.148 C 240.400 146.453,240.115 146.938,239.767 147.227 C 239.419 147.516,238.834 148.341,238.467 149.060 C 238.100 149.780,236.990 151.924,236.000 153.825 C 235.010 155.725,233.966 157.758,233.679 158.340 C 233.393 158.923,232.984 159.670,232.771 160.000 C 232.558 160.330,232.113 161.230,231.782 162.000 C 231.451 162.770,231.001 163.670,230.782 164.000 C 230.563 164.330,230.097 165.230,229.747 166.000 C 229.397 166.770,228.985 167.490,228.832 167.600 C 228.680 167.710,228.310 168.430,228.011 169.200 C 227.713 169.970,227.249 170.870,226.981 171.200 C 226.714 171.530,226.378 172.184,226.235 172.652 C 226.093 173.121,225.622 173.914,225.188 174.414 C 224.755 174.913,224.400 175.644,224.400 176.038 C 224.400 176.431,224.205 176.873,223.967 177.020 C 223.729 177.168,223.181 178.033,222.750 178.944 C 221.604 181.364,220.810 182.920,220.374 183.600 C 220.163 183.930,219.639 184.965,219.209 185.900 C 218.780 186.835,218.242 187.600,218.014 187.600 C 217.786 187.600,217.597 187.915,217.594 188.300 C 217.591 188.685,217.327 189.450,217.008 190.000 C 216.688 190.550,216.063 191.720,215.617 192.600 C 213.978 195.839,211.499 200.218,210.957 200.831 C 210.651 201.179,210.400 201.632,210.400 201.839 C 210.400 202.045,209.950 202.877,209.400 203.686 C 208.850 204.495,208.400 205.443,208.400 205.791 C 208.400 206.140,208.144 206.523,207.831 206.643 C 207.518 206.763,206.980 207.568,206.634 208.431 C 206.289 209.294,205.825 210.000,205.603 210.000 C 205.381 210.000,205.197 210.225,205.193 210.500 C 205.185 210.997,203.334 214.041,202.327 215.212 C 202.037 215.549,201.488 216.494,201.106 217.312 C 200.725 218.131,200.230 218.800,200.006 218.800 C 199.783 218.800,199.600 219.048,199.600 219.351 C 199.600 219.654,199.315 220.138,198.967 220.427 C 198.619 220.716,198.034 221.514,197.667 222.202 C 196.439 224.501,195.124 226.400,194.760 226.400 C 194.562 226.400,194.400 226.655,194.400 226.966 C 194.400 227.277,194.042 227.952,193.604 228.466 C 193.165 228.980,192.272 230.120,191.617 231.000 C 189.398 233.985,189.001 234.494,188.330 235.217 C 187.962 235.614,187.439 236.354,187.167 236.861 C 186.664 237.801,184.974 239.679,181.400 243.272 C 176.693 248.003,170.982 248.231,168.836 243.774 C 168.525 243.128,168.119 242.330,167.934 242.000 C 166.697 239.793,166.636 239.160,166.667 228.800 C 166.693 220.035,166.816 217.819,167.376 216.000 C 167.749 214.790,168.290 212.090,168.579 210.000 C 168.869 207.910,169.389 205.480,169.735 204.600 C 170.081 203.720,170.373 202.231,170.382 201.290 C 170.392 200.350,170.760 198.556,171.200 197.304 C 171.640 196.052,172.000 194.656,172.000 194.201 C 172.000 193.746,172.276 192.390,172.613 191.187 C 172.950 189.984,173.500 187.740,173.834 186.200 C 174.168 184.660,174.703 182.833,175.021 182.140 C 175.339 181.446,175.608 180.366,175.618 179.740 C 175.627 179.113,175.913 177.880,176.253 177.000 C 176.593 176.120,177.123 174.178,177.430 172.685 C 177.737 171.192,178.151 169.662,178.349 169.285 C 178.548 168.908,178.927 167.520,179.192 166.200 C 179.457 164.880,179.898 163.440,180.173 163.000 C 180.449 162.560,180.792 161.318,180.937 160.240 C 181.082 159.162,181.477 157.727,181.815 157.050 C 182.152 156.374,182.602 154.594,182.815 153.096 C 183.027 151.598,183.460 149.753,183.776 148.996 C 185.494 144.883,185.357 126.742,183.590 124.496 C 183.155 123.944,182.800 123.183,182.800 122.805 C 182.800 121.964,178.909 117.600,178.159 117.600 C 177.862 117.600,177.030 117.241,176.310 116.801 C 175.027 116.020,169.008 115.701,166.600 116.288 " stroke="none" fill="#fbfaf9" fill-rule="evenodd"></path><path id="path2" d="M164.000 116.836 C 161.592 118.112,157.708 121.986,156.495 124.320 C 156.072 125.134,155.071 127.060,154.270 128.600 C 153.470 130.140,152.812 131.693,152.807 132.051 C 152.803 132.409,152.548 132.911,152.239 133.167 C 151.931 133.423,151.559 134.109,151.413 134.692 C 151.266 135.275,150.822 136.212,150.426 136.776 C 150.029 137.339,149.570 138.250,149.405 138.800 C 149.240 139.350,148.882 140.070,148.608 140.400 C 148.335 140.730,147.411 142.223,146.556 143.718 C 144.017 148.153,143.530 148.930,140.600 153.213 C 136.037 159.883,134.095 162.474,128.800 168.955 C 128.470 169.359,125.500 172.427,122.200 175.773 C 116.629 181.422,114.948 182.978,111.587 185.600 C 110.882 186.150,109.832 186.969,109.253 187.421 C 108.674 187.872,107.165 188.917,105.900 189.742 C 103.524 191.292,103.442 191.459,103.589 194.400 C 103.766 197.914,107.737 203.469,110.771 204.445 C 111.557 204.697,112.453 205.106,112.762 205.352 C 114.706 206.901,123.398 205.458,128.094 202.807 C 129.252 202.153,130.711 201.331,131.336 200.980 C 133.850 199.568,134.302 202.464,132.463 208.200 C 132.040 209.520,131.503 211.680,131.269 213.000 C 131.036 214.320,130.562 216.930,130.217 218.800 C 129.871 220.670,129.310 223.730,128.969 225.600 C 127.149 235.592,129.107 253.006,132.833 259.957 C 133.255 260.744,133.600 261.588,133.600 261.832 C 133.600 262.076,133.960 262.602,134.400 263.000 C 134.840 263.398,135.200 263.943,135.200 264.211 C 135.200 264.759,138.685 269.231,140.223 270.656 C 143.326 273.532,148.999 276.701,152.600 277.569 C 153.480 277.781,154.920 278.140,155.800 278.368 C 157.867 278.902,164.935 278.901,167.000 278.367 C 167.880 278.140,169.773 277.711,171.207 277.414 C 172.642 277.118,174.532 276.571,175.407 276.198 C 179.036 274.655,184.436 271.823,185.058 271.136 C 185.424 270.731,185.887 270.400,186.086 270.400 C 188.075 270.400,202.932 255.207,207.200 248.809 C 207.530 248.314,208.295 247.275,208.900 246.500 C 209.505 245.724,210.000 244.962,210.000 244.806 C 210.000 244.650,210.315 244.150,210.700 243.695 C 211.914 242.259,217.200 233.675,217.200 233.139 C 217.200 232.939,217.454 232.678,217.764 232.559 C 218.074 232.439,218.448 231.860,218.595 231.271 C 218.742 230.682,219.131 229.902,219.459 229.537 C 220.009 228.927,222.037 225.286,223.991 221.400 C 224.433 220.520,225.426 218.660,226.198 217.266 C 226.969 215.873,227.600 214.505,227.600 214.228 C 227.600 213.951,227.939 213.417,228.354 213.042 C 228.769 212.666,229.217 211.814,229.351 211.147 C 229.484 210.481,229.955 209.475,230.396 208.914 C 230.838 208.352,231.200 207.661,231.200 207.379 C 231.200 207.096,231.915 205.455,232.789 203.732 C 233.663 202.010,234.644 199.925,234.969 199.100 C 235.374 198.070,235.808 197.600,236.352 197.600 C 236.869 197.600,237.189 197.288,237.272 196.700 C 237.342 196.205,237.400 199.220,237.400 203.400 C 237.400 211.067,238.366 222.832,239.111 224.243 C 239.330 224.659,239.726 226.046,239.989 227.325 C 242.093 237.553,249.275 246.263,258.252 249.474 C 262.641 251.044,278.031 251.181,281.333 249.679 C 282.396 249.196,283.533 248.800,283.859 248.800 C 284.185 248.800,285.435 248.350,286.637 247.800 C 287.840 247.250,288.976 246.800,289.163 246.800 C 289.349 246.800,289.711 246.548,289.967 246.239 C 290.223 245.931,290.908 245.559,291.490 245.413 C 292.071 245.267,293.044 244.755,293.653 244.274 C 294.261 243.793,295.946 242.500,297.397 241.400 C 300.314 239.189,302.630 236.673,304.895 233.255 C 305.717 232.015,306.565 230.790,306.779 230.534 C 306.993 230.278,307.290 229.558,307.441 228.934 C 307.591 228.310,308.023 227.170,308.402 226.400 C 309.470 224.228,310.151 218.866,309.759 215.709 C 309.437 213.108,309.414 213.226,309.196 218.675 C 309.016 223.179,308.831 224.502,308.303 225.086 C 307.937 225.490,307.518 226.573,307.371 227.492 C 307.224 228.411,306.765 229.469,306.352 229.844 C 305.938 230.218,305.600 230.740,305.600 231.005 C 305.600 231.552,302.018 236.458,300.444 238.067 C 299.537 238.994,298.178 240.093,293.137 243.980 C 292.552 244.431,291.811 244.800,291.491 244.800 C 291.170 244.800,290.472 245.143,289.940 245.561 C 289.407 245.980,288.234 246.522,287.333 246.764 C 286.431 247.007,285.489 247.452,285.240 247.752 C 284.990 248.053,283.861 248.421,282.730 248.571 C 281.600 248.721,280.118 249.142,279.437 249.506 C 277.545 250.519,264.130 250.745,261.600 249.807 C 260.610 249.440,258.990 248.950,258.000 248.718 C 257.010 248.486,255.771 247.959,255.246 247.548 C 254.721 247.137,254.122 246.800,253.913 246.800 C 252.761 246.800,246.336 240.570,245.559 238.700 C 245.308 238.095,244.959 237.600,244.782 237.600 C 244.606 237.600,244.259 236.984,244.011 236.232 C 243.762 235.480,243.298 234.648,242.980 234.383 C 242.661 234.118,242.400 233.512,242.400 233.036 C 242.400 232.559,242.034 231.456,241.588 230.585 C 241.141 229.713,240.617 227.893,240.424 226.541 C 240.230 225.188,239.880 223.723,239.645 223.284 C 238.842 221.783,238.312 215.005,238.222 205.086 C 238.167 199.125,237.972 195.012,237.731 194.771 C 237.248 194.288,234.400 197.761,234.400 198.832 C 234.400 199.217,233.766 200.673,232.991 202.066 C 232.216 203.460,231.469 204.940,231.330 205.355 C 231.191 205.771,230.655 206.905,230.139 207.877 C 229.622 208.848,229.200 209.868,229.200 210.143 C 229.200 210.419,228.750 211.255,228.200 212.000 C 227.650 212.745,227.200 213.668,227.200 214.049 C 227.200 214.431,226.923 215.020,226.583 215.360 C 226.244 215.699,225.761 216.567,225.510 217.288 C 225.259 218.010,224.817 218.838,224.528 219.128 C 224.238 219.418,223.889 220.138,223.753 220.728 C 223.616 221.318,223.276 221.985,222.997 222.211 C 222.718 222.437,222.125 223.337,221.680 224.211 C 219.927 227.649,219.158 229.064,218.206 230.600 C 217.661 231.480,216.992 232.695,216.720 233.300 C 216.447 233.905,216.083 234.400,215.909 234.400 C 215.736 234.400,215.305 235.120,214.953 236.000 C 214.601 236.880,214.170 237.600,213.996 237.600 C 213.821 237.600,213.482 238.095,213.243 238.700 C 213.003 239.305,212.174 240.610,211.400 241.600 C 210.626 242.590,209.797 243.895,209.557 244.500 C 209.318 245.105,208.998 245.600,208.847 245.600 C 208.696 245.600,208.233 246.185,207.818 246.900 C 207.402 247.615,206.823 248.344,206.531 248.520 C 206.239 248.696,206.000 249.049,206.000 249.306 C 206.000 249.562,205.640 250.138,205.199 250.586 C 204.759 251.034,203.070 253.055,201.447 255.078 C 198.761 258.427,192.138 265.201,189.906 266.883 C 189.408 267.259,188.460 267.986,187.800 268.500 C 186.577 269.452,184.815 270.681,183.641 271.400 C 183.282 271.620,182.340 272.205,181.547 272.700 C 180.754 273.195,179.834 273.600,179.502 273.600 C 179.170 273.600,178.690 273.850,178.437 274.156 C 178.183 274.461,177.129 274.924,176.093 275.185 C 175.058 275.446,173.988 275.844,173.715 276.070 C 173.135 276.551,165.699 277.968,162.142 278.276 C 160.552 278.413,158.785 278.262,157.139 277.850 C 155.739 277.498,153.695 277.094,152.597 276.952 C 151.499 276.809,150.330 276.468,150.000 276.193 C 149.670 275.919,148.950 275.563,148.400 275.402 C 147.850 275.241,146.436 274.455,145.258 273.655 C 144.080 272.855,142.814 272.020,142.443 271.800 C 140.225 270.482,134.281 262.704,133.731 260.400 C 133.600 259.850,133.260 259.130,132.976 258.800 C 132.692 258.470,132.237 257.300,131.964 256.200 C 131.692 255.100,131.243 253.840,130.967 253.400 C 130.692 252.960,130.345 251.340,130.196 249.800 C 130.048 248.260,129.673 245.984,129.363 244.742 C 128.727 242.192,128.567 229.991,129.155 228.874 C 129.350 228.503,129.721 226.220,129.980 223.800 C 130.239 221.380,130.710 218.590,131.026 217.600 C 131.342 216.610,131.780 214.380,131.998 212.644 C 132.216 210.909,132.581 209.264,132.809 208.989 C 133.037 208.714,133.472 206.959,133.775 205.088 C 134.077 203.218,134.518 201.326,134.754 200.886 C 135.795 198.940,130.707 199.485,129.497 201.448 C 129.330 201.719,128.520 202.156,127.697 202.421 C 126.874 202.685,125.930 203.125,125.600 203.399 C 124.980 203.914,120.554 205.105,117.880 205.477 C 116.147 205.717,111.085 204.291,109.800 203.199 C 109.360 202.825,108.681 202.406,108.291 202.269 C 107.901 202.131,107.463 201.699,107.319 201.309 C 107.174 200.919,106.757 200.330,106.392 200.000 C 105.525 199.215,103.878 193.740,104.165 192.595 C 104.391 191.697,107.583 188.800,108.347 188.800 C 108.574 188.800,108.904 188.556,109.080 188.258 C 109.256 187.961,109.850 187.482,110.400 187.196 C 110.950 186.910,111.760 186.347,112.200 185.945 C 112.640 185.544,113.466 184.807,114.035 184.308 C 119.485 179.528,120.595 178.532,120.969 178.081 C 121.206 177.795,121.634 177.345,121.919 177.081 C 122.205 176.816,122.655 176.373,122.919 176.095 C 123.184 175.817,124.525 174.408,125.900 172.963 C 127.275 171.519,128.400 170.180,128.400 169.988 C 128.400 169.797,128.649 169.496,128.953 169.320 C 129.418 169.051,132.323 165.583,134.582 162.600 C 134.915 162.160,135.685 161.143,136.294 160.340 C 138.025 158.055,138.919 156.804,139.377 156.025 C 140.137 154.733,141.386 153.028,142.100 152.307 C 142.485 151.918,142.800 151.352,142.800 151.049 C 142.800 150.746,143.080 150.265,143.423 149.981 C 143.766 149.696,144.309 148.909,144.630 148.232 C 145.383 146.644,146.532 144.656,146.844 144.400 C 146.978 144.290,147.405 143.570,147.792 142.800 C 148.180 142.030,148.723 141.130,149.001 140.800 C 149.278 140.470,149.641 139.750,149.808 139.200 C 149.974 138.650,150.445 137.771,150.855 137.246 C 151.265 136.721,151.600 136.030,151.600 135.709 C 151.600 135.389,151.955 134.675,152.389 134.123 C 152.824 133.570,153.294 132.507,153.434 131.759 C 153.574 131.012,153.842 130.400,154.028 130.400 C 154.215 130.400,154.585 129.635,154.850 128.700 C 155.114 127.765,155.553 126.814,155.824 126.586 C 156.095 126.359,156.597 125.504,156.938 124.686 C 157.280 123.869,157.736 123.200,157.953 123.200 C 158.169 123.200,158.451 122.871,158.578 122.468 C 158.944 121.316,162.370 118.094,163.540 117.802 C 164.123 117.657,164.931 117.239,165.336 116.874 C 166.591 115.743,174.356 115.659,176.215 116.756 C 177.002 117.220,177.883 117.600,178.172 117.600 C 178.913 117.600,182.800 121.972,182.800 122.805 C 182.800 123.183,183.155 123.944,183.590 124.496 C 185.357 126.742,185.494 144.883,183.776 148.996 C 183.460 149.753,183.027 151.598,182.815 153.096 C 182.602 154.594,182.152 156.374,181.815 157.050 C 181.477 157.727,181.082 159.162,180.937 160.240 C 180.792 161.318,180.449 162.560,180.173 163.000 C 179.898 163.440,179.457 164.880,179.192 166.200 C 178.927 167.520,178.548 168.908,178.349 169.285 C 178.151 169.662,177.737 171.192,177.430 172.685 C 177.123 174.178,176.593 176.120,176.253 177.000 C 175.913 177.880,175.627 179.113,175.618 179.740 C 175.608 180.366,175.339 181.446,175.021 182.140 C 174.703 182.833,174.168 184.660,173.834 186.200 C 173.500 187.740,172.950 189.984,172.613 191.187 C 172.276 192.390,172.000 193.746,172.000 194.201 C 172.000 194.656,171.640 196.052,171.200 197.304 C 170.760 198.556,170.392 200.350,170.382 201.290 C 170.373 202.231,170.081 203.720,169.735 204.600 C 169.389 205.480,168.869 207.910,168.579 210.000 C 168.290 212.090,167.749 214.790,167.376 216.000 C 166.816 217.819,166.693 220.035,166.667 228.800 C 166.636 239.160,166.697 239.793,167.934 242.000 C 168.119 242.330,168.525 243.128,168.836 243.774 C 170.982 248.231,176.693 248.003,181.400 243.272 C 184.974 239.679,186.664 237.801,187.167 236.861 C 187.439 236.354,187.962 235.614,188.330 235.217 C 189.001 234.494,189.398 233.985,191.617 231.000 C 192.272 230.120,193.165 228.980,193.604 228.466 C 194.042 227.952,194.400 227.277,194.400 226.966 C 194.400 226.655,194.562 226.400,194.760 226.400 C 195.124 226.400,196.439 224.501,197.667 222.202 C 198.034 221.514,198.619 220.716,198.967 220.427 C 199.315 220.138,199.600 219.654,199.600 219.351 C 199.600 219.048,199.783 218.800,200.006 218.800 C 200.230 218.800,200.725 218.131,201.106 217.312 C 201.488 216.494,202.037 215.549,202.327 215.212 C 203.334 214.041,205.185 210.997,205.193 210.500 C 205.197 210.225,205.381 210.000,205.603 210.000 C 205.825 210.000,206.289 209.294,206.634 208.431 C 206.980 207.568,207.518 206.763,207.831 206.643 C 208.144 206.523,208.400 206.140,208.400 205.791 C 208.400 205.443,208.850 204.495,209.400 203.686 C 209.950 202.877,210.400 202.045,210.400 201.839 C 210.400 201.632,210.651 201.179,210.957 200.831 C 211.499 200.218,213.978 195.839,215.617 192.600 C 216.063 191.720,216.688 190.550,217.008 190.000 C 217.327 189.450,217.591 188.685,217.594 188.300 C 217.597 187.915,217.786 187.600,218.014 187.600 C 218.242 187.600,218.790 186.835,219.232 185.900 C 220.384 183.462,221.185 181.889,221.626 181.200 C 221.837 180.870,222.353 179.855,222.772 178.944 C 223.191 178.033,223.729 177.168,223.967 177.020 C 224.205 176.873,224.400 176.431,224.400 176.038 C 224.400 175.644,224.755 174.913,225.188 174.414 C 225.622 173.914,226.093 173.121,226.235 172.652 C 226.378 172.184,226.714 171.530,226.981 171.200 C 227.249 170.870,227.713 169.970,228.011 169.200 C 228.310 168.430,228.680 167.710,228.832 167.600 C 228.985 167.490,229.397 166.770,229.747 166.000 C 230.097 165.230,230.563 164.330,230.782 164.000 C 231.001 163.670,231.461 162.770,231.805 162.000 C 232.553 160.322,233.504 158.424,234.010 157.600 C 234.331 157.077,236.375 153.161,238.467 149.060 C 238.834 148.341,239.419 147.516,239.767 147.227 C 240.115 146.938,240.400 146.453,240.400 146.148 C 240.400 145.844,240.850 145.203,241.400 144.725 C 241.950 144.247,242.400 143.618,242.400 143.328 C 242.400 143.038,242.642 142.800,242.938 142.800 C 243.234 142.800,243.807 142.434,244.212 141.987 C 244.616 141.540,245.727 140.978,246.680 140.738 C 247.634 140.498,248.511 140.144,248.630 139.951 C 248.989 139.371,254.494 139.568,255.600 140.200 C 256.150 140.514,257.007 140.778,257.504 140.786 C 258.001 140.794,258.716 141.160,259.093 141.600 C 259.470 142.040,259.932 142.400,260.120 142.400 C 260.601 142.400,262.800 144.653,262.800 145.147 C 262.800 145.371,263.131 145.790,263.535 146.077 C 263.940 146.365,264.390 147.082,264.536 147.672 C 264.682 148.262,265.076 149.018,265.411 149.354 C 265.746 149.689,266.205 150.961,266.430 152.181 C 266.656 153.401,267.080 154.984,267.373 155.699 C 268.175 157.657,268.447 161.881,268.836 178.372 C 269.343 199.860,270.133 213.825,270.949 215.687 C 271.307 216.505,271.600 217.711,271.600 218.367 C 271.600 219.742,272.739 221.226,275.458 223.396 C 277.070 224.683,281.094 224.827,283.000 223.666 C 283.660 223.264,284.690 222.813,285.290 222.663 C 286.421 222.379,288.933 220.869,290.034 219.810 C 290.382 219.474,290.810 219.200,290.985 219.200 C 291.159 219.200,292.799 217.940,294.627 216.400 C 296.456 214.860,298.053 213.600,298.177 213.600 C 298.300 213.600,299.100 212.880,299.954 212.000 C 300.808 211.120,301.695 210.400,301.926 210.400 C 302.157 210.400,302.455 210.058,302.587 209.640 C 303.375 207.159,307.328 208.886,308.872 212.384 C 309.097 212.893,309.149 212.875,309.172 212.279 C 309.303 208.917,304.125 206.839,302.000 209.401 C 300.546 211.153,288.243 220.800,287.462 220.800 C 287.299 220.800,286.780 221.160,286.308 221.600 C 285.836 222.040,285.114 222.400,284.705 222.400 C 284.295 222.400,283.420 222.680,282.759 223.021 C 280.965 223.949,277.997 224.155,276.800 223.435 C 276.250 223.105,275.390 222.649,274.890 222.423 C 274.389 222.197,273.867 221.694,273.729 221.306 C 273.591 220.918,273.232 220.311,272.930 219.958 C 272.628 219.605,272.106 217.998,271.771 216.387 C 271.435 214.777,271.080 213.330,270.983 213.172 C 270.644 212.625,269.937 196.115,269.605 181.000 C 269.254 165.038,268.700 157.268,267.724 154.600 C 267.402 153.720,266.976 152.222,266.776 151.272 C 266.577 150.321,266.051 149.082,265.607 148.518 C 265.163 147.954,264.800 147.285,264.800 147.033 C 264.800 145.814,259.992 140.922,258.400 140.519 C 257.850 140.381,256.680 139.941,255.800 139.542 C 249.832 136.839,242.609 140.662,237.931 149.000 C 237.157 150.380,234.216 156.024,233.346 157.800 C 233.023 158.460,232.591 159.270,232.386 159.600 C 232.182 159.930,231.277 161.640,230.377 163.400 C 229.477 165.160,228.249 167.500,227.647 168.600 C 225.828 171.930,221.569 180.013,219.956 183.200 C 219.120 184.850,218.289 186.380,218.108 186.600 C 217.927 186.820,217.093 188.350,216.256 190.000 C 214.474 193.510,213.969 194.427,209.539 202.200 C 209.163 202.860,208.651 203.847,208.402 204.394 C 208.152 204.941,207.150 206.600,206.174 208.081 C 205.198 209.562,204.400 210.932,204.400 211.125 C 204.400 211.318,204.040 211.802,203.600 212.200 C 203.160 212.598,202.800 213.138,202.800 213.400 C 202.800 213.661,202.350 214.399,201.800 215.038 C 201.251 215.677,200.801 216.326,200.800 216.480 C 200.800 216.634,200.215 217.595,199.500 218.615 C 198.785 219.636,198.014 220.770,197.788 221.135 C 196.510 223.194,194.341 226.392,193.344 227.684 C 192.715 228.499,191.750 229.809,191.200 230.593 C 190.249 231.949,189.027 233.482,187.848 234.800 C 187.552 235.130,187.123 235.760,186.893 236.200 C 185.616 238.646,179.419 244.734,177.269 245.656 C 173.897 247.101,168.800 245.162,168.800 242.434 C 168.800 242.073,168.532 241.395,168.204 240.927 C 166.479 238.465,166.350 222.480,168.010 217.000 C 168.210 216.340,168.565 214.180,168.800 212.200 C 169.034 210.220,169.480 207.790,169.792 206.800 C 170.103 205.810,170.475 204.100,170.617 203.000 C 170.760 201.900,171.220 199.856,171.638 198.458 C 172.057 197.060,172.400 195.515,172.400 195.025 C 172.400 194.535,172.734 192.979,173.143 191.567 C 174.065 188.384,175.047 184.595,175.824 181.229 C 176.150 179.815,176.674 177.835,176.989 176.829 C 177.303 175.823,178.029 173.200,178.603 171.000 C 179.177 168.800,179.996 165.830,180.424 164.400 C 180.852 162.970,181.317 161.170,181.457 160.400 C 181.598 159.630,181.898 158.640,182.124 158.200 C 182.350 157.760,182.754 156.320,183.022 155.000 C 183.290 153.680,183.791 151.430,184.137 150.000 C 188.080 133.671,185.501 120.706,177.513 116.700 C 174.201 115.039,167.258 115.109,164.000 116.836 " stroke="none" fill="#000000" fill-rule="evenodd"></path><path id="path3" d="M165.684 115.194 C 164.960 115.365,164.045 115.797,163.652 116.153 C 163.259 116.509,162.732 116.800,162.481 116.800 C 161.814 116.800,157.600 120.823,157.600 121.459 C 157.600 121.757,157.422 122.000,157.205 122.000 C 156.988 122.000,156.566 122.585,156.267 123.300 C 155.968 124.015,155.426 124.847,155.062 125.149 C 154.698 125.451,154.400 126.098,154.400 126.587 C 154.400 127.076,154.050 127.793,153.623 128.179 C 153.195 128.566,152.727 129.423,152.582 130.084 C 152.305 131.341,150.586 134.970,149.778 136.000 C 149.519 136.330,149.198 137.062,149.065 137.626 C 148.931 138.191,148.457 139.073,148.011 139.587 C 147.565 140.102,147.200 140.827,147.200 141.199 C 147.200 141.571,146.856 142.187,146.436 142.567 C 146.016 142.948,145.553 143.733,145.408 144.312 C 145.262 144.891,144.796 145.607,144.372 145.905 C 143.947 146.202,143.600 146.782,143.600 147.194 C 143.600 147.606,143.285 148.257,142.900 148.642 C 142.515 149.026,141.631 150.254,140.936 151.370 C 140.241 152.487,139.386 153.715,139.036 154.100 C 138.686 154.485,138.400 154.954,138.400 155.142 C 138.400 155.329,137.995 155.946,137.500 156.511 C 137.005 157.076,136.150 158.200,135.600 159.008 C 135.050 159.816,134.285 160.770,133.900 161.128 C 133.515 161.485,133.200 161.975,133.200 162.217 C 133.200 162.458,132.795 163.036,132.300 163.501 C 131.805 163.966,130.950 164.931,130.400 165.647 C 129.850 166.362,128.995 167.373,128.500 167.892 C 128.005 168.411,127.600 169.069,127.600 169.354 C 127.600 169.639,127.150 170.077,126.600 170.327 C 126.050 170.578,125.600 170.959,125.600 171.174 C 125.600 171.594,116.792 180.467,115.051 181.800 C 113.799 182.760,112.975 183.410,111.000 185.000 C 108.064 187.363,107.371 187.872,105.289 189.202 C 104.040 189.999,103.081 190.933,102.942 191.489 C 102.545 193.071,103.006 197.121,103.671 197.885 C 104.013 198.278,104.409 199.090,104.551 199.688 C 104.693 200.287,105.167 200.968,105.605 201.203 C 106.042 201.437,106.400 201.880,106.400 202.187 C 106.400 202.495,106.760 202.860,107.200 203.000 C 107.641 203.140,108.176 203.581,108.390 203.981 C 108.604 204.381,109.279 204.833,109.889 204.985 C 110.500 205.138,111.327 205.557,111.728 205.918 C 112.929 207.001,121.664 206.817,123.794 205.663 C 124.671 205.189,125.768 204.800,126.232 204.800 C 126.696 204.800,127.402 204.440,127.800 204.000 C 128.198 203.560,128.711 203.200,128.940 203.200 C 129.170 203.200,130.031 202.733,130.855 202.162 C 133.160 200.564,134.024 202.944,132.191 205.841 C 131.898 206.303,131.467 208.066,131.231 209.757 C 130.996 211.449,130.554 213.321,130.248 213.917 C 129.943 214.512,129.569 216.530,129.418 218.400 C 129.267 220.270,128.841 222.430,128.471 223.200 C 127.460 225.310,127.465 247.507,128.478 249.600 C 128.850 250.370,129.277 251.900,129.425 253.000 C 129.573 254.100,130.033 255.561,130.447 256.247 C 130.861 256.933,131.200 257.854,131.200 258.293 C 131.200 258.733,131.535 259.521,131.945 260.046 C 132.355 260.571,132.823 261.424,132.985 261.941 C 133.458 263.449,135.834 266.955,137.500 268.602 C 137.995 269.091,138.400 269.696,138.400 269.946 C 138.400 270.196,138.543 270.400,138.717 270.400 C 138.891 270.400,139.926 271.209,141.017 272.198 C 142.108 273.187,143.121 273.997,143.269 273.998 C 143.417 273.999,144.047 274.425,144.669 274.945 C 145.291 275.465,146.250 276.026,146.800 276.193 C 147.350 276.359,148.070 276.724,148.400 277.004 C 148.730 277.284,149.806 277.645,150.791 277.807 C 151.776 277.969,153.029 278.393,153.574 278.751 C 155.073 279.732,168.168 279.707,169.674 278.720 C 170.245 278.345,171.677 277.914,172.856 277.761 C 174.035 277.607,175.429 277.149,175.954 276.741 C 176.479 276.333,177.309 276.000,177.800 276.000 C 178.291 276.000,179.150 275.640,179.709 275.200 C 180.269 274.760,181.004 274.400,181.342 274.400 C 181.681 274.400,182.444 273.950,183.038 273.400 C 183.631 272.850,184.333 272.400,184.596 272.400 C 184.860 272.400,185.398 272.045,185.791 271.610 C 186.184 271.176,186.841 270.714,187.252 270.583 C 187.663 270.453,188.799 269.594,189.777 268.673 C 190.755 267.753,192.017 266.640,192.582 266.200 C 193.551 265.444,194.246 264.780,197.600 261.403 C 198.370 260.628,199.495 259.500,200.100 258.897 C 200.704 258.294,201.199 257.684,201.200 257.542 C 201.200 257.400,201.965 256.463,202.900 255.460 C 204.831 253.387,208.057 249.044,208.487 247.939 C 208.645 247.532,208.930 247.200,209.120 247.200 C 209.531 247.200,212.000 243.478,212.000 242.858 C 212.000 242.622,212.360 242.235,212.800 242.000 C 213.240 241.765,213.600 241.322,213.600 241.017 C 213.600 240.711,214.050 239.927,214.600 239.273 C 215.150 238.619,215.600 237.790,215.600 237.430 C 215.600 237.070,215.854 236.678,216.163 236.559 C 216.473 236.440,216.962 235.770,217.249 235.071 C 217.536 234.372,218.092 233.451,218.485 233.025 C 218.878 232.598,219.200 231.936,219.200 231.553 C 219.200 231.170,219.502 230.555,219.872 230.185 C 220.577 229.480,221.490 227.940,222.581 225.615 C 222.938 224.853,223.509 223.921,223.850 223.544 C 224.191 223.168,224.409 222.572,224.335 222.221 C 224.260 221.865,223.235 223.310,222.017 225.491 C 220.816 227.641,219.691 229.460,219.517 229.533 C 219.343 229.607,219.200 229.872,219.200 230.124 C 219.200 230.863,211.218 243.758,209.001 246.600 C 208.658 247.040,207.390 248.720,206.183 250.334 C 201.668 256.370,198.144 260.334,193.129 265.014 C 189.625 268.284,184.786 272.000,184.031 272.000 C 183.848 272.000,183.493 272.247,183.243 272.548 C 181.394 274.776,169.756 278.523,163.400 278.936 C 152.269 279.661,139.952 273.495,135.163 264.800 C 134.739 264.030,134.228 263.130,134.028 262.800 C 133.218 261.461,131.600 257.987,131.600 257.585 C 131.600 257.349,131.253 256.394,130.828 255.462 C 130.404 254.530,129.753 252.155,129.382 250.184 C 127.312 239.181,127.551 230.111,130.247 217.400 C 130.573 215.860,131.098 213.165,131.412 211.412 C 131.726 209.659,132.236 207.589,132.544 206.812 C 133.537 204.311,133.782 201.245,133.012 200.949 C 132.320 200.684,131.897 200.863,128.600 202.818 C 126.281 204.193,126.607 204.054,123.000 205.224 C 115.478 207.665,106.757 204.529,104.830 198.689 C 104.561 197.876,104.196 197.121,104.017 197.010 C 103.540 196.716,103.107 193.333,103.385 192.080 C 103.553 191.327,104.423 190.455,106.257 189.200 C 107.704 188.210,109.274 187.133,109.744 186.806 C 113.370 184.290,120.306 177.866,126.227 171.538 C 128.482 169.128,134.593 161.472,137.000 158.039 C 138.100 156.471,139.270 154.842,139.600 154.419 C 139.930 153.996,141.010 152.352,142.000 150.765 C 142.990 149.177,144.216 147.251,144.725 146.484 C 145.235 145.717,146.187 144.086,146.841 142.859 C 147.496 141.632,148.281 140.352,148.585 140.014 C 148.889 139.676,149.259 138.912,149.408 138.316 C 149.557 137.720,149.931 137.023,150.239 136.767 C 150.548 136.511,150.800 136.102,150.800 135.857 C 150.800 135.275,153.329 129.946,156.090 124.709 C 162.370 112.800,177.994 111.755,183.755 122.860 C 187.277 129.648,186.535 146.917,182.210 158.800 C 181.613 160.439,180.032 165.984,179.585 168.000 C 178.868 171.240,177.194 177.265,176.812 177.977 C 176.585 178.401,176.421 179.164,176.446 179.674 C 176.486 180.458,176.523 180.482,176.690 179.828 C 176.798 179.404,177.119 178.824,177.404 178.539 C 177.689 178.254,178.051 177.071,178.208 175.910 C 178.365 174.750,178.718 173.350,178.993 172.800 C 179.267 172.250,179.724 170.540,180.007 169.000 C 180.290 167.460,180.744 165.840,181.015 165.400 C 181.286 164.960,181.627 163.639,181.773 162.464 C 181.918 161.289,182.389 159.672,182.819 158.870 C 183.248 158.068,183.600 156.831,183.600 156.121 C 183.600 155.411,183.938 153.968,184.352 152.915 C 184.765 151.862,185.231 149.650,185.387 148.000 C 185.543 146.350,185.925 144.229,186.235 143.286 C 187.009 140.937,187.022 129.834,186.252 128.359 C 185.953 127.786,185.585 126.494,185.434 125.487 C 185.283 124.480,184.809 123.210,184.380 122.665 C 183.951 122.120,183.600 121.515,183.600 121.322 C 183.600 120.699,179.707 116.800,179.085 116.800 C 178.756 116.800,178.389 116.548,178.270 116.239 C 177.808 115.034,169.330 114.330,165.684 115.194 M245.580 139.503 C 243.745 140.609,242.764 141.358,241.881 142.328 C 241.616 142.618,240.995 143.235,240.500 143.700 C 240.005 144.164,239.600 144.773,239.600 145.052 C 239.600 145.332,239.350 145.704,239.045 145.880 C 238.522 146.182,237.669 147.638,236.186 150.758 C 235.831 151.505,235.284 152.373,234.970 152.687 C 234.657 153.001,234.400 153.569,234.400 153.951 C 234.400 154.332,233.950 155.255,233.400 156.000 C 232.850 156.745,232.400 157.670,232.400 158.054 C 232.400 158.438,232.205 158.873,231.967 159.020 C 231.729 159.168,231.204 160.058,230.800 161.000 C 230.396 161.942,229.871 162.832,229.633 162.980 C 229.395 163.127,229.200 163.583,229.200 163.993 C 229.200 164.403,228.750 165.273,228.200 165.927 C 227.650 166.581,227.200 167.380,227.200 167.704 C 227.200 168.027,226.865 168.721,226.455 169.246 C 226.045 169.771,225.578 170.623,225.416 171.139 C 225.254 171.656,224.779 172.421,224.361 172.839 C 223.942 173.258,223.600 174.022,223.600 174.538 C 223.600 175.054,223.250 175.793,222.823 176.179 C 222.395 176.566,221.934 177.389,221.798 178.008 C 221.662 178.627,221.309 179.226,221.013 179.340 C 220.717 179.453,220.357 180.083,220.213 180.740 C 220.069 181.397,219.602 182.337,219.175 182.828 C 218.749 183.320,218.400 184.000,218.400 184.340 C 218.400 184.679,217.991 185.597,217.490 186.378 C 215.897 188.867,215.607 189.366,214.800 191.000 C 214.366 191.880,213.847 192.870,213.648 193.200 C 213.448 193.530,213.074 194.250,212.816 194.800 C 212.002 196.535,210.895 198.431,210.291 199.128 C 209.970 199.497,209.589 200.300,209.444 200.910 C 209.298 201.521,208.824 202.376,208.390 202.810 C 207.955 203.245,207.600 203.949,207.600 204.376 C 207.600 204.803,207.424 205.261,207.210 205.394 C 206.670 205.727,204.000 209.792,204.000 210.279 C 204.000 210.498,203.640 211.002,203.200 211.400 C 202.760 211.798,202.400 212.357,202.400 212.641 C 202.400 212.926,201.950 213.644,201.400 214.238 C 200.850 214.831,200.400 215.490,200.400 215.701 C 200.400 215.912,199.950 216.619,199.400 217.273 C 198.850 217.927,198.400 218.718,198.400 219.031 C 198.400 219.344,198.211 219.600,197.981 219.600 C 197.750 219.600,197.345 220.103,197.081 220.718 C 196.816 221.333,196.367 222.098,196.083 222.418 C 195.798 222.738,194.988 223.908,194.283 225.018 C 193.577 226.128,192.781 227.298,192.514 227.618 C 192.247 227.938,191.482 228.854,190.814 229.653 C 190.146 230.452,189.600 231.290,189.600 231.516 C 189.600 231.741,188.969 232.618,188.198 233.463 C 187.426 234.308,185.696 236.350,184.352 238.000 C 183.008 239.650,181.659 241.144,181.354 241.320 C 181.049 241.496,180.799 241.856,180.797 242.120 C 180.796 242.384,180.220 242.960,179.517 243.400 C 178.814 243.840,177.870 244.432,177.419 244.716 C 174.579 246.506,170.095 244.537,169.175 241.094 C 168.926 240.162,168.514 239.148,168.261 238.839 C 167.353 237.734,167.408 224.582,168.339 220.116 C 168.788 217.962,169.271 214.801,169.413 213.091 C 169.554 211.382,169.907 209.492,170.198 208.891 C 170.488 208.291,170.849 206.450,171.001 204.800 C 171.152 203.150,171.534 201.393,171.849 200.896 C 172.165 200.399,172.609 198.511,172.836 196.701 C 173.063 194.890,173.494 193.137,173.794 192.804 C 174.094 192.472,174.469 191.030,174.628 189.600 C 174.787 188.170,175.251 186.373,175.659 185.606 C 176.099 184.777,176.381 183.479,176.352 182.406 L 176.305 180.600 175.852 182.400 C 175.604 183.390,175.277 184.389,175.126 184.620 C 174.975 184.852,174.637 186.292,174.375 187.820 C 174.113 189.349,173.670 191.050,173.390 191.600 C 173.111 192.151,172.751 193.681,172.590 195.000 C 172.429 196.320,171.977 198.300,171.586 199.400 C 171.195 200.500,170.755 202.561,170.608 203.980 C 170.462 205.400,170.165 206.891,169.950 207.294 C 169.734 207.698,169.301 209.979,168.987 212.365 C 168.674 214.751,168.212 217.219,167.961 217.851 C 167.343 219.408,166.992 236.095,167.534 238.200 C 170.706 250.531,179.204 248.125,190.000 231.838 C 190.330 231.340,190.915 230.620,191.300 230.238 C 191.685 229.856,192.000 229.410,192.000 229.247 C 192.000 229.084,192.318 228.602,192.708 228.175 C 193.097 227.749,194.359 225.960,195.514 224.200 C 198.510 219.631,198.490 219.661,199.700 217.956 C 200.305 217.104,200.800 216.296,200.800 216.161 C 200.800 216.026,201.250 215.381,201.800 214.727 C 202.350 214.073,202.800 213.310,202.800 213.031 C 202.800 212.752,203.160 212.198,203.600 211.800 C 204.040 211.402,204.400 210.918,204.400 210.725 C 204.400 210.532,205.187 209.165,206.149 207.687 C 208.017 204.816,208.760 203.484,209.820 201.100 C 210.187 200.275,210.630 199.600,210.804 199.600 C 210.979 199.600,211.315 199.105,211.551 198.500 C 211.787 197.895,212.607 196.320,213.372 195.000 C 214.137 193.680,215.410 191.340,216.201 189.800 C 218.513 185.299,225.613 171.912,227.656 168.200 C 228.262 167.100,228.947 165.750,229.178 165.200 C 229.410 164.650,229.775 163.930,229.989 163.600 C 230.203 163.270,231.117 161.560,232.019 159.800 C 238.252 147.641,239.854 144.960,242.324 142.554 C 248.038 136.988,256.958 137.471,262.549 143.649 C 263.787 145.017,264.800 146.295,264.800 146.489 C 264.800 146.684,265.250 147.505,265.800 148.314 C 266.350 149.123,266.800 150.171,266.800 150.642 C 266.800 151.113,267.145 152.286,267.567 153.249 C 268.012 154.265,268.520 156.848,268.775 159.400 C 269.017 161.820,269.389 165.420,269.601 167.400 C 269.812 169.380,269.993 175.680,270.003 181.400 C 270.027 196.559,270.677 209.852,271.607 214.200 L 272.377 217.800 272.183 214.000 C 272.077 211.910,271.725 209.210,271.401 208.000 C 270.936 206.261,270.762 201.445,270.571 185.000 C 270.386 169.140,270.195 163.646,269.764 161.866 C 269.453 160.583,269.088 158.243,268.952 156.666 C 268.817 155.090,268.482 153.440,268.210 153.000 C 267.937 152.560,267.413 151.165,267.046 149.900 C 266.678 148.635,266.239 147.600,266.069 147.600 C 265.900 147.600,265.547 147.009,265.286 146.287 C 264.675 144.598,261.009 140.874,259.200 140.105 C 258.430 139.778,257.672 139.305,257.515 139.055 C 256.827 137.954,247.573 138.301,245.580 139.503 M235.149 199.069 C 234.894 199.691,233.901 201.851,232.943 203.869 C 231.984 205.887,231.200 207.708,231.200 207.915 C 231.200 208.123,230.867 208.721,230.461 209.246 C 230.055 209.771,229.590 210.738,229.429 211.396 C 229.268 212.054,228.998 212.684,228.829 212.796 C 228.659 212.908,227.754 214.577,226.817 216.503 C 225.880 218.430,224.952 220.106,224.756 220.227 C 224.560 220.348,224.406 220.662,224.413 220.924 C 224.431 221.601,226.400 219.277,226.400 218.578 C 226.400 218.260,226.760 217.640,227.200 217.200 C 227.640 216.760,228.000 216.064,228.000 215.654 C 228.000 215.244,228.333 214.479,228.739 213.954 C 229.145 213.429,229.607 212.474,229.764 211.832 C 229.921 211.189,230.398 210.220,230.825 209.678 C 231.251 209.136,231.600 208.378,231.600 207.995 C 231.600 207.612,231.869 207.075,232.198 206.802 C 232.527 206.528,233.013 205.561,233.279 204.653 C 233.544 203.744,233.917 202.892,234.107 202.760 C 234.297 202.628,234.666 201.900,234.927 201.143 C 235.911 198.280,236.198 199.333,236.415 206.600 C 236.534 210.560,236.843 214.970,237.102 216.400 C 237.361 217.830,237.759 220.511,237.985 222.357 C 238.211 224.203,238.584 225.939,238.812 226.215 C 239.041 226.491,239.397 227.750,239.602 229.013 C 239.808 230.277,240.259 231.623,240.605 232.006 C 240.951 232.388,241.339 233.345,241.467 234.133 C 241.595 234.921,242.037 235.871,242.450 236.245 C 242.862 236.618,243.200 237.245,243.200 237.638 C 243.200 238.031,243.387 238.469,243.616 238.610 C 243.845 238.751,244.458 239.527,244.978 240.334 C 246.584 242.827,251.610 247.582,252.651 247.595 C 252.899 247.598,253.325 247.869,253.598 248.198 C 253.872 248.527,254.839 249.008,255.747 249.267 C 256.656 249.526,257.670 249.963,258.000 250.239 C 260.237 252.106,280.130 252.072,282.400 250.197 C 282.730 249.924,283.710 249.574,284.578 249.418 C 285.445 249.262,286.885 248.759,287.778 248.299 C 288.670 247.839,289.760 247.278,290.200 247.051 C 290.640 246.824,291.593 246.331,292.317 245.954 C 294.176 244.987,298.800 241.545,298.800 241.128 C 298.800 240.937,299.250 240.609,299.800 240.400 C 300.350 240.191,300.800 239.757,300.800 239.437 C 300.800 239.116,301.160 238.740,301.600 238.600 C 302.040 238.460,302.400 238.205,302.400 238.032 C 302.400 237.860,302.895 237.175,303.500 236.510 C 305.225 234.615,306.015 233.472,306.253 232.529 C 306.373 232.050,306.717 231.564,307.015 231.450 C 307.314 231.335,307.762 230.485,308.011 229.560 C 308.260 228.636,308.693 227.650,308.973 227.370 C 309.253 227.089,309.603 225.841,309.749 224.596 C 309.895 223.350,310.282 221.816,310.608 221.185 C 311.472 219.513,311.359 216.023,310.373 213.944 L 309.545 212.200 309.857 214.000 C 310.550 218.000,309.881 223.900,308.381 227.026 C 307.951 227.921,307.600 228.873,307.600 229.142 C 307.600 229.412,307.271 230.120,306.870 230.716 C 306.468 231.312,305.536 232.700,304.799 233.800 C 302.620 237.050,296.065 243.600,294.991 243.600 C 294.857 243.600,294.157 244.050,293.436 244.600 C 292.714 245.150,291.849 245.600,291.511 245.600 C 291.174 245.600,290.680 245.863,290.413 246.185 C 290.146 246.506,289.539 246.885,289.064 247.026 C 288.589 247.167,287.480 247.597,286.600 247.982 C 275.423 252.863,260.033 252.205,252.044 246.503 C 246.841 242.791,245.049 240.349,240.959 231.400 C 240.658 230.740,240.207 229.210,239.958 228.000 C 239.708 226.790,239.322 225.453,239.100 225.029 C 238.484 223.854,237.162 211.789,236.864 204.632 C 236.592 198.080,236.146 196.632,235.149 199.069 M303.534 207.339 C 302.589 207.759,301.434 208.751,298.225 211.900 C 297.721 212.395,297.181 212.800,297.025 212.800 C 296.630 212.800,291.472 217.186,291.080 217.855 C 290.904 218.155,290.431 218.400,290.029 218.400 C 289.627 218.400,289.051 218.698,288.749 219.062 C 288.447 219.426,287.615 219.968,286.900 220.267 C 286.185 220.566,285.600 220.964,285.600 221.151 C 285.600 221.338,284.515 221.721,283.188 222.002 C 281.862 222.284,280.681 222.669,280.565 222.857 C 279.886 223.955,274.642 222.060,274.243 220.574 C 273.978 219.583,272.400 217.678,272.400 218.347 C 272.400 220.447,276.263 223.600,278.835 223.600 C 281.605 223.600,289.600 220.263,289.600 219.107 C 289.600 218.938,289.857 218.800,290.171 218.800 C 290.486 218.800,291.034 218.509,291.390 218.153 C 292.211 217.332,294.667 215.297,296.402 214.000 C 298.095 212.735,301.097 210.069,302.124 208.920 C 304.110 206.696,307.996 208.146,309.309 211.600 C 309.470 212.024,309.546 211.958,309.568 211.372 C 309.606 210.399,307.705 208.147,306.179 207.355 C 304.941 206.713,304.941 206.713,303.534 207.339 " stroke="none" fill="#000000" fill-rule="evenodd"></path><path id="path4" d="M169.507 115.490 C 170.226 115.579,171.306 115.577,171.907 115.486 C 172.508 115.395,171.920 115.322,170.600 115.324 C 169.280 115.326,168.788 115.401,169.507 115.490 M185.800 135.843 C 185.800 138.818,185.917 140.835,186.060 140.326 C 186.407 139.092,186.416 131.981,186.072 131.117 C 185.922 130.742,185.800 132.868,185.800 135.843 M246.800 139.600 C 244.965 140.605,245.450 140.610,247.656 139.609 C 248.615 139.174,249.130 138.821,248.800 138.826 C 248.470 138.830,247.570 139.178,246.800 139.600 M255.944 139.609 C 256.903 140.044,257.803 140.392,257.944 140.383 C 258.449 140.350,255.387 138.833,254.800 138.826 C 254.470 138.821,254.985 139.174,255.944 139.609 M240.723 144.300 C 240.018 145.121,239.490 146.000,239.701 146.000 C 239.783 146.000,240.249 145.460,240.737 144.800 C 241.701 143.496,241.692 143.172,240.723 144.300 M237.494 149.303 L 236.788 150.600 237.594 149.656 C 238.280 148.852,238.646 147.994,238.300 148.003 C 238.245 148.004,237.882 148.589,237.494 149.303 M266.828 152.200 C 266.828 152.420,267.086 153.050,267.400 153.600 C 267.714 154.150,267.972 154.420,267.972 154.200 C 267.972 153.980,267.714 153.350,267.400 152.800 C 267.086 152.250,266.828 151.980,266.828 152.200 M182.065 158.217 C 181.395 159.688,181.523 160.002,182.247 158.665 C 182.586 158.040,182.788 157.454,182.696 157.363 C 182.605 157.271,182.321 157.656,182.065 158.217 M268.893 163.200 C 268.893 163.970,268.975 164.285,269.076 163.900 C 269.176 163.515,269.176 162.885,269.076 162.500 C 268.975 162.115,268.893 162.430,268.893 163.200 M269.293 166.400 C 269.293 167.170,269.375 167.485,269.476 167.100 C 269.576 166.715,269.576 166.085,269.476 165.700 C 269.375 165.315,269.293 165.630,269.293 166.400 M269.776 180.600 C 269.776 186.760,269.832 189.224,269.899 186.076 C 269.967 182.927,269.967 177.887,269.899 174.876 C 269.831 171.864,269.776 174.440,269.776 180.600 M117.375 180.500 L 116.200 181.800 117.500 180.625 C 118.712 179.530,118.984 179.200,118.675 179.200 C 118.606 179.200,118.021 179.785,117.375 180.500 M270.124 197.400 C 270.126 198.720,270.201 199.212,270.290 198.493 C 270.379 197.774,270.377 196.694,270.286 196.093 C 270.195 195.492,270.122 196.080,270.124 197.400 M237.200 196.733 C 237.200 197.325,236.953 197.600,236.424 197.600 C 235.997 197.600,235.549 197.760,235.428 197.955 C 235.307 198.150,235.522 198.285,235.904 198.255 C 236.526 198.206,236.621 198.795,236.800 203.800 L 237.000 209.400 237.222 202.800 C 237.344 199.170,237.389 196.125,237.322 196.033 C 237.255 195.942,237.200 196.257,237.200 196.733 M116.500 206.276 C 116.885 206.376,117.515 206.376,117.900 206.276 C 118.285 206.175,117.970 206.093,117.200 206.093 C 116.430 206.093,116.115 206.175,116.500 206.276 M270.493 208.000 C 270.493 208.770,270.575 209.085,270.676 208.700 C 270.776 208.315,270.776 207.685,270.676 207.300 C 270.575 206.915,270.493 207.230,270.493 208.000 M270.828 212.033 C 270.844 212.565,271.019 213.360,271.219 213.800 C 271.471 214.358,271.507 214.115,271.338 213.000 C 271.055 211.143,270.787 210.636,270.828 212.033 M237.709 214.800 C 237.709 215.790,237.787 216.195,237.882 215.700 C 237.978 215.205,237.978 214.395,237.882 213.900 C 237.787 213.405,237.709 213.810,237.709 214.800 M310.120 218.000 C 310.120 219.210,310.195 219.705,310.287 219.100 C 310.378 218.495,310.378 217.505,310.287 216.900 C 310.195 216.295,310.120 216.790,310.120 218.000 M278.305 223.883 C 278.802 223.979,279.522 223.975,279.905 223.875 C 280.287 223.775,279.880 223.696,279.000 223.701 C 278.120 223.705,277.807 223.787,278.305 223.883 M166.960 229.800 C 166.961 233.100,167.022 234.397,167.098 232.682 C 167.173 230.967,167.172 228.267,167.097 226.682 C 167.021 225.097,166.959 226.500,166.960 229.800 M128.161 236.000 C 128.161 239.410,128.222 240.805,128.297 239.100 C 128.372 237.395,128.372 234.605,128.297 232.900 C 128.222 231.195,128.161 232.590,128.161 236.000 M295.878 242.613 C 295.260 243.156,294.914 243.600,295.108 243.600 C 295.302 243.600,295.883 243.150,296.400 242.600 C 297.595 241.328,297.331 241.334,295.878 242.613 M128.456 245.600 C 128.456 245.930,128.611 246.560,128.800 247.000 C 129.017 247.504,129.144 247.578,129.144 247.200 C 129.144 246.870,128.989 246.240,128.800 245.800 C 128.583 245.296,128.456 245.222,128.456 245.600 M267.715 251.096 C 268.988 251.176,270.968 251.175,272.115 251.094 C 273.262 251.014,272.220 250.949,269.800 250.950 C 267.380 250.951,266.442 251.016,267.715 251.096 M160.100 279.076 C 160.485 279.176,161.115 279.176,161.500 279.076 C 161.885 278.975,161.570 278.893,160.800 278.893 C 160.030 278.893,159.715 278.975,160.100 279.076 " stroke="none" fill="#000000" fill-rule="evenodd"></path></g></svg>